<mxfile host="app.diagrams.net" agent="Mozilla/5.0 (Windows NT 10.0; Win64; x64; rv:141.0) Gecko/20100101 Firefox/141.0" version="28.0.9" pages="4">
  <diagram name="Basic" id="aftLYJyPpoLDe4t_C3kn">
    <mxGraphModel dx="984" dy="542" grid="1" gridSize="10" guides="1" tooltips="1" connect="1" arrows="1" fold="1" page="1" pageScale="1" pageWidth="850" pageHeight="1100" math="0" shadow="0">
      <root>
        <mxCell id="0" />
        <mxCell id="1" parent="0" />
        <mxCell id="br4ufHqe5Ef_IuzkZ7wQ-29" style="edgeStyle=orthogonalEdgeStyle;rounded=0;orthogonalLoop=1;jettySize=auto;html=1;exitX=0.5;exitY=1;exitDx=0;exitDy=0;startArrow=classic;startFill=1;" parent="1" source="br4ufHqe5Ef_IuzkZ7wQ-20" edge="1">
          <mxGeometry relative="1" as="geometry">
            <mxPoint x="344.95238095238096" y="440.0000000000001" as="targetPoint" />
          </mxGeometry>
        </mxCell>
        <mxCell id="br4ufHqe5Ef_IuzkZ7wQ-20" value="" style="rounded=1;whiteSpace=wrap;html=1;fillColor=none;" parent="1" vertex="1">
          <mxGeometry x="300" y="275" width="90" height="125" as="geometry" />
        </mxCell>
        <mxCell id="br4ufHqe5Ef_IuzkZ7wQ-14" value="" style="rounded=1;whiteSpace=wrap;html=1;fillColor=none;" parent="1" vertex="1">
          <mxGeometry x="190.5" y="275" width="90" height="125" as="geometry" />
        </mxCell>
        <mxCell id="br4ufHqe5Ef_IuzkZ7wQ-12" value="" style="rounded=1;whiteSpace=wrap;html=1;fillColor=none;" parent="1" vertex="1">
          <mxGeometry x="80" y="275" width="90" height="125" as="geometry" />
        </mxCell>
        <mxCell id="br4ufHqe5Ef_IuzkZ7wQ-1" value="" style="image;sketch=0;aspect=fixed;html=1;points=[];align=center;fontSize=12;image=img/lib/mscae/Docker.svg;" parent="1" vertex="1">
          <mxGeometry x="320" y="345.51" width="50" height="41" as="geometry" />
        </mxCell>
        <mxCell id="br4ufHqe5Ef_IuzkZ7wQ-8" value="" style="shape=image;verticalLabelPosition=bottom;labelBackgroundColor=default;verticalAlign=top;aspect=fixed;imageAspect=0;image=data:image/png,iVBORw0KGgoAAAANSUhEUgAAAVUAAAB9CAYAAAAShPDBAAAACXBIWXMAAC4jAAAuIwF4pT92AAAAGXRFWHRTb2Z0d2FyZQB3d3cuaW5rc2NhcGUub3Jnm+48GgAAIABJREFUeJztnXt41NWd/9/vM5MQEC/EgCJJgIJ1a60KGYPWKxXdWsVt19ZaW1t3u1rIxUt/Wl3rT0zV9VJbLyHoYtd1u91atdv2sa2tixa1rpqQIGqFtqKSCyAQAhKuycz57B8zYAiTzDnf+X6/k0nO63nweTqcy8eavOec87lRROBw+A3r15YikpgC4EgIipMfKoHWWwGlIbIR0chGjO5plcun7M6psQ6Hj9CJqsMPuLh1InrV5wmcB+AUACWGUxMA/kqgUQuXSE3pT4Oz0uEIHieqjqxgfdscKlwL8G8BRLJc7m1dXXacH3Y5HLkimmsDHPkJ69eeTOr7qHiyb2tC/uDXWg5HrnCi6rCC9244SI3u+QEVrgRAP9fWQieqjrzHiarDGDas/ThHJ54W8JgAlk8gIi8GsK7DESoq1wY48gMuajuN0K8iGEEFgNdlfvmWgNZ2OELDnVQdGWFDxywCzwA4OLA9wOeDWtvhCBN3UnUMCuvbpxHyDMDABBUAtMjSINd3OMLCiapjQLh4/Rgq/AJIBe8HRw92F74c8B4ORyg4UXUMiOqN3wbg+MA3IhrluiN2BL6PwxEC7k3VkRY+1FZB8GqflltN4kUNLIegC5DNYCQOSYxX4AlaY7VP+zgcOceJqiMt1OpuQLLJkNpN8Mca/IFUT/rrIOOezGIPh2PI4UTVcQBctHY2IWd7X0GWSkRdpueVrvXPKocjP3Ci6jgAir7G81ziDj2+fIF8CQk/bXI48gVXUMWxH3xwfTkj8ffgoTgKKfckqspvCMAshyNvcN5/x/5EEl+GJ0HFE7qq/MYALHI48gonqo79IOSLHqZt0YmCWgHctccx4nGi6tgHG9YeDuAk23kiuElqj9wUgEkOR97hRNXxEaJPh205P8F6FG78t2AMcjjyDyeqjn0ohVNt55DyiFxZ0RuEPQ5HPuJE1bEPEVRaTtFaRx4JxBiHI09xouoAAPApRADMtJslb0rtpI5ADHI48hQX/O9IsqHjWBBjbaaEXQOVC9tOhWC02WjZLLWTXw/WIofjQJyoBkhlZeWJ8XjcSARIbm1paVkVtE0DIzHbGVrp0Gqgsn71KKpRz4MYZTQebABQE7BZDscBOFENEK31z5VS0wyHLwFwbpD2DIZSqLRMrhPo6GsBmZOG0TMAbSSoAKAhjUFa43AMhHtTdQAARKzjU9+V6kmbAzEmHSph1wo7oUIUfIfjI5yoOsD61aMAHGc1R7AsIHPSosBZFsM346pSV6PVkROcqDoAFJ0AmL1V7kUTzQEZkxYBzE+qwtdcyqwjVzhRdQBKrFNTocM7qfLhdycAmGI6XpR7T3XkDieqDij7fH+Ng0avCMSYdCQKT7Gc4UTVkTOcqDogsM6kWiX/WNIdiDFpUIDNe6qAEup7r8PRFyeqIxw+2nkwgGOs5iBcJ5VAbDz/q2R++ZbAjHE4MuBEdaSzc3cFLH8ONMJzUrEOCmCF8XjAhVI5cooT1ZEO7eunQjO8k+qEjuMAHGI63AX9O3KNE9URjrIX1V4cHH8zEGPSobVd0L+OOFF15BSXpprnsKH9EgWe6HW+QJ9pWZd6u9oRvTXSkF1xKi14UWpKf5dpnAJnWQSc7kDXpLezscvhyBYnqnkOBfOEcmYWK9hOGCeQ7DumUozEzyroH9IkCxD3apLD4Qfu+p/vEB/LtQmeMMjNZ/3qQwD8jemSBJ2TypFznKjmMaxbWQjgqFzb4QGz3HxVOAsWP6PaBf07hgBOVPOZkkOnAIjk2gxrTHPzSTsnVchFXhyOdDhRzWcoeXn1F4rRNZ3aqjLVGqkpW+fRJIfDN5yo5jMiU3Ntgjfk1UwjCBAUY1F1Qf+OoYIT1TxGIS9FVUP3ZL6mL+qYBqDEfFEX9O8YGjhRzWMEeen5f1tqp2/LOErbhFIBgAv6dwwNnKjmM1R5J6oEM179AUDB/OoPoAcH9brOqY4hgQv+z2NE4xuISKGXudR4BuAE8wl8Xaiv8LJXX0QSa43G0eqk+rpcPmW3R5McDl/xVVRnz55d1N3dfYaInK2UOl5EpgM4HMBBALYD6ALwPskVAF4uKChY8sorr+zKdt8TTjhhQkFBwRwAp5I8RpIOnHEAxqT27Uz9+TOAPyil/tDU1PRBtvvmGqkpfcvLPN7XUYxCGW81R/TLuqq8xct+tvCxNUVE5Hjj8Qwn6P+cli2HIoHThDgVgmMBmQ7gSACHIvm7tBvAVgDtELwnQLMCX4vvGvfa0rNcptdIIRqLxe4yHdzb23vbG2+8saP/55WVlZ9MJBK1JL8KYCxJyIH9jotTf6aLyDkAru/p6dlRUVHxRDQavbuxsfGvNoaTVLFYbK7WuqagoOBspPIt0+w7CklhPwbAqQC+qbVGLBZrJLlo7NixP126dOnI+oEfJTGIXX6qBkIRVADAdlUBwvgEHqST6tOvdowercZcQuLLAD4DoGCQCNsiJEX2SBAnEfiyQBAZ09V1ThN/C5149LmTS14Msn8WF3VcoQQx8xmSSFSXVflqQ0PbZYr8NIQf9v1cAzsBvaff8C0gVkpV+cu+7b+4pUD1TPghiDjAPvtJQkP6vedzG4SrpKb0hf0+Xdj+Dwr4VP+1tSq6BdxTAS0VUl32w33jF60rU6KrNUfdHgVgnMcdiUR+AGCfqM6cOfMopdSdAC4jaZ1EDuAgkv+YSCQur6ioeGT06NHXv/zyyxkryldUVJwci8XqRSTmbVsAwCwRmdXd3X1TLBa7qrm5+X+8LpR3WP3S7SO8Rn+KJ1vJDv0X1dkrth6m9uj/NyYyZj6SX8rZUCyQy6DUZWc3da2aQ95x+knjHl8AaD9s7YsSHCeQK23m8N4N18t1RxxwWPICH353AlHQIIKD+393sM8/+/ErAL6JKnrHXypETfJ/9LfhwP1Fyd8e8KFSr2ut16W+HC8QpW8DAGzc1IOSQyoJ3MqG9/9bqqe2JickLhfgKqhtP/TsqKqoqLhAKfU2gK/DQ1WO/v8KJL+1e/futyoqKga89pFkLBarI/mKiHgRhnQcA+D3sVjsgdmzZ4+IN2YKjIs+p9iJzvK/BGJMGuzaUctGmV/+nl97X/wUInMau66O9Oh3SdyM7AW1P5+AyE/+2NT15tnLtp7h89rQlDbrSYXat39HpQvrAB5sNUlwtF/7sw6K4PUWe78mVWUHHKikatIKqSl7FuByABtl/uTfyvzJv5UFx/YkN8KLQOTSffsK5gB4C/Do/Y/FYt8m+TSAw7zMH4TJJF+srKz8dP+/OO644wpnzpz5FIBbkL2I94cArtq2bdvTs2fPLvJ57aEHzSvpp1geZvUnEZv2Kf69p57buOnorsldL4G4H8mnqiD5JEW/cHbzlvP8XVZaradEeozjgQeDDWs/LoJvepg6LdnhwQfGt/09gE+aDhfFOus9KFoEr1B4IQDwobYKivwFwGjAg6jGYrF5AO6F/8K2l8O01r+eNWvWvsB2kqqoqOjfSV4U0J579zlv+/btT5IctqFmXLy+BJDJVnPCbJ+yuHUigDLT8eJTEZXPNG75nGakCcABX+gB0S3gV5+PjctYU9aKhLI/qVL5I6qi7wRQ4GFqEcavm+SPDbzRYngLqkqftd5EIAA0iZWsb52hEvyqJn8CJCNxrMSD5EwADyI4Qd1LcSKR+HksFisAgIqKitsBXJphji+IyNxYLHZLGHvlhJ647SkVWhiekyoesWtHLTrrk+qcxs3VivJr+H/zSgvBFolEZjxfOe5x3xfXvfYnVc2sRZX1HZUgvuB5Ad2b9RMAF3acB5g/bQl4SzZOQ634Y6X4FVGIobrsj3s/txXVxfD2TeSFmSJyZSwWOw0WzjQ/EJGbKysrPVfTH+LYv0WrRGiiqqBtgv41pDerU/Scpq5vg6xHOIkwAsGDBcXjTn2+4tB3A9nh6qkbAdiFKVJnL6pK34VsDluK2Ysq5SaL4ctRnbnzRHok6WCcX/qSgJ+jxgt9xdnWMVPuzQhvkFwAYBvCz/yKJBKJ+wGcFfK+gUNaO6m2Y9Pk0JxUIlbl/sxSXgdgTuOWS8BAn7L68iGJK5dUFj8Z5CYCiCI6bJw/KktnHBe2X0hydjZrKHB6VjY0tJ9B4DTT8QJZ4PmUKsmARAGEgpuF8f2y+Yb62+F4ANNysTHJM9M5zIYBdqIqaJEF/of+pINPIQIL+yhmJQTTMadpy+mg/Ae8CepuEEsI1AlwsaI6C4LBTj2vSlydsOQkM0Hlwo5LuXj9GA927cXuCUC8X//5FCIk/sXr/H0mANmJKmB+SiVfR3X5b43GRvY0i+bt+32m1TOg/iUASE3Zr/aGVQnVNeiVD/0MIWoFsBRAB8kurfUhJCcg2WNoBoI9DbxN8gWt9Tql1GYAJSJyBIAzAJzgdVERmQ/gFb+MzDVcvL6ElrcNMsT41A9aj4dSB5kO11CenFSnv/zhuFGF8hPAPMEgxV9IPhAv4ONLTzxsa9+/mNO0+Yo0P+IC4N6tkeLvNleiN9PirF99iOKoh0l8hb3xhwB4CsqnoM3qCEbzamAHsLHjH2DhbR+QLMKqWN86g0qda7yVlltNT6kyb9pGABv3++yq0nfSjq0q/T3gT5rqM1rrBcuXLx/wl+/EE0+cFIlEbiT5Lfj3Jisi8oRS6tZly5YNeD2dNWvW1Hg8XpfK9rI6mYvIhbNnzy5aunTp8Mgrjyes31M1Q8ykUsquMhW9OamKCvUDYvfl8iHIm7aqcY80V2QWRwAQyCYo9Q1T7z4bOmZRjXpcgKnJ+ZjH+rZfSG35cxZ2AgA02cYDMwsHsZWerv+8r2M0C8Uvp+501kF5uRWR6mYYH9pkBWrKf227hw3ZXP93A7i4ubn5/MEEFQBWrFixtqWlpRbA6QA2Z7HnXrpF5LyWlpavDCaoANDY2Ph+S0vL10l+AbYP+MAh3d3ddt7ooYyXhAlRITqpYBP0340J5X+23WNO05bTBfI1823QFEFkxnMnjVtkKqgAXkICM0wElQC5sO1qQl5CSlD3/hUVH+TiFg+HENtYVfF2Ui2Ua2ER/paBURi3vtR2Ehe1fgLE503Hi7AuyDRhwLuo9iilPtvc3PyUzaTm5uZGpdQcAP3zf23oBnBWS0uLVXzZsmXLnhaRi2H/f+ipluOHLB6cVB+ic1LmBn0+IbAI+icb5UtI2G8iNo6pZ3fqnWc9W3no+4bjNQS3FbcWf+b5Uw7PWI2LD7x/BBvaf0fyfqR/ivgE4kdcbrh3Hyu0bayqtaimnpK+YztvUFSP9buqksg/w1THBH/C5rKnbfewxZOoisgNTU1NL3qZ29TUtAKAfRbDR8xrbm5e7mViS0vLb0Tk3y2nHVBUIW+xTk9leE6q+9ccBpiH1VDs26ec07x5DohKsw34QmLnts+/ckqp4e2GGxTl3OdmFd/ypIHYs75tDqPRFQAOzDvvOw5yfcqBZ44o21hVa1FV8cTNSFbn8g/LsCoubJ0qkK+YjhfFBWH8PHsR1TeXL1/+QDab9vb2Pgjgw4wDD+TZ5ubmn2azN4A7YVHIQvK2D9T+sP6D8bC8qhE6vPfUwujJsGpHbV9ERTSvMRpIrIPuvWTpWeY1Wk+vLL7+f046/HljY8i9ZQMHR3A0NrbZpbJ2dbfDrljLKD7aaZyvz4WtU1NO3MwI/mS6rhI7UVVKfQfmfqG3UFX6S5v1vWItqiJyj6Spr2fDG2+8sYPkE7bzUhWxsqKlpWW1iPwx88gkJCdmu+eQgHF7J1WYmVRa2zmpIr1NNsNnL9t0JDKcCvci5D89N2vCBpv1rStO1ZT9KzhoGNY+FHiZzdKy4NgeCKzsx84dxqdVBXUHjCIn2CqkceKOTVgVF605UgTfMF6b8r2g31L3YiuqPfF4/Fc+7W1b6mut1yeHLPc2DvEZ0igvTqoQc/5p1Y763VSoizFK1Bdhdqp51vd8/DQIIJKQ62AgxgLM5X0doy23sHsCUGb5/1y09kRJ1pbNiEAvQEHCps2NsagqiVyHVAETA1ZiU/kvLOzICltRbUxXpNoLiUTiTcsp1qElg2CzdzZB2EMGD+X+tqC2zLeSeoPBpOPoJPPx9kH/NDylIrv3fiuktnwlAZOEgNGIaiuHKQlLZ5VZWBWhvw8j3eCf0Vn+X3Ll5PUAthgaMd2kWhXv6yi2qRkrkLqwfAOAfe7/Kr821lp3Wk4xfpvJhIjYhHWFkcIYBrai2hzWdQkPrfs4LFIltdgF/dcBCuCZBkPffq6y2KgxoV9owshxqpSR/X2wDKvSmZ1VXNTxWSTrhmbeHXLjvnKRAtM0Z6OwKlUg11jUbF2FzvKfG471BdtgeD9iTAEARUVFGSv899vbVoQHJBqNes4Xz0f4wPtHALCKAWSo76lxu/dUZXdS/d/GTdMAZPwlJOVnVnb4waayPyDZP21QBDDu2QUAmpYlADMUVUkWfzZOR21C9UehSyTMD2ORwatV8dHOgz+q6p8ZAb4X5ikVsL/+WwnhYESjUatTkFLKt73j8Xg4J7ChQrTAvtyfCs/zb1fpH7uxqfsNm/U1lVkaZUL8a+lhSPI0Z1Ro+1irhbVdBwCV6fo/vu1rEJlhspZQ3dj3lqNhccNlhnfVXTurkGzqacIqdJYFWsAmHUO9oIrDHzyU+9OhOamENpWpuHxfSwvjKeook2G7EiGm5PaBkBUGwzKHX/XFNlZ1kPx/PramiKK+Z7jO76Rq0tL9P9TGojpYWFXSDl5tupYIbw/7lAo4UR0REGJ7Uu2UeVPWBGFLf7h4/RiIGCdYeHFSiRi14+5++dQS325DNmhKh8GwsXxsjXmrn2jC6qQqg1Wq2h6pMewWISL65gM+VVhpbMdgEQA7o/8EwizEkXgHm0tDP6UCTlRHCraiGt6JrTceg0VhHy9B/yRHGQzzzV9gj9puNEyPNa4DIPPLtyBZi9h0RlpR5f1rDiNh1KKEgp9J9eQDsx03lq8BsNPQkLQnVS5uKaDgOsM1IJrfC7OvWl+cqA5zUk4qq/4/oZb7sytKDSQK7E+qWptEcOSu4aPoYH4PxSKsStJf/1WBuglmkRm9WjFtxarUFTxtubw0pG8C2DPhaxa91VZjc2n4TscUTlSHO4VqSGdSEWLupBKsl6smWje2I40crIcyZ+FzyuS9NI72ErsYcZt21WneVPlwxyQBq82m40dSVTpg8R3COALggLAq1kGRYp6ZRbktV6dUwInq8Eci9k4qqvBOqrQo90f7IioAQHKTwbDRZ7221arLrF8okSkZBwk22TpdCNo4qw7v/6WiEnIHzJJfdmmtBg23sooA6B9WVdL2RYDHGM5+F5vKs60PkhVOVIc5FGsn1SapOqo9EGP6wUXrymDxNCEe3lMBQDTWmIxTKmEUMuQ3QoPykoR1dpu2OakCBVj83iH7tlvY8SkBjOrOErhfaicN7myjNnZWoV8EAGFRP4C4PZenVMCJ6kjAUlRlWTBmpME66F95OqlGo9ooG4/g+V7Wz4bUm3fG6AfapVYn0ZYJAHsK9j0BUMndgFHJwa26h/dmHCXmCQCqT6wqH2o9H8BMw6nvYVPZT0z3CQonqsMYLlpzJACjGM19cxCek0rZFVFJQEZ5euv9fUXJegAmYUtfuHildd+q7IgWfB0Gv4da4OHLTlsWVUmGVfGhjjMhMCo3KJC75NrSrowDO7e/A5idIPuGVVGrfzaZk5p3R65PqYAT1eGNDG0nlSSbQpqOfkuqxpuFHqXHpNZp8ZYdXcbl5LKFdYiScoXRYFFLrDdQUbuTqkqUECATcpeZTViPgoJ6o6HJhA3TJ4yjAYALO86CcecNtqKzO+enVMCJ6vBGPGRShXRSTfVeMn7DJI1SOQeZj2dMxongu59bDZO41uwpaf+WWRdRWZHxzTId449aBxj31QI0S9DQ/mXQ7MtOlNTJlRNN408B8wiAacnW12LcdlqA260z7QLCieowhlS2TqoPpKZsXSDG9KdnwgmwKKuoAU9Oqr3Ed2x7GmbdJib3dm0OvPwfF7YfReBWk7FCejqBpXp4ZeyV9ZFRmEjgNsOx7yC66VEbewjjzKpR2NhxIWBWEQtAGzq3/djGliBxojqcsff8h+ekUpZB/zqR1Uk11RrFKCBcwG+f07LFuIU1F7dOTLWrMRtfhyiJx2HWG2o3euPer7ViXqyawloYFooWwS1yZYX5KRiAhhg7qwhZCMO4YYHcMVROqYAT1WELF7YfZZwnnUIY3nuqgrZxUm3F5il/zXZPiUS+D2RsyreBwNwlFeOM3iPZ0HYOe9XrQMLIIcinEFEl7T8CcIbReOIxuXqqXWuU/ebT5l3V1Kn5hqfqT2JVj9nUljZ0bn/M2pYAcaI6XFHWp1SAifAqU9mlpzb6UW3o+YpD3x2s0j6BZwoLCj+1pLI4Y/tz1iEaaWi/g+DvARxhsj8fW1OkNrT/p8C4t9JurRJ3G44dYFO7EoAmiOAGT/89VNGf4XPhc6H8y1A6pQJOVIcv2rqICiASykmVDWsPBzDNdLyIfWWqgYgLvgOgf7pnnEDdaZXFc5+ZMTZj9hXr15aypH2pADfB8HeIDWs/zh3qVSGMWypT8P1sq4Vp8V1UX5KasoxfOulIRW/YO9wGph2Jnsd8XM8XnKgOUwjrcKoOqZryQSDG9EfFT4ZVnr1d+5TBWDqruIPgPkcUwdUK+pQllcW3mnREZUPbBVR6BYDTTPbjQ23jIg1t9xD6DYAnmlsqf9GFUbPQpkGXsUpVzbwclFHFqkEW8K0lkwB3Su30PX6t5xfGJdcc+YaYZqEkCbEylUqoWWIuqQLSqh11Jk6rHPeDPzZ1fRZAV7yQVyw9sWRrpjmsW1moSg6+k+C1yPCFwEWbxgK7P600vkryIrHvyNsjkEstw5XSo3QbxLez0y+lelJWPbxIrBTg3KwtEazH2IRRf6+wcaI6DOHDHZNo66SS8GqoimEcZIp3pHqSr7VOFwD6wsieuU9XmIkWF7ZOZcnBPxOgcsAxSt+mFnYoUEoJfBJA1OKLYz8EUpu2LqkXooWt6PUlySghkP+f7SIasoo+FAMT4g65fMrurBcKAHf9H47EvTipGE7Qv207avFWmSoT5oLacRGplmMQQU0xF5TzAZyALA4rBO+W6vLFXuf3J3XazbppJoEfS3X521kbpH3oyCxYjx5axciGiTupDkMUpUJsTwOJaDgn1fq2T0DxMNPhWmUX9O8V1q8epVTRPaTUIqQ6qxQs1DWlxrnuFrTBLCZ2IHq0aLOkgEwotdLg6XpQBLxTri3d5Ys9AeBOqsMQsW70x1apPdKk5mj22Ab9iw7kpDoYfLDjaEaKXhXIVQhHULUA303UlNWKzyFHKbJyVlHQIDWT3/fDkNRTTjYn5w/Qix/5YUtQOFEdltDOSYXwOqdatqPehYLOtwIzJg1c2HEpI7rFtB2zD2wVyN9JddmgRZ6zwTIBoD/bdbQn+yiEvtB7BICI3DWUT6mAE9VhB+vXlsKynbGE2OhPIOYnVaLZNhUyG5K9kWQqQOMGe1nu+BuJ8DipLv9NkLtkE6sq5L0yb9pGP+2hmHdX7ccHKCx4xE9bgsCJ6nBDaXsnVViVqe7dcBCAY43H+xj0b4IsgJaasjskweNJPoVsH/8GZqUI/k5Xl86VeaXmBU+84j1WtROJ3ff5agsALeY1APoixD2+hJkFjBPVYYYS60wqASL+hO9kYky8EjbtqMW/oH8b5KrSdxJVpReL4gwCj+LADCyvvCSUL8mEsuOlpuxpn9bMjPJ2UhWR26V2ukWba0OUpwiADYhG/9V3WwLAef+HGaIQs3R1vO93HOiASOJkK79PNJhwKlNkfumbAL7Jxe99G/HCC5TIhQLMBmBakWoXBE0CPoOI/rnML7fuM+ULqqcVCduGBmyF7Hk4EHsQWZW5rs3+CPH9fDilAk5Ug2YPANNiD/4UhRDzws9AuO1TAG4gaBiDKTt1GFdjA+TKj30I4L9Sf8CH10xBQh0HqilKZCIoUWiOBdmtBV2AtIL6HXTu+NOQKPYxb9omNLTvAjDadIpALwgsBbTqqA40tHUDPNhwRidQlBenVACgSBARHI5cwEXryigJq6ueCG+QmtJ7grLJ4RhpuDfV4YROeHBShVfuz+EYCThRHUYoenBSxSUcJ5XDMUJwojqMEIuc+hTvyjVTMlZocjgc5jhRHSawDlEAp1jN8dRL3uFwDIYT1eFCccdMAIfYTNGAu/o7HD7jRHWYoCL6IutJEbqTqsPhM05UhwGsgxLhJZbTNOK7Xw/EIIdjBONEdThQ0j4XgHGf+hR/CiQF0eEY4ThRzXMIkJBbrecJXgrAHIdjxONENd9Z1HaZXZfOJFpxaRDmOBwjHSeqeQwfavsYhfUepu7EzgJPvdsdDsfgOFHNU3j/msOo+QQsw6gAgMBv5Loj/Cpn53A4+uBENQ/hA+8fwQK1FNa9qJJoqoBKujkcDieqeQYb2s9gNPqql3fUFG9K1ST3nupwBISrp5onsKFjFoHrCFyELDp8CsWfVsMOhyMtrp5qjmHdykJVMvZ2LaoRRAcS6EKUB4FyKDSOViIzROEcCI7Ofjd5VarLTw2oDbLD4YA7qeae4rFnCHg9mdK5CAD5SPaE8EsCe4SRKieoDkewuDfVHKMi6oIw9hHIrVI1aUUYezkcIxknqjlGRM4PYZtforP87hD2cThGPE5Ucwjr244FMD3gbRplV+FlsiCwHvYOh6MPTlRzCYO++vMV0XvOdYH+Dkd4OFHNIaTMDWxt4EkpiJzjKlE5HOHiQqpyBBvWHk7oDUj6+/1kuxA3oKrsIefpdzjCx51UcwXls/BXUIXAzySS+JRUlS1ygupw5AYXp5ojFGSuT6rXQ/AJrRP36drJrpK/w5FjnKjmCA0sIzARyaIoYyynrwPkVaF6Fnvw3/ra0q4ATHQ4HB5wb6o5hk8hgvUdH0NEHwNwAohJSnjnWhYIAAAAIUlEQVRQ6q/HQWSHJrpAdAH8APFIs1w1sS2nRjscjgH5P5rR1A2UUb2/AAAAAElFTkSuQmCC;" parent="1" vertex="1">
          <mxGeometry x="200" y="352.99" width="71" height="26.03" as="geometry" />
        </mxCell>
        <mxCell id="br4ufHqe5Ef_IuzkZ7wQ-19" style="edgeStyle=orthogonalEdgeStyle;rounded=0;orthogonalLoop=1;jettySize=auto;html=1;exitX=1;exitY=0.5;exitDx=0;exitDy=0;" parent="1" source="br4ufHqe5Ef_IuzkZ7wQ-10" target="br4ufHqe5Ef_IuzkZ7wQ-17" edge="1">
          <mxGeometry relative="1" as="geometry" />
        </mxCell>
        <mxCell id="br4ufHqe5Ef_IuzkZ7wQ-10" value="" style="shape=image;verticalLabelPosition=bottom;labelBackgroundColor=default;verticalAlign=top;aspect=fixed;imageAspect=0;image=data:image/png,iVBORw0KGgoAAAANSUhEUgAAAQQAAACNCAYAAABRwASuAAAABGdBTUEAALGPC/xhBQAAACBjSFJNAAB6JgAAgIQAAPoAAACA6AAAdTAAAOpgAAA6mAAAF3CculE8AAAABmJLR0QA/wD/AP+gvaeTAAAAB3RJTUUH6AcHCR85hLpq/wAAK1dJREFUeNrtXXd8lFXWfs47M5k0klAChJYQeickAUJRRAFRcK0ouogFCIKia9dPd7Pf7vqtrmVFERLEhoBgRRQFlKL0kFCl95JQUgkkU+/5/phk0mbmfSekTJL7/H78NDPvO+99z733ueece865BAmJOgAnxwZaFH1nCCWaQZ0A0YGhtCJwBIBwgIIBDgbQBIC+zK1WAi4zkA8gD8AFEDKY6SwYp5jE/gBYD1JiWr6UsvcgKQKJWpj8oWb2SyBQHCvcD4z+AKIBKDU4tM8AnErgbYKVrf6W0G006yez7A1JCBK1TQALhjax2MSNzDwKRMMB9KrZya8JV0G8AaysYh2WB0zZfEr2lCQEiRqC6YNh0dDb7wRjHIAhAAy+zFkEbGfQl3boFgcl/p4pe1ASgsQ1oujDIZGKDZOY+C4A/evpa1gBrAAo2Tht8xoisCQECQnt/oBAE/vdTcQPAXS9D5gC1Yk/mOh1/wy/JZS03iYJQULCnUmQPKQTCDPA/DCApg38dU8y8d/9M7Z+RkkQkhAkJErMgvlDh5MQLwAY28C0AS3YA9Bz/ombV0tCkGi8ZgGDzMlDx4L4JYCHNXqBEL6ys35WY3A+SkKQqGgajGbifxBjoJRGOeQB9IJ/4uYUSQgSDR6FKQlDFMZrAK6X0vCI7yxW+5SQx7dnS0KQaHhEMCe+PRn0rxPjPjkeNOMsQ0wMSNy2URKCRMPwE3w8wt9iNT/PjBcABEqJeA0LM2YETN+yQBKCRL1GUfLQGwg8D+CuUhrXjP8aM7c801C2JyUhNCat4MOEZhYbvcXEk2XfV6NcgcX+sDxEiWlWSQgS9QKmeQk3g7AAQBspjRrBCqOfcQI9vN4kCUHCd1evtxMCzEH8b4CekP1d07OJ1hhNoePrc5q1HCANGOb5g/qyUJYB6CalUVvmAy31b9r2AZrwpb0+tl+RXdgwUZQyZCoLZaskg9peYflec86Z2VJDkPCNFSo5NtDExhQifkBKo07Nh5n+0zZ/IAlBos5QOCe+vaLXfwdggJRGncPKCt0cMHXzWkkIErVPBo7Q468BtJbS8BlcskPfrz4lRUkfQgOAeV7CRIWxVpKBzyFcx7aPmevPwisJoZ7DlJLwLBMWATBKafikDj7GnDL4KWkySNQoOAmKOWLwOwDNktLwfYsOdl0f/xkbj0sNQaL6yWDZPTpL6yELJBnUGwRCsdeLHQepIdQ3MkiONZjhtwjAPVIa9cx6YL7POH3rUkkIEtWkGfTyM+eGfAVgvJRGvcRxozmspy+HNkuToR6ZCaackIWSDOo1os3G3BnShyBxbWTAIEvumflEmCClUc/NBtD/8JwRwZIQJKoMc3LCOwx6WEqiAZA70NysN02VPgSJKsGUnDATwPtSEg0K54xNL0fThD8sUkOQ0Iyi5KE3AHhHSqLBoa0pL/ReaTJIaCeDuYOjCGIpfPsUZYkqq+acKAlBQpudmRxrUBT6AkC4lEaDdSYMNc8d0lsSgoQqzDD+k4FBUhINnBMU8ZAkBAnPpkJKwvUAPyMl0RigTPC1TEhJCL5lKoQSYxEAnZRGo+jx9kXzExIkIUi4MRX8/gWgrZREI9IRmO+UhCBRCZaUIfEApktJNDbQKEkIEuUVx6QResFivjQVGiX6XF0wtI0kBIlSU6G1aQpA/aQkGqeKoFh5pCQECYd2MGdEMIj+JiXRiBmBeLAkBAkAgElvfh6yOGpjpwSfIQSZ3FSHuDJ/UCu9UI4BCJLSaNSwGv2MIb5wUKzUEOoQeqa/SDKQAGCw2Iq6SpOhMfsOkmNDwSS3GSUcsFMPSQiNGBb4zQIQKiUhAQCCFEkIjVY7mD3WyMDjUhISpRORoyUhNFKY/PMnAGgpJSHhXCTA7SQhNNbVQIgZUgoSFUaFT+SwSEKobd/B3IQYJt/Zd5bwGR0hQhJCI4RQ8IiUgoQLBPOye+o8l0USQm2uAUkj9JBHsEm4BiH3eLAkhEYEc4RlDIBWUhISrlBkU0IkITQmDYH4ASkFCbeTkYx1XmFbEkJtkcHssUZi3ColIeEWOlHnuUX62njIoPlbW9ntur4gJRpANIijwRQGwI9KYvkZVlYohwXnksI5YDouCAdYoYM7H405DSKu1+aCf+5IMIXIUS/hftWwKw2SEAbN3hpi9/O7FcTXA7jOLtCjXF4ll/7hnOUEx6mmVPq9wgDsjLiU9CtITtvGTOuJ7etYoe1piXHW+tXbdJsc8RKeh4hO1HkTquuH7lm2THcyp9MoVvhBMN0OIKAG230VxD+RoCVBxssr1z98g8mX+5kZZE5JOANZQFXCA2w2W0TwzNTz9ZoQRiSt019tHTKJiV8FqGMdvEM+gb5jYZ+/47H4TT5pLqQM7cUs9skhL+EJRpuxCc1cf6Uu21B1m4WZ4ualTyyICNnPhI/qiAwAIJTBk6EoG+OS07bGp6RNGJG0Tu9LHc3CPlIOdy9XqmadYJy8CvrhL5Tat3FTYJy8Ckrrvqr363rcDuPkVdB1vaW+vLLApfWFdd2IKhFCwtxdbeNS0n8E8WICuviQUAcxY2lBRMiR+OS0aT5DDArdKKe4t4ygAMYmgMG/zCw3Oj4jDQF9Oj/HtbrSnTwKbg398BegdB7li2+cTUkQ9Y4Q4lPSHrAp9r0AxvrsWAKiGEguiAjZHT8vbXydagdJUMC4Xs5wL+VWkAnrL69A7PuqasvtmS2O+8+lln4YEAZdjz9BadXXF1/5oi80QvsKmsRKfMTON5jrz7mDBPRkwvdxyWkbGPxEWmLc3tpug6XN0B5gESanuLeCuwJxfG3VCSX/DDj/TD1iQFyoN4TQefYRY5h/2sfMNLGeDq/rCZQWn7Lj7cKwgL/+MaGXpfYMQzGoMVSypWadoOt1Fyi0A6AzgAsyII6vhzi5ofLFfsHQ9Z4ApW0sSB8ALsiE/dgaiBPrS3/PPwy6vvdDZB+GOPaL52cHhUPX626ABex7vwCb8qG07AUl6nrYT64HX9wPXffbQMW+B6VVb+gHzoA4vQni/G7fkB/hnE9Yt6r+grc3B4T5F/yM+ksGJTAw0wsBuaatA+el19qhKCS4wac663rdDb+7PoWux+2gsEhQcGvoOo+GYfT/QR83pbw8QtvD757PoY+bAqV5FyCwGZSO18Mw6jUYRiY5fAcA4B8KXf8/Q4kcqkoGhnHvQ9fvAYjck2BTvuPzFl0d9zd3uLiUyKHQRTksN2oaDV2PP4GadfIldfao7xNCEivWIOPnYB7RgMZvjCDeHpecVjslzIjiGzQb+AVDP/hxwFoE6/JEWD4fD8uiP8G6PBGwmaDrP8nh4AMAUmC48X9BQS1hS02B+bNbYFl0OyzLJoLzTkPpPBpK1HXaRVtMBhTSFtZ1f4c4usrttdZVL8Dy4xMAAPvB72H+dAzs+7/xGTEK8DGfJ4TY1ulvA7izIQ5jAO/FpexY3Pez3TVWBr043bmHLwrALhhr/sjDwx8dRZeX0vHuL5lV47vQdoDOD+LCHogLpS4acWEfbLs+hzj5OyigqWOwtY0HtegGkZEO+85PAGFz2vu2Le8Wr+TDvCODJm1gXZsEcXRN/day7HTEp30IcclpiQCebNCrG9NEQ5GtZ2zyjrvSEuOqnaEtrYu6AorRl155f0YhFm/LwuJtWcjMK3WlvPLNaYzqGYqebQK9+8GrlwAWUFr3hxI5DOL0ZoAdu2f29I9gL7v6tB/kIItDKyqvkOd2wPrjk2DzZfVnBoXDcN2LoND2sB/6QdXHUA8gDMK432cJYeD83R2FsL3ZCHxhIKAfgVIHzku/dfv0AVuq+df7+MI75hba8E1aNhZtzcKWYwUur7EJxrfpOV4TAhdmw77rM+hiJsMw5g1wUQ44Ix0icyfEyd/Ahdml0ghpV6wRnHUxJazltwg9OYOue8GRBGO3QNdpFOw7PwNfPlufR+HRuo5QdG8yJLEihO0TAMFoJGCgqSBeMyAlbUz12oXUsy7f68gFEybMPYyo59Pw+KITbsmgBGrfu4MtNQXW72fAfugHAASl003QD3sOfg8shz7hyVJHod6hLLHlGsc+M6w/PQ3bzs8AvRH6Yc/W9xG421daUokQ4iLSZwC4Do0PQQpjedy89LurTbgKouryhV759jRW7M6BxVY5czzIqGDRtC64b1AL52cXC6qeQCrO74Ztw2uwLBwHy5cPwLb1PXBRLnR97oWu2zjHRcXmAAWFu/HsBDv+qcC64TWI87th370QnHcKSruBUDqPrr/6AVOaTxKCw8FGr6DxwgjiL+JT0qqlshEDHerqRfacvYoVu3Pcfv/G3ZG4c0BzvDUhCjrFESmRe9Xm/QBqEwv9wBlQIvo735pzT8C+Zwlsv7/uGPARMQ7SyDrsuMd5bZlJEdgCxodWwW/8HPWHFuU6/mu3wrbxPwAY+oRZjlDlegg7i40+SQh+RbaZADf2mn86Znwal5J+VzUwQmRdvcS/V2aA3ZSU6d02EA8Nc3RzsyA92jZ1bAsaDd6ntlBQOHT9/wxdv8ocSsGty2kG4tivDgdkz7tAgc3LC73PBAAEcW6Hd5pJRjrsh1eCAppBP2imxkb7VKiYOcDf3/c0hF5z/ggG8BwkAEAH5oVxc1NjqswFSVBQR/UP/sgoxPKd2W6/f3V8Oyhl5oSfzvFHaID3VcDtpzc5IgM7DIVh/Bzo+k6Erts46Ic/D/3gJwBhhf2gY1eBCzJg37UQ5B8Kwx0LoOv/IHTdx8MwMgm6fg+ATfmw71nifRu2zgGb8qHrNs5zJmTxNqfSqg+UdoMcUZV1bi9ghy8cA18C5y5DgM58L4AWkgucCICifBvzUXr8zkcGXPL25qJWCRGKI96h1vHWqkwIN9pBp5b+GN+vWbnPcopNhZCAKiSHmgtg+/lZ6Ee8AiUiBkpEKYdy3inYNr0FzikNwrOlpoBtZuhjJkE/sPTwa845Buv6f4ILs4pnuQWcdRC4XBofwVcvgbMOgq3ls4TZlAfb5neg73sflO63QZzfAy7KdVxblFeuPZx3GtS8Cwy3vAPbltmw7z1dx/4D9qkACn2Zlj0oOaASIvUWXgjmsV7XdCTqUKZAXK3hfL4FX6dluf3+0WEty2nMZptAXqGDEMKDq5YtLi7+Acuy+0EhbZxmAhdkgAvOo7IMGPadn8C+9wso4d0Bv2DHtTknyl3LBZmwfFP+TBv7vmWw71vmug1HV8NydHXp3yfWw1ImN6LE52D5+kGHFkEKOLvuo4XtrKz2OUIojjsYLue/C9WfMCY2eWdiGjDPK5tDQSTXQVnY+b9ddLmrAAD+BgWTh5Y/Y3bv2UKnNtE94lqq3jH48jnwZY05OjYTROauOpiBFq/9FDWIvIDzfqm+NN4VALDb7Q6PjoSbxZ7fSJi7yyt/AAvRpta9UzaBD393n0U7tk9TNAsqrwWknSyNCejbLkh2dm0uNqBVlLTe5nOEoIBvkN3jEU1sinjHO82i9k/hWbY9Gxcvu48luDuuWaXPNh0tDUbq1TZA9nRtTj7GVz7XphFJ6/RMGCK7R1UhvidubupAzVoFRK1Hen640X3RnRB/Hcb2aVpJo1i1Lw8A0L6ZEVHN/WVH1x4K/QKv/ORzhFAQ0SQWQBPZP5pW/Ve9MDRqlRAOZBZh+3H3oce39GuKgApxBusO5uOyyZF+dEvfpj62Pd/g8TM9uOeqzxECgAGyb7T6EnDrgPlpsdo0itol2YVbPO+Mju0dVumzxVtLdyNu7RMmO7g2xxKw0CfNGAVKJ9k92vtRYX5VW4fXnoZgtTMWbXVPCHqFcFPP8hP+4mUrlu9yhDY3DdRjeFd5ylwtkkG2nznsJ58kBMEcLbvIK7vhtoEpu7qqXyhqTUP4eV+uR2fiwOjgSrsLn24u3Z6cPLQl/A3y3N/aG0K0mGb9ZPZJQgBBEoKXBM+wTVI3GWpPQ/gyNdvj92N6ldcOTFaBeesd25M6hZB4fSvZq7Vrp3/kw22T4cpeMzzTJCSxoqIW1kqlpCKrwE978zxec0OP0HJ/f7TxIjKKqyWN7ROGqBZG2am1Zy9s8pu2eZevNk9PgNxr8h6R8W12Dk8FNni4xl4r5sLeXFwxu39UE38dYjoEldMO3lqV4VgNCHjplnbV1habYOReteGK2Y7QAD2aBuprdOfCJhjHLppw8bIV/n4KopobEd7EoPn+YxdNyC+yo21TP7QK0XafxcY4m2uGxcaIDveHn17bCxZaBExWga3HLi+rhlcPBtAOwEGN17eAI9EuB4DHwyr0kIRQNS0BYhI8EAITrFQLocvf7cz1+P3QziHQl0ltnP1LplM7uH9wOAZEXlt04pELJixNzcKqfXnYd64QJmvpaWRNA/W4rlsIpl3XCiMraClV184cPpNFW7Pw64F8Zx5GCXq2CcQLY9tgQrx7xff4JRP+tvwMvk7LBjPwzcxulWI0KqLAZMc/VpzFp5suOrdqI8L8sGx6V8RFebYOX/jqFGYXF7FVFEwAMNuLV24Gx05gjKIoMcwcA6ArEb0phHjBw30BAKYR0UMA+pf5fCMzPwy4LvsuCaHqniGPR9kpDHtN84HJKvDzXs+EMKxLqW/zXK4F//nZoR0EGBT8dXzVtYOjF02Oiky7ctxmVuYW2rB8Zw6W78zBxEHhmDcpWvOK6tJXsiMb//rhLA6dL3J7zf6MQkxecBTbT1zFmxPKl6PIuWrDv1eeQ/KG806HapBRwYjunsnq4mUrxv73APZnlM+yzMyz4K/fncHKp9wX1j58oQhz15We8G6382daNAAiWgggBiitqcFlkmOEEF94uP9uIpoNIMLVkCCidczcH0C2K0IwAwiUM9xrtIlN3tE9LTHuoJuVzFbT2SHrD5UGFrnDdWW2E1/6+pTTvHh6TBu0b+a974AZeHt1Bv6x4izMtlJtoFWIAR3D/XEgoxD5RZXbtGTbJTAzPn6ks9fPPJBZhKeWnMBvhytXZDbqFQyMDkbTQD12nLzi1H7mrM1EbGQgJg4Kh9km8MHa8/jPzxnIraBRjOweVilgqywEAw9/fLQSGZTgoAdyEgw8vugErKVLgxnAlxpeeRKA2z18fwjAThefBymKksLM96v8fjtFUZ4VQrzkghA4ByBJCFXyD9FNbu04YltN54ut+SPf4/f+BgX92jtMgu935eDLHY4FoU+7QDx/s/e1W4qsAg8tOIrvd5WWZgswKHhzQiQeGtYKCjlW4fGzDyD9VOUgvC+2Z2HykHDVFbksPvztAp7/8hSKrJUPRp40JByv3dEBLYr9BhYb44nFJ/DZZkcI98vfnIHNDvzrx7M4le16l++WvmEen//FtktYe8C9nD2RyZy1mfi9PIn9ACBXdVwRzfRMyuxKO+hIRN8ys6ZTyZj5VgCVCEEBKFdO7SrD/THvpNR4FtuqP/I8fh/TIQh+ekJmngWPLTzuWAEUwtwqqO5XzHaMe/dAOTLw0xO+nNENjwxv5azA1CxI75FsvlDZIi3rvHtowVE8sfiESzJ4dXw7pDzYyUkGJe15695INC+u63A+34Jpnx1zSwYKwaPvwC4Y//jBc3n3rq1cJ4RtOnIZr3x7uuIk1BKdOAJAL5VrKhJCHyLaBMCbIwojXMqk2PMoUTUM90DBNUoIxy+ZcOyi58pb8R2DIRiY8ukxZ1Wk525ui9hI70IkLDbG/SlHsPlo+VyJV8a1w40unIV92rlXOD3Z/yW4aha464NDWJrqutDLI8Nb4eVbXfs/go26ShWh3CE2Mtjj7sKa/Xk4meU5fmhgdGWn7B8Zhbgv5UjFuhTZAFSjE9W0AwC7KmilCUS0wd0E94A8d4RwRs7rKqO5uzoJTMirUe1gn/rPx0cF49VvTztV3oHRTfDiLd6bCk8sPoE1FbSRPu0C8fRo1yUfAv0Ujz4ITzDbBO6YcxC/7Hf9fr3bBuLdiVEefyOyuTbfyFgVc+GH3eoy/lP/8uSTevIKbn7nALIqlLQnoqUA1E4db6viOwAzf122i4noZwAlas5ZACuhrVTXOXeEcEDO66rDqhN93fgXsmryua4cbK5W47dXO3YVWoYYsGRaF69NhQ9/u+C0ycvixVvaOsu3V8QFD2HUnVr6eySLGZ+fqGh3l5lUwNv3RpXbRnVnCmjBuL6eNYnUE54PlOnWOsB50pXVzvjvmgyMenN/JTIAACHE5xqaNBUejlcsUVzKmAk/AQgpJpwPmLlzsW9A9eAXInJZNkqvEA4IlhO7ymDu40oVJBbZXINOxe0qg1UhOLcYdQrhs0c7o02YdzVfj18y4cWvT1X6vH0zI26Pae72vh0n3bftVg+r8turM7DYQ5LWA4PDNSVh5RWpx4S1b2b0aNoAwPnLnhf0OwY0w+lsM77flYOU3y7gyAW3JtwRAFs1TFK1Q4LyAOwA0IWIVgNoDsDOzInMvKDMdU3VniWEcHlsod7OfIBk9bRrgcvzG7kGNYSzuRbn9prbDmc4twX//qf2uL6b94FBT31xElfNlR164/o19bgKuwuW6tjCH7f1d70q7ztXiH+scO/A0yuEl2/VZu54SvQqJSbVOYOmgXqPv/XfNZn490r1GpJEtIRZtcJmN6g7EzcAaEtEvwBoXUwGkwAsqWB2qJ0HYgfwm8uFJLrp8SPuHAwSmuAyfZyYa4wQth3Xfgbj5KEt8cwY78s7/rI/r5LfoASje7knly3HClza/356wqePdnap7tsFY9qnx8rFNVTE3XHN0bGFthi6XafV647c3DtM9Ro156TJKjS1RwixVMNld2ggln3FZNABgHBBBgCg5YChzQBcqmLKlxMm2AH8Lud1leFytoka1BDSTmkrtHNTzzC8d3/HKj3jjWJzw6VK1NZ1uHPOVRse/fiYy9V93qRoxHd0vbuxZFsWdqpMYncOzIooMNk9BgsBjmAmLabHc2PbuG1zWXRtFYDpI1q7y9vYB2C/hsmuSgjM/DiALsX//6QLMgARTdLwO8vdmprF/10n53WVEQHmSkNBB12NEYK7qLmy6NkmEAundIZB5705uO9coVvHXoi/zqUv4ny+BeNnH8CJrPJ2dLBRhy9ndMXEQa4PeLXYGP9U2euPjQxWtfedS9/RAthVnGJDOjfxuBNS9l1/eqonXhjbtpwcdQohLioYT41qg5+e6oFdSf1wMsvscgeFmbVoB+0AxGu4LrR40r8G4H1X3Q4gTo0PAHzj1jRzPEBZxyzk1K4a/GJT0pqnAeUIwCBw2qyrmQeqxR8YdITvn+iOsMCqHbzy1Q73wUOtQ/0qrYQ/7M7Fk0tOVPJrjOwRig/+HO1xG/DrtCy3gUMluCe+uea2f52uHvh0oxeJVkFGBXFRwbAVk0zzYD3S/9oPLcvEL6zck4uf97mN79OS3TgaGsNaiehzIYTLA5kVRZmk7qrARgAnPGoIqRn99wB8Vs7ta9ASKnbcjI25XANBXzbBqhMoNLD0ANeq4Ifd7oNXg/1LV9ZfD+Rj3LsHcM/cQ+XIIDrcHx893Ak/zOqhGhOwZHu2ygQA7onTRggmq8D3O9VFflNP7YRwNteCxM+OOVf/1+7sUI4MLDZ2uRNTjHQAh9WeoSiK1qrnvwshpsB1nIHCzH/WYC54jJZ0LCFJJCg5fSmDn5Fz23voWHFtaBKOgjGwOp91KstcNlnGrapbVeQW2nAg071JUmQR+NvyM/hqRzaOXzJVsqWfHh2BBxLCVWMFAOBSgdVjnkAJuWjdLv1uZ47LxKqyaBli0HwgjdXOmPThEWeU5w3dQzEpofzJV/PWn3e73cjMmmofMPNgDZddYOY74UiQcqdlqKWvmqCSXOXUKe0KL1EEJCFUZdXWcYAba+0oUL2EcC7PonrNtRDCvjJHu7nCgcwiHMgs3Woz6hXcHtMMjw5viWFdQrwqiLJJg70/KFp7acqSmgOetYMwzW18dtlJbD3m2NFp0cSABQ91KnevxcZ41/0zWaO5YADQVQNpPIEKZmkFLeMhDebCD1DZUXQSQvrU2LS45B2HAeoqp7h3IOGBEKo5xKPApB50ExJQdUKo6BR0BX+DgtG9wnB7TFPc0rdZlY6RB4C0k+q7JX01OhN/PZCvulMBAIOjteVx/Ofnc0jZUFp38sPJnRBRQVNZvO2Sp3iQQ55s9TLoXEwKHi0XwOMpTwHMPE4DqSxSu0ZfwV77hBmvySnuNdyN2mPV/SAthBBcRQ1BMLDxiHqMw+aX+6BHxLUd+2a2CWw4nK96nZYTqZmhulNRgn4aCObFr05h9q+lK/9rd3bAmApxC4KBd1ZnevB90EYNKzYBULX7iWi5SmDTTQDU7KBcqCdXjSy396JXLMkArsr57aWGwIretYJAR6r7WVc0EIK70589wS4Yjy08jq0agp5STxRc0ztcNQvcNecQzuaomz/Ng9VrHS7cctGp2quhZ1vPhJC8/jzeW3ve6USccl0rzLqpciLh9uMFOHzBQ3EUIdSciXpFUT7WEn8ghPCYm6Aoyu0aSGWZB/8D4MiN+LocIWyZMiQHwCdyintJCGCXgg4g824A1ZoGrSXvREvobjlPk1VgYvIRfLb5otuEpbL4Ynt2ldufX2TH+NkH8OuBfJhsQlPbPCHnqg3/8622hN1gow7BRvfa0zurM/CXpSedPvw7BjTHO/dFubx2+S7VMiKehBRARN8w82QAWjymB1VMgZs0kIonf0Z0cW5EWKXoDLKLt1FLFYMbCgS5JgRKTCuEhig1b6DFP3D4QpHmsNoCkx13zDmEFbsd23VasiHXH8pH2qkrXrc9q8CKse/sx5bi1VxLVuJRDzEXVjvjwQ+PIKvACiLg5t6e8xM8vdu/fjiLl7857dQMbuwRio8f6eR2t+Tb9Gw1AbvbKw0jolUAxhf/raXcsydtoy0cocyeUAhgk5vvoorJoDVQGqlYqg7OiD+u4sCQqGQysMWD+pBanc9qocGmNlkFftmfr4k4RrzxB9YfLL02XkPxFGbg8c9dVzJyh23HC5Dw2l6n408hoFmQ+lz4ZNNFZ1BQRU3p8UUn8GvxtuVjI1pjXL8wz0Z0oa1SlWbBwCvfni7ng+jXPhBfzugGo951NOPpHDOfyjYrKir6eBcfRxDRepQvrHNRzQJUuUbLluUBN+ZCTyLaiNJ8nFTFte3L/wP1Yg4SJYNKp7hfxrh6CaGkRqIa/rMqw+OW3vKdORj+f/ucYdAGnSPf4M17ozQd67brzFVMTD6suu/PDLz3ayZGvbUfZ3MdQ8qoV7BwahcM7qROPkcvmvDiV6fLkcKJLBPueP+gs05DbGQwXrurg2qYNjPw1qpSR+DJLDPGvrPfeU4FANw3sAXWP9/bY63E5TuzF2noguGKorwNR2xABwCJxTUI+pVR9V8lIrXaBefhueBJlJYh6uKzUcWVlkpSSH9n5ptcLjdpiXHHYuelzSXCk3K6a9OG3Tp8wKmiGvcew5sYENXCqFraa/vxAjyz7BTemhBZzi+w8/RV/HvlOazYneNUj5sG6rEksYszRfrGHqH4cY96qc1V+/Iw8J978MzoNrg9plm5CL6sAit+3JOLD9ZdwJ6zpX7q0AAdlj3WDdd1DUHOFRsWbr6k+pw5azOxYncOYjoEISPPgvRTV51k1yrEgKXTu8KoVzQd0vLmqnNYvisbYYH6cr8DADNHRuCNeyI9mjIM/uLFr0/9BJCWqMC/ENFfXHxlZ+bHAMwHMO8afBFQFKWlht2M/sX/dgEIVxTl78w8HaXh0muY+Q4AV93qnxZh+LtRZ5sEcDM531VMBsFuR7UB1r1m+BXBcXBGteC+gS005eEnrz+PX/bnYWT3UAh2pAWnn75SLgmnU0t/fDOzW7lioc+OaaOJEADgdLYZTy45gSeXnECrEAOC/XUotAhkutifjwjzw/LHuzsTlcb3b4anl55Ujbwsec7pCiHbAQYFS6d3dYZpay0rXzGykAj46/j26uXlGGv9mxVMttsx7hpOpDIXpy2XRAyqlb6qDk3dQETb4YhnaMfMZZlzBTPfU2JSuNWL9s7om8sQf5fTXRX2tMxYtwH0lJhmBbsuRlFVTB7S0q19WxHHLpow/7cLWPD7BaSdKk8GN/duit9e6F2pcvDgTk1wx4DmXrfrwmUrjl00uSSDuKhgrH+uV7msxVYhBtweU7X1xk9PWJLYtVwkY/eIAI+7CK6gUwjv399RS63JfUaj8S6a8IcFbk490sKfzHxDGTKAEEKNEDxuGQkhtOYgGQB0LOvEJKJkZr6rrH/B46hKy4x9H47sKAm3PkNkI4k8e9cU9Wq73iCqhRHP3tymyvf7GxS8fnckvpnZrdIx8SWYOykanVte+6FeRMCMG1rjl2d7ooOLRKd/3tEBQUbF6/YvnNKlUrCQXiGvjoxrHqzHilnd8chw1dOvj9r1yhh6eH1eCTnA++LE3xcfw1axdNk1EQKqVrqgiJmnCiGmV/x9zz2RRILsYjJksJJ7LZLopOpFNuXn6n7u8ze3xegKx7xrwbAuIdj2Sh/MuinCY0x/aIAOq57uWe6gWG8R2dyIH2b1wFv3RrnVaDo0N+LdiR015xeUTGJ3pdi0Hm0f0yEIm1/qgxvUD405y4p9dNCjm8pWjBHM/B+NYrAw81+Y+Xa4zn69VkLYh9LCq1qwjZkHAPjQ9dqlgtQZ8ccZ/Dc59d2sgKyuPvrP2HQIwPHqfK6fnvDF9K64b2ALTdf3aReILxK7YvXTPd0eLlIRbcL8sOrpnpg+orVX1ZrbhPnhzQmR2JXUT9OK/cDgcLw1IUp1l2Bcv6ZI+2s/DOvivtrRyB6hHld8nUKYPqI1fn2ul0uNpQIuEjAqYOp2VzkJcwCsULl/ZfFJSv+F+50CdyGWR4joE2Z+T3VRYp6iQWM5w8wPM/MQeAh00tbLSazEt05fyYQxkgIqdgb9b9r0AaqEaZo3eA6IZtREG37Zn4cFv1/Emv15zqKoRED31gG4rlso7o1vjoROTa7pGSezzPh8y0Ws3p+PPWcKy9U/9NMTercNRFxUMG7r3wwjuoVoinisiPRTV/Hmqgys3JPr/P3wJgaM6R2Gade10lTOzLF8A2+vPof3fz3vLAkf3sSA8f2bYeYNrZyl09U0A1J4tHHqVk/HFBgVRUli5pkASgScS0Q/CiFmA5q2nEcR0UoAu4hokxDidziCiM57Kb42iqL8X7FPoEStywGwgZkXA1iuQdvQvh828P1tze0G/Q7Stu/ZmDSESanTY1Vr7hfNS7iRCL/UdHtyrtpgtgo0DzZc00nLarhssiP3qg2hAboqV2byNKHP51vQxF+HJv7XVnYqq8AKLiYEL3r1MOswOmDK5lNa3RoAogEUFa/U3oSrBxXPwyvVJD4DgJZwRCd6fUyjVyNm4Lz0foJ4M+Rp0WVGr+iz47H4feqaBMicknC0eOBI+C722fXKmAo+g0YDr9y726cP2E2EmXLMOFEYfOHKQU3MS2AGLZQi82n8aIRlWGMlA68JAQBSp8V+QiSdjMXYtT7pBu3qoRCfwHUYqUQdu4JA/Loxc8ttlJiW35gFoVTlptRpcf9LoNnSgcBbvbk84LGtJwGslfPPp5BLTHf4T9v6IiVJslaqemPqtJinAHzcqPlA0Bpv75HRnz6lF6wVNls/4/TNy6UwrpEQQMQMTgRxY02VNgtir0OSAxK3bQSwWg69uu07YnrReH7LqMCZqWekOKqDEACkJcZZO4Ydvw/AR41QduvSEuMKqyR0RbwMzymtEjWHDcRigHH65telieBina8e1YspNnnn80T82rWSTP2RHD24Y9qAKu8aFM0b8jkRPyCHYK0hkxjPGKdvWSJFUUMaQlnzIW36gNcF4U9wc6psA0OhUVf43bX8gL+eZ8GRjipRs7jCwD+MZtFdkkFtaQhlEPNRerjOJj4A090NV2r83o5pcbOu9WcscxNihIINKA17lahGPwHAyVah/KvJY5svSnHUESGUIH5e2r1MeB9Ai4Y20Mhm75I6c2C1OKMs8wfFCqH7FuD2cjhWCwoAThEK/zdw6japgfkKITi1BSu/BGA6qrFiUB3j6R2Jse9U5w/y7EEhZn/dP8E8DYBRDssqIYMI7/sZjHPL1C2Q8CVCcBLDgvQ2Ohu/DGAqtNWh90UIAv0rdVrM30BUIzsEBXOHtDToxNNgegIyX0RTnwBYS0CKHyzfUWKaVYqkHhCCkxg+TI/U2XkGgAdRXAe+niBdKHgufWpsrUQZXpk/qJWelUlg/jNA/eQwrdwfBF5qV3ixNAvqMSGUIDZ5h4FYdwtDTCHCWAA6H5SNANGvCnju9qkDvqsprUDVYZEytJcQ4gEiTEBp/fxGpwkwYYfC/D0zL/Ofvu2InLoNiBAqkEMLAKMJNJaA0ezI5a4rWAFsBrCSbPYl1eU4rC6YPhgWDZ19FAg3MWMkAQ25InYmA+vA9JPNT7eqySO/X5LTtREQQjkksTKw9c4BrIihDAwA0wAA3VHhlOpqfPlcJtoB5lSwsl1nMa/bNmvw5frQcbzsHp01JyNGkBhE4FgGxQLoWVOyqmHYARwipu0C+I1g3yi1AEkILpHw9uYAW3BAb8H2KAAdFCgdGBwFoBWAIICDCBTGQDAAK5UpKc2OElJZALJAnE2sZAiIYyT4qE7vd3Tb1H4Nyv7ktxMCigKpv6IgBkB3MHcG0AVAJLSdIVgbOA/wARAdAmivENgZQObdxedgSkhCkKhxokgaoTe3M0fBhs4g7khASwaFw2GetQQQDke8SPg1jInLAAqYcI6YzoPFWVLoggDOklDOk8521k8fcFpuCUpCkKhP5PHxCH8U2QLgZyezRRcGAEQikPR2IwAw601soyIbmwuDyGiGruiK3O5rOPh/4Fs6GkA7W/cAAAAldEVYdGRhdGU6Y3JlYXRlADIwMjQtMDctMDdUMDk6MzE6NTcrMDA6MDCbCLHxAAAAJXRFWHRkYXRlOm1vZGlmeQAyMDI0LTA3LTA3VDA5OjMxOjU3KzAwOjAw6lUJTQAAAABJRU5ErkJggg==;" parent="1" vertex="1">
          <mxGeometry x="95" y="287.46" width="60" height="32.54" as="geometry" />
        </mxCell>
        <mxCell id="br4ufHqe5Ef_IuzkZ7wQ-11" value="" style="shape=image;verticalLabelPosition=bottom;labelBackgroundColor=default;verticalAlign=top;aspect=fixed;imageAspect=0;image=data:image/png,iVBORw0KGgoAAAANSUhEUgAAAqsAAAMgCAMAAAAzxdtsAAAACXBIWXMAAAsTAAALEwEAmpwYAAAAhFBMVEVHcEydnZ1PT09NTU1OTk7zdiXzdiWEX0pNTU3Ndj9XV1dPT09OTk5PT09OTk7WczXxdyhWV1dNTU3ydiXzdiXzdiXzdiXzdiXzdiV1dXbzdiXzdiXzdiWZmZqdnZ2Ojo5xcXJ1dXadnZ1gYWHzdyZOTk6enp52dndNTU3zdiVhYmJgYWFcZG3xAAAAJHRSTlMA/EWl/vv+BPoCGmHEdJERKDDhQ1tz6Yyy+qDYxVOiga3W0t6uzrWOAAAgAElEQVR42uydDVPiPBSFO3VKJigWhlIoZYcydIYJ/f//781NUkBfP5AkbVPOWdcVRVzr48m5Nx9EEQTdLcbVP9N4VlWHQ1GciuJwqKr9YqrezxkuETQEcQKVL/aHk1Rh/qq35RvFYb9QNOM6Qb1bKr36V7V0FkVLrLlBL9WiRRqC+iR1URkyT1/JwLtPCVdcMKiv0V/+jQ8XIL9E9fLRagpYoR5R1aReI+q3yBaGVuRWqBdSp4efLPULh60QBKBeUK1OvxvqR1qL0z9YK9Q5qYvib6Qab63grFDHqO4fIpW0wPWDukT18HdUL8DuYa1QZ6hOi8dJ1TkAoRXqBNXFo6baAnuAs0IhoGpghbNCw0cVzgqFgmphYIUgv2WVvatqXitcTcijZMYsXKCqHmKP6wn51MGJq2pcY9RXkL8EsHeFqoKVob6CPNZV7oT6CvKowp2tKlhnSAGQH1VOUSUhBUBeegBTt5wWaFxBg+8B3GiBFAC5t9XYOagor6BwbBVNVsiDrf7zgSqMFQrGVimxohUAOZTjaQCsYYE8slp5slXqsUKQS3kCVf4GvKK6glxXVoUfVlFdQYFEgNMpxQWGAogACAGQ4wgQ+7NV6gSgawU5Y9VnBDgVuMKQOx18snqawlihAOLqSR10icAKOeoCTL1GgNMerEKu4uqrX1ZRXEHOWN37ZRWzAVAYbQApXGMojDbA6YQIAIXCKppWkKtGgF9SwSrkTn5JLbA3AHLIql9nxc5rKBxfBatQAKwW8FUopAyAvAq5EfoAUCjy3V9FAoDciGOOFQpEvrcFYO0K5I5VrAmEQmF1gbXWUCBKsYcFCqhpVaBlBT15cVVgzzUUSHFFpRUiAORI3GdgxRlBkFv5nLkCqZDLEOBtJytmAgY1gn6l0ELAFBFgpGgypV+YvPuOIw8B6Fd1T6im7usxlKVXsa/vw9kPD9B/CPjn61hrTLB2CCkR9uE96XyZZav1drMryzxPEnGriXqVJHle7nab7XqVLZfzlH+mdmjM8sjHGewF1ll3B+n1JgG63u7KfCJqwrGWmkzkK/3mJ03oXvIf+iC9iESiu5XcztkwkfVUXaGy6oDSC0NsvlxJRFs8FXnSNi+akPTrVurWh7uYz6vJdROCdjm/RXYAxHJfG1mw1aoLTCWkm11SG2usJ7dwKtW/S96pBVhLGfGEnDm5RbZ/YL0YK9kqEoAfTNtAmq03eTvST24JrW1kuG2ZJZ8VdblZLdNLidYfsNzPblbYqvMf1CWZzlfbshZ6xDaMCktEvzNbhawOv0m5zeZXh+3JWJ0vCujzCS5Nt5CNklM+z7blR0qtnfROlzXEXoHtiVfHPdaCpld5H5h+pnYcnOpLmS7X5XXEV4j6g/Rzw8AQK3SU3a2XrB9enU9e9TFl1XLJpos4jheL6Zf4huqn82yTC/LTSTvki7praWJ1jJ0og0174NVxedVDv0r9RFn8fmyac3OWaprm+DKbXj4WMqerTaL8VGPalZn+Cqz8L+UXXrvE1WEK6D4B0M90OjsqSD+oOb8swqTVDPxpRpxKPAeA6ae6SyUC+TuUb3Ue4B3xyiPmsskad0oHfa2YDPVsDPWsXi7kzlhotJrCcLnO65ZT4bOCeoxXHWGVv5breXf2SjtaHbkq7V7t+EcbHw2m5+ajt5qb7wHRakb++WqnZu7bUr8eotoegZqf3WSsI1x59Bpku0pen4UZ/JuvMoD50CwMWM04Ol/n13w6UE4/8aoWIJSreUf17D7AukpelffmBsrzF7gqHaehgLrcJrUa+BP3DX6/vFI/K9dpwHN7mw63ssyshUa1Swebkql+T6qhtRm8tbagbqjin5j2aUjS5Ra5a7JddhAGKieu2mELgMW/knqNAi/DhVX/XLNNrUb+STCG+tld1W9ZF7hyFQOKgFCNZneh2tJ6HCaserzUjhpCQr2jmyXDQLKde8Z1ZgGr/MSqU1T5e/NVQfWDtbLBwapA5fOtMI4aMqi34ZXcVWdXf9E1fhhW+Wn7bl31/S5L/QArHxasanVdKqv+sYB66660UaZcpd7MlUfp4SFai4KmADp11Vlz/iuszZBigDacrFTFVKAZ9ce5WN143XmLrix6pB1ApB46hYBF8d9QNR2B46As9TL216MC9ROuic4C3Aesi78eHkh3fu3UsVg0fQRV+ed9OCl1letqSowQ1Da6Ch1dd5mf5Kr7AffTSqZasajjBavHa5//b7D2v2FBW+qGVvUlw5vo91Fp0VbFtZfkKn+WaWVa+3d56mHRcQzk0ewBVPWKgfMQeqkqpY7ZUj9VWrStQCdX7oHWaWUs8zdLPR3iKOp6DeD0/m7V/yLre5+7Fpkq/GnZ9DhD6veLXslc8xWPnNsa0Z/uC41j8Q2n6v1VLwtEj4+4apsCejttWwU2avqPtZz6pdCi5KqmCNzTyqO4arEsPmGqbx9eWQ+kmh7AY5Kf99ZjTM1oA+roU+r3TVf53aso4Di4Eq2Ea3GL6JXZonpNo54OlzuezxawSmNl/ZC6SlQvtX46UG/MlWYIMg9lltlIEe+rwwdbPVT/9EDaR0nNosWjadUgXvVCqoqpT1JP/RYFkpWXMovpQzppg+hCbRA1u8Gi3rbgs5ezhagX0PH/XM2kUts/mUyeGNSbrsBEiLWX+QF9yoYClpsDYvo6d0OzamGrZgtWlwOC6aaamFpDylxlmbVmXmazostBtKzvY6pY9Pp4ZdX9TKsidQdSv6K13qa+aB3IRHr0ZuWpKgR0VV1pUmlLCkj90luJVjZiWs+2EeB87uZcGLIM6akTAVK/Ca51LbZstLTqLoAlqucuzoen2jPd1Bj9f/bWWqx5NM5DJVk0s2ZVfno3pG4VqTVI/cVb19EoaWXRi62p0nRA6n/en6t+Kki9y1tXo6SVHx34queVgfTYK5D6B28VSRZF4zsK/ezCV30WV2reny4/cupfaC2XY2tgceagtKKTLXyxSpd7maOi+mMSoBWuu/mogoDZvGKtd18XhUqqHUb/P9OqFvSK7Zhiq2TVBapN5eeS0IOuaS2VqEHqw0UWHwurDtqrjSdWafhf0cZUmOrjDax8ORZrVRngPMwMIB9xXgoBUi2LrE06Dlqd5FW19Zp5GP63INWa1hEFgYH2AWi9ZEbDP4p/F9Y6liDgxFcdP6WBHv7Rp3JWZIkNH4G18uPZ3ljdzltxXf1j+HfXba2FyIKHldkuX9W+ytya6jIRavgHqg47AmXoUwMO1lm53RhAv/sbmKqXILAOe9bV6nCAi16c/cLKx0FN5WUiizoCeeDWar810F1pRauEYao+OwKBW6ttceUurmpTnYBUf81WEbK1MnVG4BDiKpJqd9YaaM/q8UMCL9tYnaxepbV/QsBUvbevVGoNNQe82XasHLkqmaoAqt4bAoImXVmYISC2PM/KwWIAmqii56JE+d/NzECZBmqt/Ghnq/YHsPLLRBVg6shaw5zGksb68HEWlFZfbL9pOvSvFOipdptaN2HCyh89gLXRDStuiSotqUL53621Sl5DLLEe3xxAbmy7HLAtqkBqp9NY1L0KssTi1UO+Sk81fLQe/2VRhU5VPyXWjoeYA5pHn9/K7ohAtaNKoKjqbWJgGVwOMCnggecNnNmiSuM/TLWfHCD0LFZgOYBHs4dgrezHfxRVPVor5YAAK6zq789zbbcQQK9Uwdb/vnPAJMB+wNv5D7C2qHIbVGmfKur//nNAaP0A+Z99u99ZW1SZRQBgpW70gZjec8AmPFir5nxXO0CvH7BBlaIqJlWH0mqdiJKFFQPkf3fW3JMD1D2orLJBdYXxH80rm8Kcx82vOUCbavNqgaqKqpiqGta8wCo4WNnb+UdrNaQep3a9qhJTVYMLrdsotBxAT832La6G1GZmV1WZriogGVZoDa3TSkfJ6BMDms+4mhXZTfPO7aLqEuP/EGFNRJIG1milinB2wdTk16YxC1ylpzI7U6UjVYHqQEPrMrw1glEUV4rOz876ElOmtbLtragRVQcbWrMA17JILWZH7asqEDTN8T2mp0Rjdo+7U1UV0BgqrAHuyGYaynQRv86k4oUu/DmzC8M8xwLAQXda1RxWeGtaGVNwcq6ePr59hxWqc6xVGX6FVYZ6MAu7yEGLYY65qsHDKn9COYtG/LTu9wm9qlDaAelTw2p6VWgAhACrEPMnhpUOq6jRq0KjNQhUdVsVKITirNnzoroRaKuG5ayr6BlzAGYAwoN18pywqiWAmAEIrdEa8qHCdqjWAqgGBauYiHr7ZLASqpgBCBLW8JZfW2fVHDMAgcaASaAHXz6O6ihcVW25uVFCf5P2RqLfcaMRpHP1HT8PrKG6qjq3wCCZ3IjeJUQtvvk0+REx+fgZV4oDvAq0wfVZYA3KVVs+bzGT+F25FMLcEOpNiaUw95NvKWmIxeWO+hY99OUhk5C4fSJYeQiuasb2pMXpljHJXJLn5W6zXa9XqyxbLufzeZqm36w54yxN5R3my2WWrVbr7WazK/M8UeAafAncD9QOOyuopxZ4Blj5sF3VJFANzsU3FZ4E5ypbSizND+nytJDyjd+eIpJW/N5cAvlKErzMJLuS3MR8DYXtNVcM9tf5SQqswbrqLaPa8uglLzdbxefNd8DNP/yyiJffo9s7t49wiUXErcQ2T8zXlV9/conCw7xYo29dMTUFMKirfwOpMGN8nZSb9X/sneuSqjoQhSkFAo4XVFRK/SlV8P4vOOlOQMEbKJeAa505tWvvmVFMPla6Oxd2OaG5jV7B/P6ezfBVL5a/pgiCcCeh1ZeigwPjkP0BWH2jUFVpUx6OkqPtz8Sor4Z1PXjnQLXXLBm31hXbVRAeooxZhaxrUGCQTbeOGdWzEahevfSikiWCNNzejPQdEPoE2wxaDW6w3UUn5fjp1WSNaMIxwyqtKup/EwBzqs2U+n8fSSdVbPjKRn0DRrYSsysZzkqTVfmXAjbtvx151dVYXfXYbwXA1TV5XQ0lSldZtmQKpI+Y9XXziUCGso6q2PYPLMMajjVkPfS2tJp7NYtM09Q9HcMgCw19IyG9RzaLoFcyKtgrh82j2P5g3Y4T1l0/G1ayQZ/nj1LnfMjj0iFQ+ohYedHSYqOTigkUr304LB/JMsINgz49XqVrVLNFJI5yU40p5fgDo7Q4rSD03IN/dVjlr107AW9rCQZ6yMULVLcdo+rqcZ+n79N9Nuirrh5+e+bniKy2Bx3DqsUKbqdtTLCO7JALwQcBdYeq9lM1RyrtVFwdaUwGkAMbhNpgNa+dwrq3xuSsvrXqDlUdnzKnTrQL1AUMeNCvEBKQs63C4+nKa0fxK2/FPo1oAkt+EKebwqoOT13FaRhkhf2xr7Lw9ScU28PpGr+mnbR4OqYVgh1trrrmUZmf+sX1TSOXOrZRjiDbYxYPdFHPYmcd0QRW1PrMqk6kVHyqxn3LF7+3k12oRGfF8asKB9KWedUTWCNp60PLrkqgcgFV5vuH7a9yWvRXmW/tzrm9pm6KOYFKhdVLm9Uq95IbahSqKr/4+YNCM163h30H0YCeExh8MYCrVW2hmpemyFBVgCoAas6rWvbC9prq/bVtbaaQufPg86sWq1VXUC/n3YqXcYHTJ/Z6dLS9thOLcTFg6JUrtWWlBVR5gsZx1cjvZ1Pl0GN7pQeI59FAG7kWw3ocelOdW8irNKjpJXWO2x/PpGrYa7A7teauvMtm4MWAQ+PVqsxRAWpNXlXwmuHa9MzM0IsBVAJIG82r9K59BpWLqBj5P8e12ViAiwGroRYDOK9qEtU8mdKOKgQA/BRXWpfVaCGLiwH7geZX6nmAjZ2wqgr+tJUv2qKI+j2ulGq5TeLKsEaDzqsaDFK5PBXCURvA1fet4OA0G7ry9Ngg8yu/ubyKSOX61GknrG8f/wpd3XUb0TRBYyu0+STh7fBCVtHURgAGlYNUmplC1t8wruGZzx1opozF+dXgtgn4lmhivkrl/QhS2zIUmkVZHeh0l2aqrkOcv1JLVr9FNUun0j2P/QC1ndCVYgFlrl+HAoNczOp/vw4wj1KjAEFq27GA2O0p0fo6cqWqwrBCVhWsfvWpVeKfSkv1r1s0oPZiAUq0GigL8PzVgJ6I/fUkQJ5PcZTqA9RuzHWlzfWrAVFvFhyO+OTKr0jlxH+FKLVrcz1/W8TiJVeHoRir/9WmFU6o5J+nEFFqH+YaHOmw5C/MdUghqwxWL58Gq9fBP4Cl9tN5Ul+GAlxlHUThSl7ix5VVRWqaqsEf5PTSf1Rz3dJarI9ppSjgPIxPG30WrOrBX2b+yKf6DgV8K4g+p5WrrANYGCCsMP3kE2YJlQpTQWr/ocDqmNHqfli4Mnxk/LBcpUhN0zPCVINCAXHgiusHtOq1rAMoV9VFNRv9Izp3FmGqQbRaOyf9iFaC1fDClW/taq9ZzUb/IxIqE2tY4Z5prVlw5cKV0Udeq4Mran0q5akpk4ow1cg0K9xfFK11jdXw4y329WoA2lMvINXoNEt7ay0XolrA0VxW9YRV7TgVpA6AVpodqBMIMNjGTl/VjACy3B+kDsdb69BqeBRQ4zygLE6NQOpgaHXqeavBUUCtCICmNmSmSPVUkDoYWnduLVpdU49iqRMB6JTqBFIHR2udVS0GRwFVZwF0SrXnddRAYFC00uApaa1YbjV0RkBUnQXQpLqhhcr/4ESzA6soTZ1q65P1jIBh3azWAby/frp4KlMdQOpAaaWzXE9Vl2AZui7gXCUCoJRKDiBHAVIHTWvlcqtaHWhUX+uVgFVSqpRTKqylGnySlV4qzLtyFGDUttZKewE0qU6I5H8MtIpjpUCAogCj9gj41vFtYkVHHsqfQKA6GlpV2PouEKDD2UNzulyXVitMqJ5XIHVMYSsHAq9Talp475pUnHxXWuXsP3W2GP5HFrYe6TSB14GAOuLKN+Waw9cRgJ77pwsGqaMLBN5WBAxads2J1YtxQA//nP2je8cXCOzSy+vHvxuUXr1JrFw+7fiyw/A/2opA9CbHorPZjUivXq9Z0cP/GcX/MdO6ddNX5+1TemXIGpYXiRUfxEULw0DqiAMBHlpfFVtVeiX6v6teJFaq+h/J0R/D/9it1XlhrcbMXjnPbNXl4zccmOpv5FgHFbU+Ta+ivll9vhRQr6iKLCxS/RFrDWhByxNrNWBxID9u5WFipTepwFR/x1p11PqwIEDG2vNp1/LyHkcAnFSlMNUfjFofp1iUXvVat/KfLATQlaoQpvpzUWv0JA4gVp1+L+/hCmtlqqcVTPUHrTV8Egf0vOpaPxroYaVKXhdM9QetVfb6mdcyu4/qVn2614NpAH6GR+oEmFL9WWvdPdwyoDa1ir6uastPmrt/ijwlVSD1d6014JC1hAYtur70NyGwT+m5vvcLVUOg+uO0Uop1B6tEo6czg4QVliMAdTPtA6D687A+igP6nGndl0IAtVIF4z/EccBdPYBKAb3MtN4vWuFHxVD+D1QhycD5bjVLfzsEnMLsqtpS7WL8h/I4oDwvoJaw9GCrxUUrnP/TVgWQCmWwbstLr3oxVr9kq6pUdUD9H7qFRJy4eNWvsZZsVc2qolQFlSixouIkVj8Rq3NTBOCdqghVoQew7gqw9mCsbKuZt6uq6gmkQs+C1muG1YexXu8VtVUlQqgKPaZ1tb/JsDqvsd7WVlVWhVVV0FNY/fNNhtX95BXfKldUQ6yqgl7EAcfrw887XhVws8BKFQACdAj00ll316C1a2M96ceuuqlE1Vkhq4LeOGuYwyoH4u7ODaTtAK5+W9dBAQCqoiBNM1ilw3XHjN5lxbWqM7IqqFI5wNXO2uHOK98KLuo9qVZ1BKpQtdHY3+slrS4fxdYNq5E+eNvlFQAIAKBqsHKaQxbX1VkB2VPXuAaBxapQnQzrnPKsgNvRISxCPc5al1WBKlTHWSO1aVCmV9v2jTU/cV2hCkG14Dnqo4PTc/s2l02vOnyuGgTVhZUj1o62X/P0KqOK8R+qD+shVTvzW59oVfMAQBX6EtYODgzighVQhb6CVa25bnk+QBWsgCr0NazOZd92CHBIHaAKNRAGuJe2y1YIAKBmnLXlp11QZqVWVqPBoa9gPRJIokWQfOt8cYEq1ACsUburrTizoq1VEPQ1rOe0zeyKMqvLAQ0NNQPrpdVFAQ6tV0UEADUBq39qL7uizAqHq0LNOatzaQsn3zo5QBVqzvtEW9kVPXgNG1agRgfqlvay+NZuC1ShppFqZ6BeoXUhMAX9boYFQRAEQRAEQRAEQRAEQRAEQRAEQRAEQRAEQRAEQRAEQRAEQRAEQRAEQRAEQRAEQb8mgYNxoCFgqjidAVfIaE7V+SWrv+km+cOpY5DZnM6I09hO4glYhczVejH3kiSOY8/zErAKGWqrktMkSWybObUTD74KmalZov3UJmBlDABWITNNVbJqM6c2ESsFViFzWY05AMgEViGTWY1vBFYhsApBYBUCqxAEViEIrEJgFYLAKgSBVQisQhBYhSCwCoFVCAKrEARWIbAKQWAVgn6FVfHz58kIcW0D4Wf77MHqszfzucHkH0ZCml1eJl+Mh9Mx3MB+N6w+aJUuGupqJLPZbNWiXxXVqVW+fePs5KfJYjqfb0jz+XT5txavMK5hdg02nHj9I3esqvMBnuorYNaTyeRvMlnnJ2Z93lIVLoz/afa3nG+8hPT3+hVnk3VJk1lX1M3Kn2bVFPD8OuvFnHfUU/fGtA+U/pZ407/Zd7h1rjtfTdZNO5uYLBiYmJqI3i5JNvPFRH2vpcCJXnwy9dTb8XDx9/rHp8V2kH9LFu/7cf13p3XtK50kd5q//7314u0b0+Wvp/mJOrdicJPNYlaZVkGOXNJm+vHtuVyUtfwrXfzfdDm9fsn/y6zayfRv8UyTD27q5YZYobvZ1s3E+MgO2SzXH97Y6+myoOni7p3FkvuI31D6iJe8ZVX+3K2894fQCWtJn4pOWMi/kmnND0Ss2oXbJLbj+fvfWshG9Oz8v0T+jrhr/r8N+w83Qd7RifJVzyNc55NqXeBb86R4N9Nvx+uPfFk23N1rxcmy8FqZfdj8FWtsSg1lM1sPFNvzGlembmpqI2osdV4Gn+0iv5havrGXM26Hur1bClzize2FEanThM6Qsfk942q+WmQ1qcTqouxXXqnFq7HqFV3VS+aVfqvolNNCO9JFLBLVyflJJSU4Eu6EzV+VLhDWOvHuZC8/jCE2dw0XJ/dGUG7bUrfbsfdUdnXPyG9qdUrWnXPYfGfLf03m67qwyii7dJH2vPjW1EmFPqrEarErq7Ja/GCfslp6kXkVdG4JlB+wbCQLeZdy/9rxE8nvEK7JZlLJWjfxXS/G9mcB2ppPpCw2dwmu+y6pIdkcVVkVuqkUMPazlpLfky0Vz2c1AwFfFO8wrzBm+jMZdXhJuSvHxSpVcOxyG4jrd601NYJk0bZf9mmiaJ2LCte5SLxiGEAjwCdVIwoBPLtIvV2uP33FalydVempb29q1VTy48qPvKwbtSaFW/yGVUFvHfPgX7rPxuars/L9urm1iuWDRnjmGPQZKJx/d93+XXcmXjz/KATwSrZK+cHbLmmB1X/2rkVHdRyGVmApDRRG9B8i+f+/8DYJzDS228RJ4Q4dql3tau8CbXpycvw2flO7uFSQJWt/DE1/3dTPKmJ1+u2jf9eUTXaH1elzi1i13deIQQOXnZcYXsExB9ZpjeiN+o+aKgmQQsNbB1dmGj4fq5pN/ZACvXcQaVRrjyJWp98ePE7ZHtkhVsnZMtkZ339y8BrIFa5/fAWTATGa9TsPKjPFv8fYRS0CAuiZPX8i7/8lvBrkostT6nypvGTS6IAxeYzZSTQ4ai3+Pax6EYTlSL07BSYePuXoYnQ9EwHjFhJA0BKvwGrc1Mzwj70zvSNQ/sMeRwVYl7A6oAjVXWI10UH+MLl/30VJFTO+uK2C1Uy7ID3Qwpu7qR9YkACOLfYLsHrlm9o/EASHatjB/b2JNt3XrhisZgmr1wWo7hOryRLiA6sXz7cUqtG3jQuu1oezMo87qiwkoVkgAehaA3WuPh+r3rJhKwXB9R88HDiOvbtH/MiqhX1dClbjj3qGVf/SnQzVXWI13a8PK8dDlYpKjMGXGDiMwRjRxMqBNa4ScTZh3yoBgDtXX8Cr5oiQ6G8IPlT/n4bLIcqh0+ESonUErR6sOJS+XgGr1lvGvQzVP4DVYJ2E7QqJNnjEXO7JGD9EATJYv1ZuX7Cu/NvVuVh91BGAsJkQq5XiVtTR5WApapXH6pFYNiGcOj3ckSYSHDxc+5j1M2fWY9Up4rFqg10lCwBveOyeV2EyjUI8yGF6pgWf/XA9H26Hw+Uah0P1IHi0AlhHvXU1tEqAYKtI3oL04vkA93wo6cphNbIqUaHYX2KsyTxSJkNulbl6tBKwQtnQQitgNaSAIMuVwsfOg91hdaBYvfnTdbZdw1gdr7wut3nE/3QORCE4FSGXiiBbV07ptEooKlCzExxf9zyr8Hf8l4HbQTz16zsFbN2XdnEJVKNpGTDC02htEAwpDQdOOBW5cI+CXu0TLRXctv3s/9obVi3D6iF47PCHc7z66q+nb4owd57ozKWXvTV5hykBmj+yVC7W+LhQElCwacKopesU81etdK1n4zDLJpLqtVuyl0xnbz1Bd6G7LkgZitUz/px+9zC3PyDcOA5+Z46HnfPq9OImIfgdsQvL7/rzgxlmPxju79xLXtgcXcTYFTS4WHn0C5e0JUlAt2eG1boaFp/7lKh6HzsNoVOzfJL7nMg5vv22dgWbVMTq6B6LGJAKIeOwNLf//bBquAY4j98uAG92QAgGysUXRvYuBppcg563rhCZR/KkeWbCzELayor+ILxaWW814tyy8RyXDUXFcOws/hL07lc22Cph9fBt2qI3D50bL1/J/tw7VgOPOphHAk23xpDdrRfc0ZhTAcy6mm7jqsgVPZBsLcJ30mIAACAASURBVCz0eklYrawNvCYZI+EsyWdP2eAPnK0XBldbDa8OD1qN2iMe+cUVYm+J1TSoHqstfs6nbOaUDckTFKye5ib5aNcQQ1JPNS5Wf5T2JDZcBvWtsBodb3OoTl9amI1ydXOLNAbtrBarx++ISoxFnLtO6fR7N6xargEeZSrBVY35FHZz99wQJ1RYTltuXWEw64ofmkqAUgmxHa/2bia5IVbWFV7H+UexLHmT8erZBQkQ/dnHrmuP+/16Xl0K68QQoCm4DdsFQ4cmpa7ShYmB7FzmySrgMBWdg+KjzViNKeOQeD6uCqU787QUEWtYL3L+xTqyANVzV5OmthesgiJaHXIoaaILrP7+fYQvBXfxMw+p3MWSGsxtNQBRAMXR0u+H//40lIRyCUYwGmXf+Rc1bow3xCqKWEVNypqN4S9UEGtnBpp9qshitQTo/r13L+RVG0+SueDpFZnTpJCnYJeGT6RB1HsjgF7pP9kfVsMadJoaTkfBGnNJbHnsSg6SFn22PE9rE6zGRkPQktM4D217brzkfF0X6fwLZlVtwfpOsFoc+0tjOKAqTQEHtS5WKgHKsbIRVo+YRKH9+7LKtzUL5ecDITJWfbpOrXN4N3oVS3MqyKkIlJuXHyNaC7lyqWWxSCyrsXid2rFqfcQKcT1xtoBYf0yzkIZhFBrgR6hdu7qeQ3vhVXQ1laXoSIogzqu3FgwMkp3Xl8HNdwypU7pbYJVsM3RCPYLuNrK7VORVcHW1P3vi1YwjfxlB4JjLdI0uBhrSh0IXayiHq/MgbGNbJYUNhVts7TuyUl3EKmKlXbUjrGJVXWn0GrqifJL7HTsSuyqsxfui7i5Fy4kNsEpMu7oq3DQIk0WdpAFQ1Wpjpxqgjih4pn72i2ghqhd+BS2xLkhoVRHx2oRXk2QGqFGrggi4ZLDKOKWurcK+eBWxx3PFfrWGEuu6zRBjV2myVJHyI14A1dZqxyoV2mKZV+G3pEE7q8Nq3Q/vC6uV+ut+TmFx8pQVYlclxgL5lK4IdgusXhJaxdqcwnk5S37Nr/Q9Ida6VvejAaBSrd7tBZV7f3C9U7pYBQng8u0zNtUAyfFRJwGoYM08OO8cT3qP/VGs6t49+zIsl1RCcVsJR5LUV9SE4tux6ssB5o3OahvHxV69hUAxtJ9jgcT9E7xa27VPuofcAdnTuive6U9iGFRr3A2xmn4B6N/Vz/kAhanmIlabJMBOeLVlvwrNey9rr+CqdbFyCTD9YPdCXrXEtKuVqzHdPKVnq8FqpVWxJ6xCg4PZMgHqVl+B5a7SvHGbSgCfenhsoMUKvZp62rA6z+nsUl4d108TQN5Rwf5xrDbsV0Z6ecOeWVfrpgqXAMqjsBWrLDTcO1e5VumN4NpzC1gFTX3aTrEaTBVb+/w35EOTzPpdQ9qRLGdkXNJeWFietrIRVsnnw9Y2FRfZ16v8LPJqk2m1F6y27FegdVe5DCJmXWVMuzTeoHawtWOV+DrqPUepVl8NvslYPfx1rII+aWiuQAenqr7noy5WQ+NMAnifl3klrzKXGbhxeZLb2nUeqY12VmG1IW9lR7x6a0iIuJK6/yzvGZIZuFo9zR0HpY32tsMqi3dU9ssExUJJerUuBLEvrEJlJEBGQq5u37LMwHUXK/EC6Aq127EqjB522NddqVyC9cR0hlWlTt+rz+rUwKuH0jZTi7GrlbSp2HcdKxtgbIPVG13mjS7UYtV9sNqkgzjtFETBWLugRXgblsGhdtw0Y/XMmhttdK3n+gq8OjQNF98Fr7ZpdkMrBHP7n3SFyJQvjekcR/3Gasbq9Um8qsZqQ571bni1RQN0dAZRwVllWaXfkiuCjV7Rpa1sg9XjM7FqNbz6wWorVsnUCpdVlHzRlnSDYS7J5qI8PVaHhlEZGawOOl69frDaiNWRAs9lsXpzUOhiTQMHoEtb2cZnNTxPr36w+tuxKlhXcuxMkgDqc7AZq+PzeHX8YPU/YzXrVeLWlexipVqxZtpgM1bt6OBJWF1xmH6w+kuwylupLTUWSCVA1RTXZl7tP1j9yxpAGCQoeGRo1KCgY9krsLo8G0t5ffTqf8dqAfnd+5lnXKxUAmBVeXwzVoH5OaDf5vpg9eU+K2UsQLSuQFy3tEAGqrzhzVjFZ/Eq4gerL8aqS7+vqNIwrsB6T/XwgPP6UXXayiZYNcg6IAy3wzbX7aNXX4pVI+UDmCK6glUXK13bbMXrc7D6hUK3jm2u1bYrvxir6uPtd2BVSJkr2nYsdCnl+6cSoLJ+oRWrrKdEuI2Nrg9WdViFtjyrG8sJxKIRjjfW/jfVuXQAa20/xzas2u6L5eZgG2aKOeA3Y9X+J6y28eq5YgEk64q6WOlQclfd7mRzvXr841jF45vmr15pvRW4W8G2E8dVpGuQ9uet7GXYzKtCHtnw13lVn+v2G7BqWWpHmIxb9HWkZUvaKIA+HtaWG23us2rNz383rJ5d31qgsG29Vf0ikFBAcRc9FrtKe0WGP05iVpUycYvcFdiwVc8Hq611rNW9ZwSXVenMKsG6mouAxKlV33t0i5xAcg61+aPfDasHmhOpP+G27A9wqJ+XoC0NXLOuZotAvQBQffK21wXoGiDsD6usFaRXeXoLfCNevdRj9cpdVmfNkLQFEUCalTa0M27GatqJMlN/ukOs3lhTDdAecbyLxH/pEcSypkGhKIh1lXTWAky8ANVTHZqxyo+vFxhXvwirLBiiLySS2knW9V+tbhXcsVb+KnOdDRL8sctiiKF1nMQ2epV24YTWZj1vhdXOsELlGnJjScAv72kptrQsbjpopKEVEUXk0KhMW1nEqurLfGEAbCWa3g+r3GmnJjdp+EFtX+uG3t6885oqHZo6Z38MMzpOoqFF7MZ9AhvsvPfEKnPaad8Gp7TX92C3bMKqriIqwkhw+AsTpa6d+V9YpZ9vnN3zdlgdXN/asZB9RcNsi7Hy6WkHH9RuuTQz8CECyEaElpQFvqlBGa01wlCupm7o76VXeTMPZbibU1phU5KFmUGVPEHDpMroktyx0lAJUNFthWwobLFjDRM61UOW3hKrLCFAObiHU1qh5hXnseqzvH4YKzWRQdnLn+y4yMu2M/Np79jUzZh4aiMtXlQ3ySrEmzbP22GVNUr05GYbKK1U1UlYrR7GRtupqyUAbYv9AHsSJZj+DRpfETb5XJgImFYenhu7+k16lY3O0U0Yi7QKDKuHKqxCcF9uQKvqomgaSn0EhZJpkG1vifOqvsaQpwT0T05g+U1YnQQZH19UbOFYvtVbsFrV0CTcQzqSHfSRYkuGR93tvPmhgW3qUGhKqfQPCpM54/hi+yewyje70sIZXO+2wypiTYPvgQy5BqzJwk0PCAwmfxLWhJa4moTVCm+tdzGmPY2mt/VMFfCrsMra7CusXf9pYLTagNUAMx1P+Hsgjgh/T3p2pnNW/PrNvSTYOCtHWGqtf5D5gf1XQHFO+dtj9cQO8eKxDSHzE3iXpSIft4xV1E/j+wqvi4i4GgJMxWDYsXObDZrHkB4a/YN3YnUgSFazf6xSD6JGsBsvFHthck0Dr4YfV/CEiW8PXYPDSrauptN1nDuysHFUnByMVhpXArECxnwrs3+sSm3oscgcN53tRag2YTVY28U8YYNY5eZGna6coJpg1Q0zcVFhr7HLkddeU7vFtyZEkW/+AFZvLO4UBHvuw7b7ClCFrbGqONRMhCrxAVSa63HXJtYVzolwA7c7m/uiFgH310UQ71035jnegN+lAbgIiIL9kEHJtGgTo4FnQkhFaxNWA0+4/lRULh1yEcibqwx+sTHt4GcLA2yQDbhyhFVkQBzpQRLBOskedfdi82ZY5d3HHmA9Lz68R8LVgyK8yvCGcTOshqVHv1VyxN6Z0b98pBLC1a5ikhmYbsHKJlar8YbwG/pOrsDeF4SnvnRKin5DXjVMBITYncOr/ET+P91G9xAAwQjX52QsYzUy69Kvz+7i4Jnd0fOwmv+iq13uHQ3b5DW7VK/UpOv4u3RsRGowScdTMVrD/3a6fr0ZVo1wqkRmdeONnhTGeE49DfhNaP4f/Uh5tQar4N8cfCPOjYdFtPp7MkdkAuAfe9e25CgOQylwAgRCGtK3mvQjVJn//8GxLZMG24SbDaEj1W7v7NQMGPn4WJZkSaA8mK/GSMttWFQeWNsJUqpdG464da195sPtmedrEfWIISp6ZmN2dvgDYZLSUdvfM2HVlNUHGGRqTP3m+36ryfnsI+8o4TZd5Qeqa3IWVoWBSJtDN1sMaW7SPfzGmUp0K8YqjRYo8dzT6oRYKR4lrrir+ZPN0YCpN5b/Dr6noBpYwXJiu1H4AK73Z184UJmWzzvDKi8uZiBWsNjZYwK/tVOckoBTKD9U0bt/K1WugMy0AcQjmzmQb5drRayU+He9nDIxiMo08UvqDF2o0bFhLwNfS0oj/HhKU7VYb54/3L8jbUcB1uCGbAB/Ne4rWxn6WcFnOxpZTNkFVmk02x0ikj+oKZEk4tRFoyINmKSFmLSoBRJhJ6kLZSavsmelVMxdYwfItaLO45nrmo+MGN0XS/SYqqcfqzebIOmAahBjQy+yJD8xyX3/HKSP2/OKqIIOVnHKiDh7BL75L5/YswvAWyRMc7oRVmfzKux92qYi0UqiTnJoFHE0kV9DQexgSu+HaNTmYqhpeWl7uuVaYcovgnPi53nuJ2weKZCCYar4YM5LN2li1MPM2oBGc4vqnB2J/zYNAPjvpoNeVtOMia4qgl6KNEt8pjPf9xM/Sc4ZYxr5bDajlM/hqHD2s2HVFA1pLXv62+9D/E/HpgWbJ7OBVfY0Ppet4L5g2SiSE8rfzZUNuqYGAxucB0vd9Yag8dzagAZzy6BormOu3Ao+LooGaTwWPhCTvaKp7P4DmEYQarN1jSwh8VRYDRWMjBQKpR20W2+zeZXZmomAXHdfo7BOCGnWi+mwLnyh2eJN+qynji9NstbPsdSoS7EUBbCGTY5+sMqAm+SWTlchwTQT+8k4wKpe/GTSBXlI7pvYl4422YNqthuZd4dF1L1jFl1FTcxD5DRWvfEDC6zqmXPH7V3Bi8HhNKTa4ZSuGMyAfn4RWzyoDMQUCx/TAcwBr+qFeqY9MqCPvtykCw6cVKRbqeV0x7za1NuCexo5WCdTPED1bAGq2v60tHiRyRUw+HkjbA5G0dwb0OcQHjWFYg1ugVW9QuS0sHhaTQGrcNuDASB6m3d83GOckf19WCB6O3HZQFTWAlb12BWdlWP4+AV0EKvx8JPYnJvcAROW+HAwfBWsTiwnL1OWKkrGExk3D0NphXW+Z8wy6cGqdPMb3RLVg5BsVdi6KK/eibVciicO+Q42ALBR+YdyWY+eM4MMG2sOsGroLj/54pkX9JrrldHt7LePZnTiMnnU34qfG8hItAqnIqWZpQROwyGVLqkKYEJrMbiDjbvcwpPdogVo5RtIsb4NYMRqMXGWRi5TAuHX4tI9kUx89cNebJeCjiN5fuSKIHEhtLRHn5ff4BswNHmMlDz8uLHFY2HOSEQrMhWtRDi3BrMc3GCVLsSqJLQhtEqk0m4GWteHsBSrzRQMcWsT27JY2VG7FUWsV46UO5jB4dA2JPOx2eY8kYhM5FYiNMfPeMVpA6zqRVBnWVmBxAjt+UZKBDrSsEtk/DDUakg/IoHkIa/CFIj8lb4JFW7WiK+aLPZsYjVRsTqxDs0YZo2TR2zIM/xGx4rZ2HweN+3EE4e2IiIiDzTKTsP6OPHGyW1ZjtXFhVQbC6gQoU3DYVX4OCOBVG3LLapuQ3q6DKuQnlpA4Fr3/VMZTOO/ykKrV4203IZqfiXrR3JJG1Ig+hLkkblkSiqqnzbh74fsSoBPuU7ZHGf52DCRmsy2EKux4Y7kzLZyIudPBv4pXKoWbMk/kg81OHlqa+S46PajH3E0GOodHMNIIDAIQwHqBloQPjKaJp71S3FdlyUREQrrV5lgKdLWt0G4gzRKnhIgF8nvgQw/A70SPSgmYSoSLKoCgBqO6lcbKbIUqxdD4f9Z1474KE48a4xWClcKFXJ0xPpQtUb24UJelSO5nGEkpMvaInCQJqF1pEJbV+K+El98x1dbzY0/N01OkydNcAy9Pw6266ilOCKTW4oMZid03iCzF/16Waps7l0OrsdzGt1JEr6RFpBrFsY9f0eZiqVYbW5aJAHkIso0JEEL6ZnxQhw72Jy7YQiHpaPFxVM/KH5zq0T6ZRok+Zynwaxl6X3GOheL4HdbD98IqPdoiHqUnN8tSmY050kWBGmaBkF29nPAYN+lkrEN6adg9b4Iwtw/Z0LO5yQ/NV51B3rstroidsOrfWr2E5635/v5KVzwaZJDeJJqWhTMKI0KLuwnm0E+gaG3NU6Np9eRl0kf6TH+ZUdGYLHtjxyJVbEMumQdN8NzId3iZmT5TethuCrfEi7QMsd4/Pu4mM+cZ+vh1iZeazBhIYgdyqsj8UiqdINVA2+7XfKdRsFrtDuz+2Wmx8RO1TbD06Kd/bxnlmlYXUsirbCl74UeitVTZarV916ju/zfwqpakH8dWn09sBZ6qrXrdjJ/DauyQHa3Bh3Sqv2Z14ILK/Q//HM2QPcyFEVadTLvuVZ8hjhvKffHsArFd2g3xxpp1b0bgJAnP1o9HVZjXtSsHZxEWnXnBqBazf8YsTpFlKrD5Om3pp2KcvFieoOnV8cq3OQlHWvVdU++VzVXu3medFFdpxfEKr/eSIlSmMB1r9PXxGqme6yKpx/0E2E15KmAnYIos8tjowyIUtmGPL3H6rmwGoMG26UO+eEUbVUnzpZuermVyravg1VDi4w9rPZ9Srqw0edrYzUUQYBOTiX6q9zRaqXQ6g6c2E+D1ZhfiCTdgm8ctxgGcGKtKgVuyR5I4VmwGkqoksnN6FBmOAEUqPINLPHQXh1vqxKl55GofYY+AEcWAHVYKOQvYzWEXUlv6JqgBWBf1b7aappaKhj+GrwKhSGp2o4WI1YOoJqZOpIXuxj75lhl70oMPbKq6NnzfnaJ1EsqanUSZQPbwxF2e6yaKyOK3sPoA7CtaShUqvqrdrKBbY1VURBSW+nQLTJDeNkFqpcUesV4spuUi22xyl+TGQruC6iisWpJyc3d2XMB/cioWth2J7HBLbHKX5JQUwFzCsYqWgD2dC3aacreb1W1y9jgZlgVNU14DUJDTUkBVUywtiKXS87bFN475xmaPFanfah6S17l1hMxFJm10CQTpdGxqIImS20SU+e8/TixN8PqKeM19g2dXkSglekPA1Y2JOcXqWSpV2Isjr6fMPYmWA15KWRhPekKFFVLbfTIQhGqplVPh0d5gt1RvGUjrEKLF3MjU4SqTYl621BCx4kdOQa3sgGiihi7rosmWQhVe1KoFdY6DUmsdM7721g1FKm7V+nltiqKNXdLn6IFqaa7Or9uhVWfGnr3Qj/XHBFmUTKqd7dvGk4l+3Jhb+YH0I9VoMEIb1hbFa16ddM4T5z/d6XqzbCqVv+UpJpitMqu5EqkhXOEueEUYrXvtWe91xqcShGqVqXdGUg2euJ9fHJvf9vXZlg9tWvUSKRGPkLVgbFFmv5vVPRDojQ7eTuEKmC12zyRrBNjFZ17W02yK7wH6ErP0FsO+r/R1Id593aJ1TmNyJe/tzmgEunpK3IkVRd6Tu+Fq0T/N6/TImb3WK1WwSo0sha7P1NmhE5VZ5zAG2sWaXCGzlrxjgkhbJoRuW8GpBhSbGuicCiNzh6Sqqv5zU+X8Hey9/0x2oYQx6u8NaURNMkuEkTqKpyESpi7OSXCI02CHJHqGKSog6VyoVUR7PZQivJSAh3Pcdmj7MFSjhGoKGhIoaCgoKCgoKD8LSN/l49GQahalHcEK4pdqL5dnUAq9t5/UL0oVln1dnFFf8cvVDCKRah+/jgK84XeR/2OVgCKNflXvznCU+yFdX1FsKJYkq/y5pC0v0tnKwHl1SyAj7r8cJbpE3rXuqwvmEmEYuOkzrAUuyS+zxLBimIDqpz2vh1ClZ+uDvUhRLCiLITqW10enNqTsXcp60P5iQnFKMuh6vBk1ZyuDghWFAtQPdQfTlHET1fHEsGKshiqx7J2HrL/ZHbGoUawoiyzVQ/1P8dQDb13tiTQZkVZAFV25mG7s3NPPXt6XR4RrCjLWPV4KH9WeNcXfxUHa4xgRZkJVUZ3V+fwib1LLV4l/KwYbkWZDlW2MYt9eYXX/Yi3MWYtLwhWlEnYuQJUS9cOq+Z0deW8KpgVE1lQJomE6nENhxXIrTwAWDHrCmUCqcbvEqrs59cqwAm9d+FzALBecRJQxkGVJwFy2PB/6tXMR2FyCLOjrPHCIMo4Vv0qOVTZD0Z13yuBBrKtAKzs5xeCFWUEq37XAFVBq2vZjjIeAG891vU/BCvKEL15t/ogocqI7mfFN39xG1mC9cjfjFEBlEfsFvI0EgEZcba6rgYYZntIYhUWyKH8xKgAyiO8vNXcagTEsF/dVn15Q6wcrOi7QnlsMl4hrgp4OR7q64r7MA+0NsSK7gCUAVP1ow3Vep3wahus/+7EKsH6hUYrihGq3AFQ35mNmQDvqyKlQ6zgu6q/EawoBgPgJt3/0mIUefrbEasYDBsDprKgqEh9K0vpq9qIVuFG6y+xNiesKxqtKB2ovrdMVThYlZ8bjOO7RaylzA74QLCitEzVfzIFsEWr5fvqpmLXYm3AWn4jWFEahMQ3mayyLa0KixWyAsqW0XqsP98QrSh3r+qxy2cbWKsmi/VutL6jPwCFe1XLjqkKToBNaNVArI3RirksyKqe96OYqhuErNrjCWtlMI0dcEG0vjhS3w61sv8Drd42GlII1681sGLEFff/8p5W1cbGcSNaveexaiNilgH6A16ZVOOfWjVVpb/qZ8MF9FEf1NUjI2oH9Ae8Kqlea33/X/k6gFEOpQ5WyGktMZnlNVn1n2n/X/eWlXkRvauugJY/4IZHrBc8VH22s6oUWt04YeTTRKytIxZS62sdqjT/f4tW/20KVdGZxTCyhlp/QqTWFyLVy810qGouWdWbY+HHSKxIra9IqmUPqULe6sfGSNBSWLoGCs9miZFaX4NUf8raTKpbRle7g9QDAl3vFVLrS0D1Q9SQPvYhYbswQGeUhoBAN5uFW62I1j+9/V9uZk/VL63+PMVAP+o+Yr1TK8/BRkPgj3JqLI//dS9jbR4G+JVbz/HqP3tntuOoDoThzAVG9A1IrALSLbWsSPX+Lziusk1IOguEzYby0RmNZusAX//112JzlVbZJCytuxVVrKkGUrxAIJC1E6iGeK62ePFJBZg2FudYezSqtFFFvETVhXqV/byVfO4CjLSq60lZWvdGqnqemZAyAPHq8W+0G+Axq+FLYbW1VllxjrW7nKp9I6p6vqpx6DO/Sq96Z7NgjsVGYEfhv4T+QRVPPaBMXNKoYgCs2MYq0AgwrfvI/lN0dvAOVWcSq5v0Sso3318iAKhiNgJHCf8msRJOBVPaJyjfwGqOEMBT2phW30ml8P86p7K1VZE59bjVt415cYEcYASw68q21WujmgHcnFP1ygG0zn2nZaBiPMhhtDYpN7J8NqrF420qD+cAwMEj+Vr53gV0rQFoY06yfCQV21StfNVRva9X5c4ZPl1kHQarwPABdci0ekhqXAOKjRiEqnSptHrrAt7Ure5tKydZXqZUclD4v86sOPiIo9czLA9pzZlWr0jNAYaGfyOrpZNJtN4iMBBWa1uDjGn1h1Qc7BhMqiObAZ5dTg7B4CuxtBZMqx+kZjj5N+r5utZcvV3DXUBvpIVp9YXUgT71WgMonS2jj3MBtpPF2ro/TTWTgIXTl5UPrQVcpVXdBKutXMFysUp1JXWUCrlaA7iudpQLsJPYTKvzpI59qkq0Sqcb6cM7AvcHCQQARc60OvUw8VHkwXhNdbgLcOsCMryucRdGKWPQzWIzre6QShYNxj9QlCsPXs1XjbSsHa2CBgZjTrMcSaji0lb+xeinCQIy5x9j9ORM1sH1VqgStgIO2NSkknJklerGrLZefEemIMUnV0ibslBb25Rp3Tj4p61SxhE9qj9mFTyZUC5l8NlFdtpKaVbEVmADqYlM6v+ppppyVeqLkWvkB5a118sSnXFlcV09+Mc4SiU+JpWio+Plqr5ljccXru60Fa1AlXJVYP3gX2FC9Wn096VcdVu4+tCydkHkagVYXFeTVAz+pu3/+cOT9GIAj/xbDR+7gL4VAKgTFteVJDWpAaScIqnWrGYeoRrROy8mwWqtAECTsbiuIamNpOAvxTSNoXdYeJVNTrOsd/0BI65cFlgs8UdJNTWqic9Mz1dHfsGaTrKs93lWk4csrgtJapQ1GPsnBn9rVsEvs6rvQvny/Ngx6qrFlcoCjOvcsZ8Sf+VSxTzPyqPKat+yNp/1Wh/nWYhrUCaM62ygUuwvC5jBpfbNaunhiTrRKYKZYDVeAMsCTR53N5rXNFDDvNFVfxAzPSVw70CgoZY1mZ5f3b4kg7xAm0WM62RQT1lrYr8Ucz0ilCZPDyrDHS2z2KB7L2CsK+P6MahpJXU6JWd8PNL9XSuvVgUBzHc3JKHPuE4GFbRJnVNIKAeWmbfHP9r8ar4bYusCjOvHoNZCK+ps7szbJsC9C5gxv7qJNh2uEVcGBpenKPQDIKggZn4oJq+KfIZ1zvzqti5gcG2zmL4S8/qUUwI1xGQKjKLO/0CUJAWeHwAd0cjV/LBqL0C4YlMrYTfwMvLHeSspGM3rUW9Q9WEv4Lu79fkugWHWldS1qNMTy+tDQT2lVPCHxUA1JYB0D8fqz1wMeGIGhHUD7F77gppVggr+S3jUmxJAvgNU7XzgQvepJ69KO4oyPbEduApqoy1qsJSg7qMEcF8MgOXuVdfVwmlXlWxp93pQO2A5TXJKpZbKpe5RbXfyYh0qBgRyUVjttKt2r0Fl7cCheLWcxlldSNkJqlj4vns4svrKVGvMUgAADlBJREFUBqQLFQOe1wagsLwqP7B/YCPreohTkIumUn8KqxDu53Vly1WuHt27G16T0+4FNjIXFyGnoDmlVGqV243nViS7OtUpKkGsBGvX2CI7oPyA8a/dM92jnCp/WhXGoAbr3mkp0729BLKGRYsBD3m16RY0ZRp3AhvtBVMjZnFa6jxqZU5tYTXbGaoRnSK8Kqwm3cLSIglsUeVpZIH1WmEVpTbmdnIqTQV13RuM26vy/Zmq06mBtWG16ZY2BAhsU1tHQJYg8lBM7WdOsroB2YV9Ida/t1gEKHeYAYSL9wTe1gdQYAlYpbCxZ8T2KQ2TvG60mgrNqdzmrirxqXb5xnJ9Mus2sPYMLAGrbnNRlbZI4DaxfUpPSVpW1N3vyqdys/u5px7AX2WNYUtYe/MD2hJIktgbYhWykTOMRn1fHad5hWJqcqhgi6B/jyqesbbTWmBkGlhb3mKTvHYjBDj0AkWrNDY8ucHsHaMq4mdlR2knprD1TTTvr9rtYTiOwNpNEFiJFQGlKA3agvg2314NWo1ovz4RJ5nypYHOn65i6sjtgz11Vh2HtWdiiVganRMoX0Vb52mfWe0ZCdtobj7NP9z/1ThJ87ql5AnoE14pdea27WEfwHtYU7dgvRdZyry0lBVtVd5DexVAje4Ies0fv/7lu99WiKpg3+LUCaAzkX1InbtfCtVw7+/LcRPWPyqrZBZ0gQvbtEppyzxT2IavOQz/rtc8xwhojoQGRCh188F8AiE2d6UvDIB/R6ztDNa/zGqhlRYjGRRNWyG5Ct0kjscFwRDZTDNFZ121TVFI/Y+SHQVpv+DWGf4gVT0Cqn7Aeq1vIbMGIuSWTG2gfS3poBLBomiapm0rtWpcpV70c/Vrbduq3y+KAAzv2ohSX0JaQAOhGQUfbotG9RCTwd7A+hfbHrc0JqKHEG09Cfmjl8joFViR1rJpO2i9f8BoqPDrVhwIVTPOGoBPT+hRKmbg7cH3auk/2/0l6e+172J79Uhl9RfW4y6bVh1oaxDD6jGq4lCoMqz+ogr7r6v+XYlvCRajSjMA0fFQ1e1WVlaPUAW9u/qA726KHBgR5DUGVbHnIcC3sAbAsPqCKr4itz0oqvSqFtzWIhlWL1CVuGHlsC9vDOmQdsGw+tD9kHi+2oGPtKOt2IJhdR/VQOLm6kOfFhriIRdSsGl1H9XsFB38YFt1+aXkcoDrZVU8tpqXgjXj2pXzqCYnPi2cVsotLKdrVVDEjOq10IqOiGF1sgAgoDlwrepBhlXIQLC0Ohj/BRy8VvUA1sqc5cXLNauaM6r3sJZsWh1EFbAAwKg+KgcwrG5lVVJwAeDpRCv7ANeyKkb18ShLIwXD6pBVrbkA8LLhym0Bzqo8Ma2SR1odsaqQMKqvbQCbVieqqhKakEl9PyUIXGndOKsKgK3q8Eor+4Bt43/G8X+YsqbsAzYtVckiZlQHz7I07AM2zP+rw49Vc8fVj/gvM7aqo2CN2AdsEv8lcPwfb1rDhve2rIsqhjIeAPzcB7C0riiqOv/n+P+JtCakqwzrSkkVyDZkVf2Y1gp9AG9uWamomrOoTpoPACn4+IAVOlVSFtz/nwhr1AKdecW0Lhj+UVRLJnV6ioX7BbggsLBTDRKO/3NIa9wCsLQumv5jpYpVdR5plbxhYDmnCgHv/5tXWrnWyqLqj2vlNtYCjSpO/5fouVYsrQul/4zq7NKaBly+mjf8y4bT/4WkVU8IsBGYp1Algab/WVSXmhBomNbZcqoqYlKXg5WarmwEZjGqRcrhf2nXeqoBWFonkIrhn+ZUOP1fnlY2AhNFFaAKWVTXMgLYbOH61aekcva/qhEosTUgeLL1g5RKcPa/Mq1xBagRLK2jSAUq/rOormoEyLZKTrJGkIquSVYxk7pJayAtOMkanvyr8N+iUeXwv4URiE55wEMCoyqqbFQ3TLJyyeXWYaRmXFF1pCTA2vqS1CDjlMqFJCusgX3r6zJVroI/k+oKrZJpfZRRGVJZUx3qZBltZSfQJ1Wq3F9qUtmoukRrXLIT6KOqgj/6VCbVSVojyrK482oSKnUXKPdnUp2kleqt4ujiarupTXaKmFR3s6xTVhzbuJqESso25YzKeVrT1hpXcczgj6PUVcKketEdSCppjKs4XvAXOEsVM6ne0BqWweG6WXixKKm6mco21aM0K2vQChxFXElSMaFSNpW3p/pnXBPsZilx3b1xxSskSQ108GdSPbQCp7zYvbgKW0yFNrPfpby8tAIJNl9RXPeJq479LKlzheObFa37temdA+hclfTgq8Z2ByrFfqhojJoldUIYfkLmmsRqcS2NF9gRrhQpKPY3ecwNqmmcmp98nc/nn29aPz/n81doJS9aT1yxQ1BLPS2wi1RLZ1M69ifsUifnNafw/PP7e/n373LRP5j17/f7/KX/wLq4ZhXsAlcLKoCo01Xv405BPX8TowRnfxlw/xleV9MD/TyzFowZ8BVXHfo7k8qgTiQ1PP8SkcQm/X/9ryP2cvn9+Tqt2GHRriNWuEqNq3+VAd3uF4pTAyrH/gk8kKJ2Ynrphf7+0gQjruc1aTWPNtJmQPiVa+mkHwVVBjWl/RFL6jRSf3SUf4rpH1y/v1btXpsHnNaBT7kWTY3pyF+oZCpaMzfda/T/vnQx//2yuBKtq1Zd6aslZWPklfyA05wGyKkCtckTFFQGdTKpP5d/QyS1T6uuEHzHKx+zEOmSWpxVAc0MOKqvJuOnKioUdRreVAN5fbzONsW/jFgdrafVDwUxeUmSo7yC5lW6A6wwGT9xCq0WVM765xDV5PcDUjsroH48bzAdjLEUn36KdgCsvjqQb9E3TccplfvXbfftOaf6/pRUw6v6i78bfXjTuNC8bg6sMGkU+VNpOWWHOtv60ph+SqqpcV3OGx0OZtzrKUrzNkBcrw5WrC2mGlNAf1rliRaCkGenZ4v/52miejUC39vtErK8qnyr1oagl3KJtSilqhSF/TS2LoU5nQ/V6Pty+TcJVJtkKR8QbXnsYoSOUNezNLBIrLhKrFgQUtzTh3IaNGWm61LM6exWNaTxlKmodq71a+szQrXAIiVJVraFJpbKBP/bO7vdNpUojDIXCYIbiIwTyy4goWikvv8LHubHYEU9PWKY2QNHa1VtIzd2FLryee89AzhnIxn7Yum3s/T78/ZMU/dTA5FVrXUcT5do7Y/wbS0VQVUuxpqQ/e3sckG7fT/Bu+dtSVJbmRpLu7ZyPyJGUzxNoWq/u6n6mayqP8o350oC501zud5nZb+dsUZaL9ys3Nv7C8/YdbPahbf10+0r/LYv9f643a/PLC3Q9Eyq6sMk65+NLZq2u95vj1XaVd1Fxh88ZwmuXXOSfj5uX9dL27h6p8JSKVVjmuperj/et1r9OFWsaS/d9et++/X4NJue7Vv5Uii4j9dHzJ9vn49ft/tXd2nbZ3lRuSjFUrlUjYuX9Zj/fZV19lVaF4xN07aXy6Xrro4v91fXdfOjbdusz/AzffcyOCo2rGqjp+rhZf0h7YtulV2uL/wSk5052U6pWo32olc4Kj+sSqKqf9H6PJcOqxzlv+H+GWMyqlokEXWR9aT3YqpefnE3qaMwpVLVja4mjjBEio9Rq4Syzi89cJQhiqofOqWr9iyYnvdQiEHSUPWycpQhAoMWkJUqAPZSug2rSV31i62cBgcRKoDkqlIFwP5YHVOL+pR1JFhh3xRAS7mqURV2zauG9BXA2l4xt4JwVRuRWPXtVYOscPhYJVhhr6ulWKxqKlY4R6wyCoCdKLlYtacKcsQhCLNkpeRc1fbCQQQrBDGJuqrZyAqh1Wot2Fn5K7EQqxBUAoyiqtruiiIAQksArTVFABy+BGi0sKsUARA+BdBaOlgpAiAgV8VLABOsA67CdlSOXKVghe2x2mp5VzUFK5yjXGXpCoJcHfK4yv4V2IzwAut6CRY2scJGspSrNFewvbVqdA7YFwghrVWeXGUQAAFjAJUlWFsKVtjm6qjzqKoYWsH2kVWOGoABK4S4qnEVzjAHyOYqiwGw0dUJVwFX/95c4SqQq4Cr5CrQWwEws4L/l6usBcApXM2zxqq5IQtsdjXP3hV712v2rsBGV9kTCOeYA9TstYazoPOcG8g5LLA5WbOdG0gRANuHVoys4CyDgByt1QdjANjaXH3kuUYQhx42u5qjuaK1giBZMzRX7FyBoIJVfpWVs1ghLFfrDNdgZyUAgpI1w70tuPIanKIIYLoKO4oALXuPSyZWEMgkfTM2SgAILAJ6LXh/C8WiFYRXAZVsDcBCAIRXrIOsq3RWEOyq4G0u56/DcBXOEKyK9VXYPbaSk5UDDnuDVcnEKtUq7HK1FApWE6uoCjsQWmhVXMMCIqAkqgBmqxChCpC4qMX8BRqWrGA3ydsr5lUQKVkrnV5WKgCI0l6lrQKUu4gVFQDEqgLS6aqYAUA8prTBOnCEIVYVUCQrWBXFKsQdXCXaF6CU2wdAsQrxZO0TDQPoq+AkstprrtNXQVxbo0+u3GyhJVXh+LJyCUtI5KqXVUVsrLjpCiQiqqxmBsCGFUhFrSJd59K2aVNBWwXJpgHFFCla51cYmKtCUllHP8Hf1//bPQCoCmll7dW+aHXPnShVQYBB76pazXNHQhXSU/poDclW/7ypRlWQYtQBZatyUwRFpQqS0VoOW201oprPHmdRURUkbW2crWrLm78tVBmqgvhEwGar0fW/49U5rUymYiqIy2reyPvp2dmrv2jqInXoCwpVyJetRTNOq5JrwLrqdPFUT33Juz9krltnXftBvYbowvOxYRa14t0fcmfrrGFZFXU/TH8oA9Q09M1qNUBuXf0Uqmz7fhw8Y9/XXtASUeFIvpZuNmB+l1bOyrzvz4/TTsERRwNGTY/5gEMCYfwDURYhTHoPCLUAAAAASUVORK5CYII=;" parent="1" vertex="1">
          <mxGeometry x="98.5" y="334.97" width="53" height="62.08" as="geometry" />
        </mxCell>
        <mxCell id="br4ufHqe5Ef_IuzkZ7wQ-13" value="Model Training" style="text;html=1;align=center;verticalAlign=middle;whiteSpace=wrap;rounded=0;" parent="1" vertex="1">
          <mxGeometry x="95" y="245" width="60" height="30" as="geometry" />
        </mxCell>
        <mxCell id="br4ufHqe5Ef_IuzkZ7wQ-15" value="Model Registry" style="text;html=1;align=center;verticalAlign=middle;whiteSpace=wrap;rounded=0;" parent="1" vertex="1">
          <mxGeometry x="205.5" y="245" width="60" height="30" as="geometry" />
        </mxCell>
        <mxCell id="br4ufHqe5Ef_IuzkZ7wQ-17" value="" style="sketch=0;outlineConnect=0;fontColor=#232F3E;gradientColor=none;fillColor=#01A88D;strokeColor=none;dashed=0;verticalLabelPosition=bottom;verticalAlign=top;align=center;html=1;fontSize=12;fontStyle=0;aspect=fixed;pointerEvents=1;shape=mxgraph.aws4.sagemaker_model;" parent="1" vertex="1">
          <mxGeometry x="211.5" y="279.73" width="48" height="48" as="geometry" />
        </mxCell>
        <mxCell id="br4ufHqe5Ef_IuzkZ7wQ-18" value="&lt;font style=&quot;font-size: 8px;&quot;&gt;Model Artifact&lt;/font&gt;" style="text;html=1;align=center;verticalAlign=middle;whiteSpace=wrap;rounded=0;" parent="1" vertex="1">
          <mxGeometry x="205.5" y="327.73" width="60" height="10" as="geometry" />
        </mxCell>
        <mxCell id="br4ufHqe5Ef_IuzkZ7wQ-21" value="Model Serving" style="text;html=1;align=center;verticalAlign=middle;whiteSpace=wrap;rounded=0;" parent="1" vertex="1">
          <mxGeometry x="315" y="245" width="60" height="30" as="geometry" />
        </mxCell>
        <mxCell id="br4ufHqe5Ef_IuzkZ7wQ-22" value="" style="sketch=0;outlineConnect=0;fontColor=#232F3E;gradientColor=none;fillColor=#01A88D;strokeColor=none;dashed=0;verticalLabelPosition=bottom;verticalAlign=top;align=center;html=1;fontSize=12;fontStyle=0;aspect=fixed;pointerEvents=1;shape=mxgraph.aws4.sagemaker_model;" parent="1" vertex="1">
          <mxGeometry x="321" y="279.73" width="48" height="48" as="geometry" />
        </mxCell>
        <mxCell id="br4ufHqe5Ef_IuzkZ7wQ-23" value="&lt;font style=&quot;font-size: 8px;&quot;&gt;Model Artifact&lt;/font&gt;" style="text;html=1;align=center;verticalAlign=middle;whiteSpace=wrap;rounded=0;" parent="1" vertex="1">
          <mxGeometry x="315" y="327.73" width="60" height="10" as="geometry" />
        </mxCell>
        <mxCell id="br4ufHqe5Ef_IuzkZ7wQ-27" style="edgeStyle=orthogonalEdgeStyle;rounded=0;orthogonalLoop=1;jettySize=auto;html=1;" parent="1" edge="1">
          <mxGeometry relative="1" as="geometry">
            <mxPoint x="260" y="303.68" as="sourcePoint" />
            <mxPoint x="321" y="303.67999999999995" as="targetPoint" />
          </mxGeometry>
        </mxCell>
        <mxCell id="f5mGx95Ouu55sB4iAx-C-2" value="Client" style="sketch=0;aspect=fixed;pointerEvents=1;shadow=0;dashed=0;html=1;strokeColor=none;labelPosition=center;verticalLabelPosition=bottom;verticalAlign=top;align=center;fillColor=#000000;shape=mxgraph.mscae.enterprise.client_application" vertex="1" parent="1">
          <mxGeometry x="298.13" y="440" width="93.75" height="60" as="geometry" />
        </mxCell>
      </root>
    </mxGraphModel>
  </diagram>
  <diagram name="Orchestrator" id="r9B0w01Q7LJkLHa21py1">
    <mxGraphModel dx="689" dy="380" grid="1" gridSize="10" guides="1" tooltips="1" connect="1" arrows="1" fold="1" page="1" pageScale="1" pageWidth="850" pageHeight="1100" math="0" shadow="0">
      <root>
        <mxCell id="p7iLGZyrW0UDiJgstaNO-0" />
        <mxCell id="p7iLGZyrW0UDiJgstaNO-1" parent="p7iLGZyrW0UDiJgstaNO-0" />
        <mxCell id="p7iLGZyrW0UDiJgstaNO-3" value="" style="rounded=1;whiteSpace=wrap;html=1;fillColor=none;" parent="p7iLGZyrW0UDiJgstaNO-1" vertex="1">
          <mxGeometry x="300" y="275" width="90" height="125" as="geometry" />
        </mxCell>
        <mxCell id="p7iLGZyrW0UDiJgstaNO-4" value="" style="rounded=1;whiteSpace=wrap;html=1;fillColor=none;" parent="p7iLGZyrW0UDiJgstaNO-1" vertex="1">
          <mxGeometry x="190.5" y="275" width="90" height="125" as="geometry" />
        </mxCell>
        <mxCell id="p7iLGZyrW0UDiJgstaNO-5" value="" style="rounded=1;whiteSpace=wrap;html=1;fillColor=none;" parent="p7iLGZyrW0UDiJgstaNO-1" vertex="1">
          <mxGeometry x="80" y="275" width="90" height="125" as="geometry" />
        </mxCell>
        <mxCell id="p7iLGZyrW0UDiJgstaNO-6" value="" style="image;sketch=0;aspect=fixed;html=1;points=[];align=center;fontSize=12;image=img/lib/mscae/Docker.svg;" parent="p7iLGZyrW0UDiJgstaNO-1" vertex="1">
          <mxGeometry x="320" y="345.51" width="50" height="41" as="geometry" />
        </mxCell>
        <mxCell id="p7iLGZyrW0UDiJgstaNO-7" value="" style="shape=image;verticalLabelPosition=bottom;labelBackgroundColor=default;verticalAlign=top;aspect=fixed;imageAspect=0;image=data:image/png,iVBORw0KGgoAAAANSUhEUgAAAVUAAAB9CAYAAAAShPDBAAAACXBIWXMAAC4jAAAuIwF4pT92AAAAGXRFWHRTb2Z0d2FyZQB3d3cuaW5rc2NhcGUub3Jnm+48GgAAIABJREFUeJztnXt41NWd/9/vM5MQEC/EgCJJgIJ1a60KGYPWKxXdWsVt19ZaW1t3u1rIxUt/Wl3rT0zV9VJbLyHoYtd1u91atdv2sa2tixa1rpqQIGqFtqKSCyAQAhKuycz57B8zYAiTzDnf+X6/k0nO63nweTqcy8eavOec87lRROBw+A3r15YikpgC4EgIipMfKoHWWwGlIbIR0chGjO5plcun7M6psQ6Hj9CJqsMPuLh1InrV5wmcB+AUACWGUxMA/kqgUQuXSE3pT4Oz0uEIHieqjqxgfdscKlwL8G8BRLJc7m1dXXacH3Y5HLkimmsDHPkJ69eeTOr7qHiyb2tC/uDXWg5HrnCi6rCC9244SI3u+QEVrgRAP9fWQieqjrzHiarDGDas/ThHJ54W8JgAlk8gIi8GsK7DESoq1wY48gMuajuN0K8iGEEFgNdlfvmWgNZ2OELDnVQdGWFDxywCzwA4OLA9wOeDWtvhCBN3UnUMCuvbpxHyDMDABBUAtMjSINd3OMLCiapjQLh4/Rgq/AJIBe8HRw92F74c8B4ORyg4UXUMiOqN3wbg+MA3IhrluiN2BL6PwxEC7k3VkRY+1FZB8GqflltN4kUNLIegC5DNYCQOSYxX4AlaY7VP+zgcOceJqiMt1OpuQLLJkNpN8Mca/IFUT/rrIOOezGIPh2PI4UTVcQBctHY2IWd7X0GWSkRdpueVrvXPKocjP3Ci6jgAir7G81ziDj2+fIF8CQk/bXI48gVXUMWxH3xwfTkj8ffgoTgKKfckqspvCMAshyNvcN5/x/5EEl+GJ0HFE7qq/MYALHI48gonqo79IOSLHqZt0YmCWgHctccx4nGi6tgHG9YeDuAk23kiuElqj9wUgEkOR97hRNXxEaJPh205P8F6FG78t2AMcjjyDyeqjn0ohVNt55DyiFxZ0RuEPQ5HPuJE1bEPEVRaTtFaRx4JxBiHI09xouoAAPApRADMtJslb0rtpI5ADHI48hQX/O9IsqHjWBBjbaaEXQOVC9tOhWC02WjZLLWTXw/WIofjQJyoBkhlZeWJ8XjcSARIbm1paVkVtE0DIzHbGVrp0Gqgsn71KKpRz4MYZTQebABQE7BZDscBOFENEK31z5VS0wyHLwFwbpD2DIZSqLRMrhPo6GsBmZOG0TMAbSSoAKAhjUFa43AMhHtTdQAARKzjU9+V6kmbAzEmHSph1wo7oUIUfIfjI5yoOsD61aMAHGc1R7AsIHPSosBZFsM346pSV6PVkROcqDoAFJ0AmL1V7kUTzQEZkxYBzE+qwtdcyqwjVzhRdQBKrFNTocM7qfLhdycAmGI6XpR7T3XkDieqDij7fH+Ng0avCMSYdCQKT7Gc4UTVkTOcqDogsM6kWiX/WNIdiDFpUIDNe6qAEup7r8PRFyeqIxw+2nkwgGOs5iBcJ5VAbDz/q2R++ZbAjHE4MuBEdaSzc3cFLH8ONMJzUrEOCmCF8XjAhVI5cooT1ZEO7eunQjO8k+qEjuMAHGI63AX9O3KNE9URjrIX1V4cHH8zEGPSobVd0L+OOFF15BSXpprnsKH9EgWe6HW+QJ9pWZd6u9oRvTXSkF1xKi14UWpKf5dpnAJnWQSc7kDXpLezscvhyBYnqnkOBfOEcmYWK9hOGCeQ7DumUozEzyroH9IkCxD3apLD4Qfu+p/vEB/LtQmeMMjNZ/3qQwD8jemSBJ2TypFznKjmMaxbWQjgqFzb4QGz3HxVOAsWP6PaBf07hgBOVPOZkkOnAIjk2gxrTHPzSTsnVchFXhyOdDhRzWcoeXn1F4rRNZ3aqjLVGqkpW+fRJIfDN5yo5jMiU3Ntgjfk1UwjCBAUY1F1Qf+OoYIT1TxGIS9FVUP3ZL6mL+qYBqDEfFEX9O8YGjhRzWMEeen5f1tqp2/LOErbhFIBgAv6dwwNnKjmM1R5J6oEM179AUDB/OoPoAcH9brOqY4hgQv+z2NE4xuISKGXudR4BuAE8wl8Xaiv8LJXX0QSa43G0eqk+rpcPmW3R5McDl/xVVRnz55d1N3dfYaInK2UOl5EpgM4HMBBALYD6ALwPskVAF4uKChY8sorr+zKdt8TTjhhQkFBwRwAp5I8RpIOnHEAxqT27Uz9+TOAPyil/tDU1PRBtvvmGqkpfcvLPN7XUYxCGW81R/TLuqq8xct+tvCxNUVE5Hjj8Qwn6P+cli2HIoHThDgVgmMBmQ7gSACHIvm7tBvAVgDtELwnQLMCX4vvGvfa0rNcptdIIRqLxe4yHdzb23vbG2+8saP/55WVlZ9MJBK1JL8KYCxJyIH9jotTf6aLyDkAru/p6dlRUVHxRDQavbuxsfGvNoaTVLFYbK7WuqagoOBspPIt0+w7CklhPwbAqQC+qbVGLBZrJLlo7NixP126dOnI+oEfJTGIXX6qBkIRVADAdlUBwvgEHqST6tOvdowercZcQuLLAD4DoGCQCNsiJEX2SBAnEfiyQBAZ09V1ThN/C5149LmTS14Msn8WF3VcoQQx8xmSSFSXVflqQ0PbZYr8NIQf9v1cAzsBvaff8C0gVkpV+cu+7b+4pUD1TPghiDjAPvtJQkP6vedzG4SrpKb0hf0+Xdj+Dwr4VP+1tSq6BdxTAS0VUl32w33jF60rU6KrNUfdHgVgnMcdiUR+AGCfqM6cOfMopdSdAC4jaZ1EDuAgkv+YSCQur6ioeGT06NHXv/zyyxkryldUVJwci8XqRSTmbVsAwCwRmdXd3X1TLBa7qrm5+X+8LpR3WP3S7SO8Rn+KJ1vJDv0X1dkrth6m9uj/NyYyZj6SX8rZUCyQy6DUZWc3da2aQ95x+knjHl8AaD9s7YsSHCeQK23m8N4N18t1RxxwWPICH353AlHQIIKD+393sM8/+/ErAL6JKnrHXypETfJ/9LfhwP1Fyd8e8KFSr2ut16W+HC8QpW8DAGzc1IOSQyoJ3MqG9/9bqqe2JickLhfgKqhtP/TsqKqoqLhAKfU2gK/DQ1WO/v8KJL+1e/futyoqKga89pFkLBarI/mKiHgRhnQcA+D3sVjsgdmzZ4+IN2YKjIs+p9iJzvK/BGJMGuzaUctGmV/+nl97X/wUInMau66O9Oh3SdyM7AW1P5+AyE/+2NT15tnLtp7h89rQlDbrSYXat39HpQvrAB5sNUlwtF/7sw6K4PUWe78mVWUHHKikatIKqSl7FuByABtl/uTfyvzJv5UFx/YkN8KLQOTSffsK5gB4C/Do/Y/FYt8m+TSAw7zMH4TJJF+srKz8dP+/OO644wpnzpz5FIBbkL2I94cArtq2bdvTs2fPLvJ57aEHzSvpp1geZvUnEZv2Kf69p57buOnorsldL4G4H8mnqiD5JEW/cHbzlvP8XVZaradEeozjgQeDDWs/LoJvepg6LdnhwQfGt/09gE+aDhfFOus9KFoEr1B4IQDwobYKivwFwGjAg6jGYrF5AO6F/8K2l8O01r+eNWvWvsB2kqqoqOjfSV4U0J579zlv+/btT5IctqFmXLy+BJDJVnPCbJ+yuHUigDLT8eJTEZXPNG75nGakCcABX+gB0S3gV5+PjctYU9aKhLI/qVL5I6qi7wRQ4GFqEcavm+SPDbzRYngLqkqftd5EIAA0iZWsb52hEvyqJn8CJCNxrMSD5EwADyI4Qd1LcSKR+HksFisAgIqKitsBXJphji+IyNxYLHZLGHvlhJ647SkVWhiekyoesWtHLTrrk+qcxs3VivJr+H/zSgvBFolEZjxfOe5x3xfXvfYnVc2sRZX1HZUgvuB5Ad2b9RMAF3acB5g/bQl4SzZOQ634Y6X4FVGIobrsj3s/txXVxfD2TeSFmSJyZSwWOw0WzjQ/EJGbKysrPVfTH+LYv0WrRGiiqqBtgv41pDerU/Scpq5vg6xHOIkwAsGDBcXjTn2+4tB3A9nh6qkbAdiFKVJnL6pK34VsDluK2Ysq5SaL4ctRnbnzRHok6WCcX/qSgJ+jxgt9xdnWMVPuzQhvkFwAYBvCz/yKJBKJ+wGcFfK+gUNaO6m2Y9Pk0JxUIlbl/sxSXgdgTuOWS8BAn7L68iGJK5dUFj8Z5CYCiCI6bJw/KktnHBe2X0hydjZrKHB6VjY0tJ9B4DTT8QJZ4PmUKsmARAGEgpuF8f2y+Yb62+F4ANNysTHJM9M5zIYBdqIqaJEF/of+pINPIQIL+yhmJQTTMadpy+mg/Ae8CepuEEsI1AlwsaI6C4LBTj2vSlydsOQkM0Hlwo5LuXj9GA927cXuCUC8X//5FCIk/sXr/H0mANmJKmB+SiVfR3X5b43GRvY0i+bt+32m1TOg/iUASE3Zr/aGVQnVNeiVD/0MIWoFsBRAB8kurfUhJCcg2WNoBoI9DbxN8gWt9Tql1GYAJSJyBIAzAJzgdVERmQ/gFb+MzDVcvL6ElrcNMsT41A9aj4dSB5kO11CenFSnv/zhuFGF8hPAPMEgxV9IPhAv4ONLTzxsa9+/mNO0+Yo0P+IC4N6tkeLvNleiN9PirF99iOKoh0l8hb3xhwB4CsqnoM3qCEbzamAHsLHjH2DhbR+QLMKqWN86g0qda7yVlltNT6kyb9pGABv3++yq0nfSjq0q/T3gT5rqM1rrBcuXLx/wl+/EE0+cFIlEbiT5Lfj3Jisi8oRS6tZly5YNeD2dNWvW1Hg8XpfK9rI6mYvIhbNnzy5aunTp8Mgrjyes31M1Q8ykUsquMhW9OamKCvUDYvfl8iHIm7aqcY80V2QWRwAQyCYo9Q1T7z4bOmZRjXpcgKnJ+ZjH+rZfSG35cxZ2AgA02cYDMwsHsZWerv+8r2M0C8Uvp+501kF5uRWR6mYYH9pkBWrKf227hw3ZXP93A7i4ubn5/MEEFQBWrFixtqWlpRbA6QA2Z7HnXrpF5LyWlpavDCaoANDY2Ph+S0vL10l+AbYP+MAh3d3ddt7ooYyXhAlRITqpYBP0340J5X+23WNO05bTBfI1823QFEFkxnMnjVtkKqgAXkICM0wElQC5sO1qQl5CSlD3/hUVH+TiFg+HENtYVfF2Ui2Ua2ER/paBURi3vtR2Ehe1fgLE503Hi7AuyDRhwLuo9iilPtvc3PyUzaTm5uZGpdQcAP3zf23oBnBWS0uLVXzZsmXLnhaRi2H/f+ipluOHLB6cVB+ic1LmBn0+IbAI+icb5UtI2G8iNo6pZ3fqnWc9W3no+4bjNQS3FbcWf+b5Uw7PWI2LD7x/BBvaf0fyfqR/ivgE4kdcbrh3Hyu0bayqtaimnpK+YztvUFSP9buqksg/w1THBH/C5rKnbfewxZOoisgNTU1NL3qZ29TUtAKAfRbDR8xrbm5e7mViS0vLb0Tk3y2nHVBUIW+xTk9leE6q+9ccBpiH1VDs26ec07x5DohKsw34QmLnts+/ckqp4e2GGxTl3OdmFd/ypIHYs75tDqPRFQAOzDvvOw5yfcqBZ44o21hVa1FV8cTNSFbn8g/LsCoubJ0qkK+YjhfFBWH8PHsR1TeXL1/+QDab9vb2Pgjgw4wDD+TZ5ubmn2azN4A7YVHIQvK2D9T+sP6D8bC8qhE6vPfUwujJsGpHbV9ERTSvMRpIrIPuvWTpWeY1Wk+vLL7+f046/HljY8i9ZQMHR3A0NrbZpbJ2dbfDrljLKD7aaZyvz4WtU1NO3MwI/mS6rhI7UVVKfQfmfqG3UFX6S5v1vWItqiJyj6Spr2fDG2+8sYPkE7bzUhWxsqKlpWW1iPwx88gkJCdmu+eQgHF7J1WYmVRa2zmpIr1NNsNnL9t0JDKcCvci5D89N2vCBpv1rStO1ZT9KzhoGNY+FHiZzdKy4NgeCKzsx84dxqdVBXUHjCIn2CqkceKOTVgVF605UgTfMF6b8r2g31L3YiuqPfF4/Fc+7W1b6mut1yeHLPc2DvEZ0igvTqoQc/5p1Y763VSoizFK1Bdhdqp51vd8/DQIIJKQ62AgxgLM5X0doy23sHsCUGb5/1y09kRJ1pbNiEAvQEHCps2NsagqiVyHVAETA1ZiU/kvLOzICltRbUxXpNoLiUTiTcsp1qElg2CzdzZB2EMGD+X+tqC2zLeSeoPBpOPoJPPx9kH/NDylIrv3fiuktnwlAZOEgNGIaiuHKQlLZ5VZWBWhvw8j3eCf0Vn+X3Ll5PUAthgaMd2kWhXv6yi2qRkrkLqwfAOAfe7/Kr821lp3Wk4xfpvJhIjYhHWFkcIYBrai2hzWdQkPrfs4LFIltdgF/dcBCuCZBkPffq6y2KgxoV9owshxqpSR/X2wDKvSmZ1VXNTxWSTrhmbeHXLjvnKRAtM0Z6OwKlUg11jUbF2FzvKfG471BdtgeD9iTAEARUVFGSv899vbVoQHJBqNes4Xz0f4wPtHALCKAWSo76lxu/dUZXdS/d/GTdMAZPwlJOVnVnb4waayPyDZP21QBDDu2QUAmpYlADMUVUkWfzZOR21C9UehSyTMD2ORwatV8dHOgz+q6p8ZAb4X5ikVsL/+WwnhYESjUatTkFLKt73j8Xg4J7ChQrTAvtyfCs/zb1fpH7uxqfsNm/U1lVkaZUL8a+lhSPI0Z1Ro+1irhbVdBwCV6fo/vu1rEJlhspZQ3dj3lqNhccNlhnfVXTurkGzqacIqdJYFWsAmHUO9oIrDHzyU+9OhOamENpWpuHxfSwvjKeook2G7EiGm5PaBkBUGwzKHX/XFNlZ1kPx/PramiKK+Z7jO76Rq0tL9P9TGojpYWFXSDl5tupYIbw/7lAo4UR0REGJ7Uu2UeVPWBGFLf7h4/RiIGCdYeHFSiRi14+5++dQS325DNmhKh8GwsXxsjXmrn2jC6qQqg1Wq2h6pMewWISL65gM+VVhpbMdgEQA7o/8EwizEkXgHm0tDP6UCTlRHCraiGt6JrTceg0VhHy9B/yRHGQzzzV9gj9puNEyPNa4DIPPLtyBZi9h0RlpR5f1rDiNh1KKEgp9J9eQDsx03lq8BsNPQkLQnVS5uKaDgOsM1IJrfC7OvWl+cqA5zUk4qq/4/oZb7sytKDSQK7E+qWptEcOSu4aPoYH4PxSKsStJf/1WBuglmkRm9WjFtxarUFTxtubw0pG8C2DPhaxa91VZjc2n4TscUTlSHO4VqSGdSEWLupBKsl6smWje2I40crIcyZ+FzyuS9NI72ErsYcZt21WneVPlwxyQBq82m40dSVTpg8R3COALggLAq1kGRYp6ZRbktV6dUwInq8Eci9k4qqvBOqrQo90f7IioAQHKTwbDRZ7221arLrF8okSkZBwk22TpdCNo4qw7v/6WiEnIHzJJfdmmtBg23sooA6B9WVdL2RYDHGM5+F5vKs60PkhVOVIc5FGsn1SapOqo9EGP6wUXrymDxNCEe3lMBQDTWmIxTKmEUMuQ3QoPykoR1dpu2OakCBVj83iH7tlvY8SkBjOrOErhfaicN7myjNnZWoV8EAGFRP4C4PZenVMCJ6kjAUlRlWTBmpME66F95OqlGo9ooG4/g+V7Wz4bUm3fG6AfapVYn0ZYJAHsK9j0BUMndgFHJwa26h/dmHCXmCQCqT6wqH2o9H8BMw6nvYVPZT0z3CQonqsMYLlpzJACjGM19cxCek0rZFVFJQEZ5euv9fUXJegAmYUtfuHildd+q7IgWfB0Gv4da4OHLTlsWVUmGVfGhjjMhMCo3KJC75NrSrowDO7e/A5idIPuGVVGrfzaZk5p3R65PqYAT1eGNDG0nlSSbQpqOfkuqxpuFHqXHpNZp8ZYdXcbl5LKFdYiScoXRYFFLrDdQUbuTqkqUECATcpeZTViPgoJ6o6HJhA3TJ4yjAYALO86CcecNtqKzO+enVMCJ6vBGPGRShXRSTfVeMn7DJI1SOQeZj2dMxongu59bDZO41uwpaf+WWRdRWZHxzTId449aBxj31QI0S9DQ/mXQ7MtOlNTJlRNN408B8wiAacnW12LcdlqA260z7QLCieowhlS2TqoPpKZsXSDG9KdnwgmwKKuoAU9Oqr3Ed2x7GmbdJib3dm0OvPwfF7YfReBWk7FCejqBpXp4ZeyV9ZFRmEjgNsOx7yC66VEbewjjzKpR2NhxIWBWEQtAGzq3/djGliBxojqcsff8h+ekUpZB/zqR1Uk11RrFKCBcwG+f07LFuIU1F7dOTLWrMRtfhyiJx2HWG2o3euPer7ViXqyawloYFooWwS1yZYX5KRiAhhg7qwhZCMO4YYHcMVROqYAT1WELF7YfZZwnnUIY3nuqgrZxUm3F5il/zXZPiUS+D2RsyreBwNwlFeOM3iPZ0HYOe9XrQMLIIcinEFEl7T8CcIbReOIxuXqqXWuU/ebT5l3V1Kn5hqfqT2JVj9nUljZ0bn/M2pYAcaI6XFHWp1SAifAqU9mlpzb6UW3o+YpD3x2s0j6BZwoLCj+1pLI4Y/tz1iEaaWi/g+DvARxhsj8fW1OkNrT/p8C4t9JurRJ3G44dYFO7EoAmiOAGT/89VNGf4XPhc6H8y1A6pQJOVIcv2rqICiASykmVDWsPBzDNdLyIfWWqgYgLvgOgf7pnnEDdaZXFc5+ZMTZj9hXr15aypH2pADfB8HeIDWs/zh3qVSGMWypT8P1sq4Vp8V1UX5KasoxfOulIRW/YO9wGph2Jnsd8XM8XnKgOUwjrcKoOqZryQSDG9EfFT4ZVnr1d+5TBWDqruIPgPkcUwdUK+pQllcW3mnREZUPbBVR6BYDTTPbjQ23jIg1t9xD6DYAnmlsqf9GFUbPQpkGXsUpVzbwclFHFqkEW8K0lkwB3Su30PX6t5xfGJdcc+YaYZqEkCbEylUqoWWIuqQLSqh11Jk6rHPeDPzZ1fRZAV7yQVyw9sWRrpjmsW1moSg6+k+C1yPCFwEWbxgK7P600vkryIrHvyNsjkEstw5XSo3QbxLez0y+lelJWPbxIrBTg3KwtEazH2IRRf6+wcaI6DOHDHZNo66SS8GqoimEcZIp3pHqSr7VOFwD6wsieuU9XmIkWF7ZOZcnBPxOgcsAxSt+mFnYoUEoJfBJA1OKLYz8EUpu2LqkXooWt6PUlySghkP+f7SIasoo+FAMT4g65fMrurBcKAHf9H47EvTipGE7Qv207avFWmSoT5oLacRGplmMQQU0xF5TzAZyALA4rBO+W6vLFXuf3J3XazbppJoEfS3X521kbpH3oyCxYjx5axciGiTupDkMUpUJsTwOJaDgn1fq2T0DxMNPhWmUX9O8V1q8epVTRPaTUIqQ6qxQs1DWlxrnuFrTBLCZ2IHq0aLOkgEwotdLg6XpQBLxTri3d5Ys9AeBOqsMQsW70x1apPdKk5mj22Ab9iw7kpDoYfLDjaEaKXhXIVQhHULUA303UlNWKzyFHKbJyVlHQIDWT3/fDkNRTTjYn5w/Qix/5YUtQOFEdltDOSYXwOqdatqPehYLOtwIzJg1c2HEpI7rFtB2zD2wVyN9JddmgRZ6zwTIBoD/bdbQn+yiEvtB7BICI3DWUT6mAE9VhB+vXlsKynbGE2OhPIOYnVaLZNhUyG5K9kWQqQOMGe1nu+BuJ8DipLv9NkLtkE6sq5L0yb9pGP+2hmHdX7ccHKCx4xE9bgsCJ6nBDaXsnVViVqe7dcBCAY43H+xj0b4IsgJaasjskweNJPoVsH/8GZqUI/k5Xl86VeaXmBU+84j1WtROJ3ff5agsALeY1APoixD2+hJkFjBPVYYYS60wqASL+hO9kYky8EjbtqMW/oH8b5KrSdxJVpReL4gwCj+LADCyvvCSUL8mEsuOlpuxpn9bMjPJ2UhWR26V2ukWba0OUpwiADYhG/9V3WwLAef+HGaIQs3R1vO93HOiASOJkK79PNJhwKlNkfumbAL7Jxe99G/HCC5TIhQLMBmBakWoXBE0CPoOI/rnML7fuM+ULqqcVCduGBmyF7Hk4EHsQWZW5rs3+CPH9fDilAk5Ug2YPANNiD/4UhRDzws9AuO1TAG4gaBiDKTt1GFdjA+TKj30I4L9Sf8CH10xBQh0HqilKZCIoUWiOBdmtBV2AtIL6HXTu+NOQKPYxb9omNLTvAjDadIpALwgsBbTqqA40tHUDPNhwRidQlBenVACgSBARHI5cwEXryigJq6ueCG+QmtJ7grLJ4RhpuDfV4YROeHBShVfuz+EYCThRHUYoenBSxSUcJ5XDMUJwojqMEIuc+hTvyjVTMlZocjgc5jhRHSawDlEAp1jN8dRL3uFwDIYT1eFCccdMAIfYTNGAu/o7HD7jRHWYoCL6IutJEbqTqsPhM05UhwGsgxLhJZbTNOK7Xw/EIIdjBONEdThQ0j4XgHGf+hR/CiQF0eEY4ThRzXMIkJBbrecJXgrAHIdjxONENd9Z1HaZXZfOJFpxaRDmOBwjHSeqeQwfavsYhfUepu7EzgJPvdsdDsfgOFHNU3j/msOo+QQsw6gAgMBv5Loj/Cpn53A4+uBENQ/hA+8fwQK1FNa9qJJoqoBKujkcDieqeQYb2s9gNPqql3fUFG9K1ST3nupwBISrp5onsKFjFoHrCFyELDp8CsWfVsMOhyMtrp5qjmHdykJVMvZ2LaoRRAcS6EKUB4FyKDSOViIzROEcCI7Ofjd5VarLTw2oDbLD4YA7qeae4rFnCHg9mdK5CAD5SPaE8EsCe4SRKieoDkewuDfVHKMi6oIw9hHIrVI1aUUYezkcIxknqjlGRM4PYZtforP87hD2cThGPE5Ucwjr244FMD3gbRplV+FlsiCwHvYOh6MPTlRzCYO++vMV0XvOdYH+Dkd4OFHNIaTMDWxt4EkpiJzjKlE5HOHiQqpyBBvWHk7oDUj6+/1kuxA3oKrsIefpdzjCx51UcwXls/BXUIXAzySS+JRUlS1ygupw5AYXp5ojFGSuT6rXQ/AJrRP36drJrpK/w5FjnKjmCA0sIzARyaIoYyynrwPkVaF6Fnvw3/ra0q4ATHQ4HB5wb6o5hk8hgvUdH0NEHwNwAohJSnjnWhYIAAAAIUlEQVRQ6q/HQWSHJrpAdAH8APFIs1w1sS2nRjscjgH5P5rR1A2UUb2/AAAAAElFTkSuQmCC;" parent="p7iLGZyrW0UDiJgstaNO-1" vertex="1">
          <mxGeometry x="200" y="352.99" width="71" height="26.03" as="geometry" />
        </mxCell>
        <mxCell id="p7iLGZyrW0UDiJgstaNO-8" style="edgeStyle=orthogonalEdgeStyle;rounded=0;orthogonalLoop=1;jettySize=auto;html=1;exitX=1;exitY=0.5;exitDx=0;exitDy=0;" parent="p7iLGZyrW0UDiJgstaNO-1" source="p7iLGZyrW0UDiJgstaNO-9" target="p7iLGZyrW0UDiJgstaNO-13" edge="1">
          <mxGeometry relative="1" as="geometry" />
        </mxCell>
        <mxCell id="p7iLGZyrW0UDiJgstaNO-9" value="" style="shape=image;verticalLabelPosition=bottom;labelBackgroundColor=default;verticalAlign=top;aspect=fixed;imageAspect=0;image=data:image/png,iVBORw0KGgoAAAANSUhEUgAAAQQAAACNCAYAAABRwASuAAAABGdBTUEAALGPC/xhBQAAACBjSFJNAAB6JgAAgIQAAPoAAACA6AAAdTAAAOpgAAA6mAAAF3CculE8AAAABmJLR0QA/wD/AP+gvaeTAAAAB3RJTUUH6AcHCR85hLpq/wAAK1dJREFUeNrtXXd8lFXWfs47M5k0klAChJYQeickAUJRRAFRcK0ouogFCIKia9dPd7Pf7vqtrmVFERLEhoBgRRQFlKL0kFCl95JQUgkkU+/5/phk0mbmfSekTJL7/H78NDPvO+99z733ueece865BAmJOgAnxwZaFH1nCCWaQZ0A0YGhtCJwBIBwgIIBDgbQBIC+zK1WAi4zkA8gD8AFEDKY6SwYp5jE/gBYD1JiWr6UsvcgKQKJWpj8oWb2SyBQHCvcD4z+AKIBKDU4tM8AnErgbYKVrf6W0G006yez7A1JCBK1TQALhjax2MSNzDwKRMMB9KrZya8JV0G8AaysYh2WB0zZfEr2lCQEiRqC6YNh0dDb7wRjHIAhAAy+zFkEbGfQl3boFgcl/p4pe1ASgsQ1oujDIZGKDZOY+C4A/evpa1gBrAAo2Tht8xoisCQECQnt/oBAE/vdTcQPAXS9D5gC1Yk/mOh1/wy/JZS03iYJQULCnUmQPKQTCDPA/DCApg38dU8y8d/9M7Z+RkkQkhAkJErMgvlDh5MQLwAY28C0AS3YA9Bz/ombV0tCkGi8ZgGDzMlDx4L4JYCHNXqBEL6ys35WY3A+SkKQqGgajGbifxBjoJRGOeQB9IJ/4uYUSQgSDR6FKQlDFMZrAK6X0vCI7yxW+5SQx7dnS0KQaHhEMCe+PRn0rxPjPjkeNOMsQ0wMSNy2URKCRMPwE3w8wt9iNT/PjBcABEqJeA0LM2YETN+yQBKCRL1GUfLQGwg8D+CuUhrXjP8aM7c801C2JyUhNCat4MOEZhYbvcXEk2XfV6NcgcX+sDxEiWlWSQgS9QKmeQk3g7AAQBspjRrBCqOfcQI9vN4kCUHCd1evtxMCzEH8b4CekP1d07OJ1hhNoePrc5q1HCANGOb5g/qyUJYB6CalUVvmAy31b9r2AZrwpb0+tl+RXdgwUZQyZCoLZaskg9peYflec86Z2VJDkPCNFSo5NtDExhQifkBKo07Nh5n+0zZ/IAlBos5QOCe+vaLXfwdggJRGncPKCt0cMHXzWkkIErVPBo7Q468BtJbS8BlcskPfrz4lRUkfQgOAeV7CRIWxVpKBzyFcx7aPmevPwisJoZ7DlJLwLBMWATBKafikDj7GnDL4KWkySNQoOAmKOWLwOwDNktLwfYsOdl0f/xkbj0sNQaL6yWDZPTpL6yELJBnUGwRCsdeLHQepIdQ3MkiONZjhtwjAPVIa9cx6YL7POH3rUkkIEtWkGfTyM+eGfAVgvJRGvcRxozmspy+HNkuToR6ZCaackIWSDOo1os3G3BnShyBxbWTAIEvumflEmCClUc/NBtD/8JwRwZIQJKoMc3LCOwx6WEqiAZA70NysN02VPgSJKsGUnDATwPtSEg0K54xNL0fThD8sUkOQ0Iyi5KE3AHhHSqLBoa0pL/ReaTJIaCeDuYOjCGIpfPsUZYkqq+acKAlBQpudmRxrUBT6AkC4lEaDdSYMNc8d0lsSgoQqzDD+k4FBUhINnBMU8ZAkBAnPpkJKwvUAPyMl0RigTPC1TEhJCL5lKoQSYxEAnZRGo+jx9kXzExIkIUi4MRX8/gWgrZREI9IRmO+UhCBRCZaUIfEApktJNDbQKEkIEuUVx6QResFivjQVGiX6XF0wtI0kBIlSU6G1aQpA/aQkGqeKoFh5pCQECYd2MGdEMIj+JiXRiBmBeLAkBAkAgElvfh6yOGpjpwSfIQSZ3FSHuDJ/UCu9UI4BCJLSaNSwGv2MIb5wUKzUEOoQeqa/SDKQAGCw2Iq6SpOhMfsOkmNDwSS3GSUcsFMPSQiNGBb4zQIQKiUhAQCCFEkIjVY7mD3WyMDjUhISpRORoyUhNFKY/PMnAGgpJSHhXCTA7SQhNNbVQIgZUgoSFUaFT+SwSEKobd/B3IQYJt/Zd5bwGR0hQhJCI4RQ8IiUgoQLBPOye+o8l0USQm2uAUkj9JBHsEm4BiH3eLAkhEYEc4RlDIBWUhISrlBkU0IkITQmDYH4ASkFCbeTkYx1XmFbEkJtkcHssUZi3ColIeEWOlHnuUX62njIoPlbW9ntur4gJRpANIijwRQGwI9KYvkZVlYohwXnksI5YDouCAdYoYM7H405DSKu1+aCf+5IMIXIUS/hftWwKw2SEAbN3hpi9/O7FcTXA7jOLtCjXF4ll/7hnOUEx6mmVPq9wgDsjLiU9CtITtvGTOuJ7etYoe1piXHW+tXbdJsc8RKeh4hO1HkTquuH7lm2THcyp9MoVvhBMN0OIKAG230VxD+RoCVBxssr1z98g8mX+5kZZE5JOANZQFXCA2w2W0TwzNTz9ZoQRiSt019tHTKJiV8FqGMdvEM+gb5jYZ+/47H4TT5pLqQM7cUs9skhL+EJRpuxCc1cf6Uu21B1m4WZ4ualTyyICNnPhI/qiAwAIJTBk6EoG+OS07bGp6RNGJG0Tu9LHc3CPlIOdy9XqmadYJy8CvrhL5Tat3FTYJy8Ckrrvqr363rcDuPkVdB1vaW+vLLApfWFdd2IKhFCwtxdbeNS0n8E8WICuviQUAcxY2lBRMiR+OS0aT5DDArdKKe4t4ygAMYmgMG/zCw3Oj4jDQF9Oj/HtbrSnTwKbg398BegdB7li2+cTUkQ9Y4Q4lPSHrAp9r0AxvrsWAKiGEguiAjZHT8vbXydagdJUMC4Xs5wL+VWkAnrL69A7PuqasvtmS2O+8+lln4YEAZdjz9BadXXF1/5oi80QvsKmsRKfMTON5jrz7mDBPRkwvdxyWkbGPxEWmLc3tpug6XN0B5gESanuLeCuwJxfG3VCSX/DDj/TD1iQFyoN4TQefYRY5h/2sfMNLGeDq/rCZQWn7Lj7cKwgL/+MaGXpfYMQzGoMVSypWadoOt1Fyi0A6AzgAsyII6vhzi5ofLFfsHQ9Z4ApW0sSB8ALsiE/dgaiBPrS3/PPwy6vvdDZB+GOPaL52cHhUPX626ABex7vwCb8qG07AUl6nrYT64HX9wPXffbQMW+B6VVb+gHzoA4vQni/G7fkB/hnE9Yt6r+grc3B4T5F/yM+ksGJTAw0wsBuaatA+el19qhKCS4wac663rdDb+7PoWux+2gsEhQcGvoOo+GYfT/QR83pbw8QtvD757PoY+bAqV5FyCwGZSO18Mw6jUYRiY5fAcA4B8KXf8/Q4kcqkoGhnHvQ9fvAYjck2BTvuPzFl0d9zd3uLiUyKHQRTksN2oaDV2PP4GadfIldfao7xNCEivWIOPnYB7RgMZvjCDeHpecVjslzIjiGzQb+AVDP/hxwFoE6/JEWD4fD8uiP8G6PBGwmaDrP8nh4AMAUmC48X9BQS1hS02B+bNbYFl0OyzLJoLzTkPpPBpK1HXaRVtMBhTSFtZ1f4c4usrttdZVL8Dy4xMAAPvB72H+dAzs+7/xGTEK8DGfJ4TY1ulvA7izIQ5jAO/FpexY3Pez3TVWBr043bmHLwrALhhr/sjDwx8dRZeX0vHuL5lV47vQdoDOD+LCHogLpS4acWEfbLs+hzj5OyigqWOwtY0HtegGkZEO+85PAGFz2vu2Le8Wr+TDvCODJm1gXZsEcXRN/day7HTEp30IcclpiQCebNCrG9NEQ5GtZ2zyjrvSEuOqnaEtrYu6AorRl155f0YhFm/LwuJtWcjMK3WlvPLNaYzqGYqebQK9+8GrlwAWUFr3hxI5DOL0ZoAdu2f29I9gL7v6tB/kIItDKyqvkOd2wPrjk2DzZfVnBoXDcN2LoND2sB/6QdXHUA8gDMK432cJYeD83R2FsL3ZCHxhIKAfgVIHzku/dfv0AVuq+df7+MI75hba8E1aNhZtzcKWYwUur7EJxrfpOV4TAhdmw77rM+hiJsMw5g1wUQ44Ix0icyfEyd/Ahdml0ghpV6wRnHUxJazltwg9OYOue8GRBGO3QNdpFOw7PwNfPlufR+HRuo5QdG8yJLEihO0TAMFoJGCgqSBeMyAlbUz12oXUsy7f68gFEybMPYyo59Pw+KITbsmgBGrfu4MtNQXW72fAfugHAASl003QD3sOfg8shz7hyVJHod6hLLHlGsc+M6w/PQ3bzs8AvRH6Yc/W9xG421daUokQ4iLSZwC4Do0PQQpjedy89LurTbgKouryhV759jRW7M6BxVY5czzIqGDRtC64b1AL52cXC6qeQCrO74Ztw2uwLBwHy5cPwLb1PXBRLnR97oWu2zjHRcXmAAWFu/HsBDv+qcC64TWI87th370QnHcKSruBUDqPrr/6AVOaTxKCw8FGr6DxwgjiL+JT0qqlshEDHerqRfacvYoVu3Pcfv/G3ZG4c0BzvDUhCjrFESmRe9Xm/QBqEwv9wBlQIvo735pzT8C+Zwlsv7/uGPARMQ7SyDrsuMd5bZlJEdgCxodWwW/8HPWHFuU6/mu3wrbxPwAY+oRZjlDlegg7i40+SQh+RbaZADf2mn86Znwal5J+VzUwQmRdvcS/V2aA3ZSU6d02EA8Nc3RzsyA92jZ1bAsaDd6ntlBQOHT9/wxdv8ocSsGty2kG4tivDgdkz7tAgc3LC73PBAAEcW6Hd5pJRjrsh1eCAppBP2imxkb7VKiYOcDf3/c0hF5z/ggG8BwkAEAH5oVxc1NjqswFSVBQR/UP/sgoxPKd2W6/f3V8Oyhl5oSfzvFHaID3VcDtpzc5IgM7DIVh/Bzo+k6Erts46Ic/D/3gJwBhhf2gY1eBCzJg37UQ5B8Kwx0LoOv/IHTdx8MwMgm6fg+ATfmw71nifRu2zgGb8qHrNs5zJmTxNqfSqg+UdoMcUZV1bi9ghy8cA18C5y5DgM58L4AWkgucCICifBvzUXr8zkcGXPL25qJWCRGKI96h1vHWqkwIN9pBp5b+GN+vWbnPcopNhZCAKiSHmgtg+/lZ6Ee8AiUiBkpEKYdy3inYNr0FzikNwrOlpoBtZuhjJkE/sPTwa845Buv6f4ILs4pnuQWcdRC4XBofwVcvgbMOgq3ls4TZlAfb5neg73sflO63QZzfAy7KdVxblFeuPZx3GtS8Cwy3vAPbltmw7z1dx/4D9qkACn2Zlj0oOaASIvUWXgjmsV7XdCTqUKZAXK3hfL4FX6dluf3+0WEty2nMZptAXqGDEMKDq5YtLi7+Acuy+0EhbZxmAhdkgAvOo7IMGPadn8C+9wso4d0Bv2DHtTknyl3LBZmwfFP+TBv7vmWw71vmug1HV8NydHXp3yfWw1ImN6LE52D5+kGHFkEKOLvuo4XtrKz2OUIojjsYLue/C9WfMCY2eWdiGjDPK5tDQSTXQVnY+b9ddLmrAAD+BgWTh5Y/Y3bv2UKnNtE94lqq3jH48jnwZY05OjYTROauOpiBFq/9FDWIvIDzfqm+NN4VALDb7Q6PjoSbxZ7fSJi7yyt/AAvRpta9UzaBD393n0U7tk9TNAsqrwWknSyNCejbLkh2dm0uNqBVlLTe5nOEoIBvkN3jEU1sinjHO82i9k/hWbY9Gxcvu48luDuuWaXPNh0tDUbq1TZA9nRtTj7GVz7XphFJ6/RMGCK7R1UhvidubupAzVoFRK1Hen640X3RnRB/Hcb2aVpJo1i1Lw8A0L6ZEVHN/WVH1x4K/QKv/ORzhFAQ0SQWQBPZP5pW/Ve9MDRqlRAOZBZh+3H3oce39GuKgApxBusO5uOyyZF+dEvfpj62Pd/g8TM9uOeqzxECgAGyb7T6EnDrgPlpsdo0itol2YVbPO+Mju0dVumzxVtLdyNu7RMmO7g2xxKw0CfNGAVKJ9k92vtRYX5VW4fXnoZgtTMWbXVPCHqFcFPP8hP+4mUrlu9yhDY3DdRjeFd5ylwtkkG2nznsJ58kBMEcLbvIK7vhtoEpu7qqXyhqTUP4eV+uR2fiwOjgSrsLn24u3Z6cPLQl/A3y3N/aG0K0mGb9ZPZJQgBBEoKXBM+wTVI3GWpPQ/gyNdvj92N6ldcOTFaBeesd25M6hZB4fSvZq7Vrp3/kw22T4cpeMzzTJCSxoqIW1kqlpCKrwE978zxec0OP0HJ/f7TxIjKKqyWN7ROGqBZG2am1Zy9s8pu2eZevNk9PgNxr8h6R8W12Dk8FNni4xl4r5sLeXFwxu39UE38dYjoEldMO3lqV4VgNCHjplnbV1habYOReteGK2Y7QAD2aBuprdOfCJhjHLppw8bIV/n4KopobEd7EoPn+YxdNyC+yo21TP7QK0XafxcY4m2uGxcaIDveHn17bCxZaBExWga3HLi+rhlcPBtAOwEGN17eAI9EuB4DHwyr0kIRQNS0BYhI8EAITrFQLocvf7cz1+P3QziHQl0ltnP1LplM7uH9wOAZEXlt04pELJixNzcKqfXnYd64QJmvpaWRNA/W4rlsIpl3XCiMraClV184cPpNFW7Pw64F8Zx5GCXq2CcQLY9tgQrx7xff4JRP+tvwMvk7LBjPwzcxulWI0KqLAZMc/VpzFp5suOrdqI8L8sGx6V8RFebYOX/jqFGYXF7FVFEwAMNuLV24Gx05gjKIoMcwcA6ArEb0phHjBw30BAKYR0UMA+pf5fCMzPwy4LvsuCaHqniGPR9kpDHtN84HJKvDzXs+EMKxLqW/zXK4F//nZoR0EGBT8dXzVtYOjF02Oiky7ctxmVuYW2rB8Zw6W78zBxEHhmDcpWvOK6tJXsiMb//rhLA6dL3J7zf6MQkxecBTbT1zFmxPKl6PIuWrDv1eeQ/KG806HapBRwYjunsnq4mUrxv73APZnlM+yzMyz4K/fncHKp9wX1j58oQhz15We8G6382daNAAiWgggBiitqcFlkmOEEF94uP9uIpoNIMLVkCCidczcH0C2K0IwAwiUM9xrtIlN3tE9LTHuoJuVzFbT2SHrD5UGFrnDdWW2E1/6+pTTvHh6TBu0b+a974AZeHt1Bv6x4izMtlJtoFWIAR3D/XEgoxD5RZXbtGTbJTAzPn6ks9fPPJBZhKeWnMBvhytXZDbqFQyMDkbTQD12nLzi1H7mrM1EbGQgJg4Kh9km8MHa8/jPzxnIraBRjOweVilgqywEAw9/fLQSGZTgoAdyEgw8vugErKVLgxnAlxpeeRKA2z18fwjAThefBymKksLM96v8fjtFUZ4VQrzkghA4ByBJCFXyD9FNbu04YltN54ut+SPf4/f+BgX92jtMgu935eDLHY4FoU+7QDx/s/e1W4qsAg8tOIrvd5WWZgswKHhzQiQeGtYKCjlW4fGzDyD9VOUgvC+2Z2HykHDVFbksPvztAp7/8hSKrJUPRp40JByv3dEBLYr9BhYb44nFJ/DZZkcI98vfnIHNDvzrx7M4le16l++WvmEen//FtktYe8C9nD2RyZy1mfi9PIn9ACBXdVwRzfRMyuxKO+hIRN8ys6ZTyZj5VgCVCEEBKFdO7SrD/THvpNR4FtuqP/I8fh/TIQh+ekJmngWPLTzuWAEUwtwqqO5XzHaMe/dAOTLw0xO+nNENjwxv5azA1CxI75FsvlDZIi3rvHtowVE8sfiESzJ4dXw7pDzYyUkGJe15695INC+u63A+34Jpnx1zSwYKwaPvwC4Y//jBc3n3rq1cJ4RtOnIZr3x7uuIk1BKdOAJAL5VrKhJCHyLaBMCbIwojXMqk2PMoUTUM90DBNUoIxy+ZcOyi58pb8R2DIRiY8ukxZ1Wk525ui9hI70IkLDbG/SlHsPlo+VyJV8a1w40unIV92rlXOD3Z/yW4aha464NDWJrqutDLI8Nb4eVbXfs/go26ShWh3CE2Mtjj7sKa/Xk4meU5fmhgdGWn7B8Zhbgv5UjFuhTZAFSjE9W0AwC7KmilCUS0wd0E94A8d4RwRs7rKqO5uzoJTMirUe1gn/rPx0cF49VvTztV3oHRTfDiLd6bCk8sPoE1FbSRPu0C8fRo1yUfAv0Ujz4ITzDbBO6YcxC/7Hf9fr3bBuLdiVEefyOyuTbfyFgVc+GH3eoy/lP/8uSTevIKbn7nALIqlLQnoqUA1E4db6viOwAzf122i4noZwAlas5ZACuhrVTXOXeEcEDO66rDqhN93fgXsmryua4cbK5W47dXO3YVWoYYsGRaF69NhQ9/u+C0ycvixVvaOsu3V8QFD2HUnVr6eySLGZ+fqGh3l5lUwNv3RpXbRnVnCmjBuL6eNYnUE54PlOnWOsB50pXVzvjvmgyMenN/JTIAACHE5xqaNBUejlcsUVzKmAk/AQgpJpwPmLlzsW9A9eAXInJZNkqvEA4IlhO7ymDu40oVJBbZXINOxe0qg1UhOLcYdQrhs0c7o02YdzVfj18y4cWvT1X6vH0zI26Pae72vh0n3bftVg+r8turM7DYQ5LWA4PDNSVh5RWpx4S1b2b0aNoAwPnLnhf0OwY0w+lsM77flYOU3y7gyAW3JtwRAFs1TFK1Q4LyAOwA0IWIVgNoDsDOzInMvKDMdU3VniWEcHlsod7OfIBk9bRrgcvzG7kGNYSzuRbn9prbDmc4twX//qf2uL6b94FBT31xElfNlR164/o19bgKuwuW6tjCH7f1d70q7ztXiH+scO/A0yuEl2/VZu54SvQqJSbVOYOmgXqPv/XfNZn490r1GpJEtIRZtcJmN6g7EzcAaEtEvwBoXUwGkwAsqWB2qJ0HYgfwm8uFJLrp8SPuHAwSmuAyfZyYa4wQth3Xfgbj5KEt8cwY78s7/rI/r5LfoASje7knly3HClza/356wqePdnap7tsFY9qnx8rFNVTE3XHN0bGFthi6XafV647c3DtM9Ro156TJKjS1RwixVMNld2ggln3FZNABgHBBBgCg5YChzQBcqmLKlxMm2AH8Lud1leFytoka1BDSTmkrtHNTzzC8d3/HKj3jjWJzw6VK1NZ1uHPOVRse/fiYy9V93qRoxHd0vbuxZFsWdqpMYncOzIooMNk9BgsBjmAmLabHc2PbuG1zWXRtFYDpI1q7y9vYB2C/hsmuSgjM/DiALsX//6QLMgARTdLwO8vdmprF/10n53WVEQHmSkNBB12NEYK7qLmy6NkmEAundIZB5705uO9coVvHXoi/zqUv4ny+BeNnH8CJrPJ2dLBRhy9ndMXEQa4PeLXYGP9U2euPjQxWtfedS9/RAthVnGJDOjfxuBNS9l1/eqonXhjbtpwcdQohLioYT41qg5+e6oFdSf1wMsvscgeFmbVoB+0AxGu4LrR40r8G4H1X3Q4gTo0PAHzj1jRzPEBZxyzk1K4a/GJT0pqnAeUIwCBw2qyrmQeqxR8YdITvn+iOsMCqHbzy1Q73wUOtQ/0qrYQ/7M7Fk0tOVPJrjOwRig/+HO1xG/DrtCy3gUMluCe+uea2f52uHvh0oxeJVkFGBXFRwbAVk0zzYD3S/9oPLcvEL6zck4uf97mN79OS3TgaGsNaiehzIYTLA5kVRZmk7qrARgAnPGoIqRn99wB8Vs7ta9ASKnbcjI25XANBXzbBqhMoNLD0ANeq4Ifd7oNXg/1LV9ZfD+Rj3LsHcM/cQ+XIIDrcHx893Ak/zOqhGhOwZHu2ygQA7onTRggmq8D3O9VFflNP7YRwNteCxM+OOVf/1+7sUI4MLDZ2uRNTjHQAh9WeoSiK1qrnvwshpsB1nIHCzH/WYC54jJZ0LCFJJCg5fSmDn5Fz23voWHFtaBKOgjGwOp91KstcNlnGrapbVeQW2nAg071JUmQR+NvyM/hqRzaOXzJVsqWfHh2BBxLCVWMFAOBSgdVjnkAJuWjdLv1uZ47LxKqyaBli0HwgjdXOmPThEWeU5w3dQzEpofzJV/PWn3e73cjMmmofMPNgDZddYOY74UiQcqdlqKWvmqCSXOXUKe0KL1EEJCFUZdXWcYAba+0oUL2EcC7PonrNtRDCvjJHu7nCgcwiHMgs3Woz6hXcHtMMjw5viWFdQrwqiLJJg70/KFp7acqSmgOetYMwzW18dtlJbD3m2NFp0cSABQ91KnevxcZ41/0zWaO5YADQVQNpPIEKZmkFLeMhDebCD1DZUXQSQvrU2LS45B2HAeoqp7h3IOGBEKo5xKPApB50ExJQdUKo6BR0BX+DgtG9wnB7TFPc0rdZlY6RB4C0k+q7JX01OhN/PZCvulMBAIOjteVx/Ofnc0jZUFp38sPJnRBRQVNZvO2Sp3iQQ55s9TLoXEwKHi0XwOMpTwHMPE4DqSxSu0ZfwV77hBmvySnuNdyN2mPV/SAthBBcRQ1BMLDxiHqMw+aX+6BHxLUd+2a2CWw4nK96nZYTqZmhulNRgn4aCObFr05h9q+lK/9rd3bAmApxC4KBd1ZnevB90EYNKzYBULX7iWi5SmDTTQDU7KBcqCdXjSy396JXLMkArsr57aWGwIretYJAR6r7WVc0EIK70589wS4Yjy08jq0agp5STxRc0ztcNQvcNecQzuaomz/Ng9VrHS7cctGp2quhZ1vPhJC8/jzeW3ve6USccl0rzLqpciLh9uMFOHzBQ3EUIdSciXpFUT7WEn8ghPCYm6Aoyu0aSGWZB/8D4MiN+LocIWyZMiQHwCdyintJCGCXgg4g824A1ZoGrSXvREvobjlPk1VgYvIRfLb5otuEpbL4Ynt2ldufX2TH+NkH8OuBfJhsQlPbPCHnqg3/8622hN1gow7BRvfa0zurM/CXpSedPvw7BjTHO/dFubx2+S7VMiKehBRARN8w82QAWjymB1VMgZs0kIonf0Z0cW5EWKXoDLKLt1FLFYMbCgS5JgRKTCuEhig1b6DFP3D4QpHmsNoCkx13zDmEFbsd23VasiHXH8pH2qkrXrc9q8CKse/sx5bi1VxLVuJRDzEXVjvjwQ+PIKvACiLg5t6e8xM8vdu/fjiLl7857dQMbuwRio8f6eR2t+Tb9Gw1AbvbKw0jolUAxhf/raXcsydtoy0cocyeUAhgk5vvoorJoDVQGqlYqg7OiD+u4sCQqGQysMWD+pBanc9qocGmNlkFftmfr4k4RrzxB9YfLL02XkPxFGbg8c9dVzJyh23HC5Dw2l6n408hoFmQ+lz4ZNNFZ1BQRU3p8UUn8GvxtuVjI1pjXL8wz0Z0oa1SlWbBwCvfni7ng+jXPhBfzugGo951NOPpHDOfyjYrKir6eBcfRxDRepQvrHNRzQJUuUbLluUBN+ZCTyLaiNJ8nFTFte3L/wP1Yg4SJYNKp7hfxrh6CaGkRqIa/rMqw+OW3vKdORj+f/ucYdAGnSPf4M17ozQd67brzFVMTD6suu/PDLz3ayZGvbUfZ3MdQ8qoV7BwahcM7qROPkcvmvDiV6fLkcKJLBPueP+gs05DbGQwXrurg2qYNjPw1qpSR+DJLDPGvrPfeU4FANw3sAXWP9/bY63E5TuzF2noguGKorwNR2xABwCJxTUI+pVR9V8lIrXaBefhueBJlJYh6uKzUcWVlkpSSH9n5ptcLjdpiXHHYuelzSXCk3K6a9OG3Tp8wKmiGvcew5sYENXCqFraa/vxAjyz7BTemhBZzi+w8/RV/HvlOazYneNUj5sG6rEksYszRfrGHqH4cY96qc1V+/Iw8J978MzoNrg9plm5CL6sAit+3JOLD9ZdwJ6zpX7q0AAdlj3WDdd1DUHOFRsWbr6k+pw5azOxYncOYjoEISPPgvRTV51k1yrEgKXTu8KoVzQd0vLmqnNYvisbYYH6cr8DADNHRuCNeyI9mjIM/uLFr0/9BJCWqMC/ENFfXHxlZ+bHAMwHMO8afBFQFKWlht2M/sX/dgEIVxTl78w8HaXh0muY+Q4AV93qnxZh+LtRZ5sEcDM531VMBsFuR7UB1r1m+BXBcXBGteC+gS005eEnrz+PX/bnYWT3UAh2pAWnn75SLgmnU0t/fDOzW7lioc+OaaOJEADgdLYZTy45gSeXnECrEAOC/XUotAhkutifjwjzw/LHuzsTlcb3b4anl55Ujbwsec7pCiHbAQYFS6d3dYZpay0rXzGykAj46/j26uXlGGv9mxVMttsx7hpOpDIXpy2XRAyqlb6qDk3dQETb4YhnaMfMZZlzBTPfU2JSuNWL9s7om8sQf5fTXRX2tMxYtwH0lJhmBbsuRlFVTB7S0q19WxHHLpow/7cLWPD7BaSdKk8GN/duit9e6F2pcvDgTk1wx4DmXrfrwmUrjl00uSSDuKhgrH+uV7msxVYhBtweU7X1xk9PWJLYtVwkY/eIAI+7CK6gUwjv399RS63JfUaj8S6a8IcFbk490sKfzHxDGTKAEEKNEDxuGQkhtOYgGQB0LOvEJKJkZr6rrH/B46hKy4x9H47sKAm3PkNkI4k8e9cU9Wq73iCqhRHP3tymyvf7GxS8fnckvpnZrdIx8SWYOykanVte+6FeRMCMG1rjl2d7ooOLRKd/3tEBQUbF6/YvnNKlUrCQXiGvjoxrHqzHilnd8chw1dOvj9r1yhh6eH1eCTnA++LE3xcfw1axdNk1EQKqVrqgiJmnCiGmV/x9zz2RRILsYjJksJJ7LZLopOpFNuXn6n7u8ze3xegKx7xrwbAuIdj2Sh/MuinCY0x/aIAOq57uWe6gWG8R2dyIH2b1wFv3RrnVaDo0N+LdiR015xeUTGJ3pdi0Hm0f0yEIm1/qgxvUD405y4p9dNCjm8pWjBHM/B+NYrAw81+Y+Xa4zn69VkLYh9LCq1qwjZkHAPjQ9dqlgtQZ8ccZ/Dc59d2sgKyuPvrP2HQIwPHqfK6fnvDF9K64b2ALTdf3aReILxK7YvXTPd0eLlIRbcL8sOrpnpg+orVX1ZrbhPnhzQmR2JXUT9OK/cDgcLw1IUp1l2Bcv6ZI+2s/DOvivtrRyB6hHld8nUKYPqI1fn2ul0uNpQIuEjAqYOp2VzkJcwCsULl/ZfFJSv+F+50CdyGWR4joE2Z+T3VRYp6iQWM5w8wPM/MQeAh00tbLSazEt05fyYQxkgIqdgb9b9r0AaqEaZo3eA6IZtREG37Zn4cFv1/Emv15zqKoRED31gG4rlso7o1vjoROTa7pGSezzPh8y0Ws3p+PPWcKy9U/9NMTercNRFxUMG7r3wwjuoVoinisiPRTV/Hmqgys3JPr/P3wJgaM6R2Gade10lTOzLF8A2+vPof3fz3vLAkf3sSA8f2bYeYNrZyl09U0A1J4tHHqVk/HFBgVRUli5pkASgScS0Q/CiFmA5q2nEcR0UoAu4hokxDidziCiM57Kb42iqL8X7FPoEStywGwgZkXA1iuQdvQvh828P1tze0G/Q7Stu/ZmDSESanTY1Vr7hfNS7iRCL/UdHtyrtpgtgo0DzZc00nLarhssiP3qg2hAboqV2byNKHP51vQxF+HJv7XVnYqq8AKLiYEL3r1MOswOmDK5lNa3RoAogEUFa/U3oSrBxXPwyvVJD4DgJZwRCd6fUyjVyNm4Lz0foJ4M+Rp0WVGr+iz47H4feqaBMicknC0eOBI+C722fXKmAo+g0YDr9y726cP2E2EmXLMOFEYfOHKQU3MS2AGLZQi82n8aIRlWGMlA68JAQBSp8V+QiSdjMXYtT7pBu3qoRCfwHUYqUQdu4JA/Loxc8ttlJiW35gFoVTlptRpcf9LoNnSgcBbvbk84LGtJwGslfPPp5BLTHf4T9v6IiVJslaqemPqtJinAHzcqPlA0Bpv75HRnz6lF6wVNls/4/TNy6UwrpEQQMQMTgRxY02VNgtir0OSAxK3bQSwWg69uu07YnrReH7LqMCZqWekOKqDEACkJcZZO4Ydvw/AR41QduvSEuMKqyR0RbwMzymtEjWHDcRigHH65telieBina8e1YspNnnn80T82rWSTP2RHD24Y9qAKu8aFM0b8jkRPyCHYK0hkxjPGKdvWSJFUUMaQlnzIW36gNcF4U9wc6psA0OhUVf43bX8gL+eZ8GRjipRs7jCwD+MZtFdkkFtaQhlEPNRerjOJj4A090NV2r83o5pcbOu9WcscxNihIINKA17lahGPwHAyVah/KvJY5svSnHUESGUIH5e2r1MeB9Ai4Y20Mhm75I6c2C1OKMs8wfFCqH7FuD2cjhWCwoAThEK/zdw6japgfkKITi1BSu/BGA6qrFiUB3j6R2Jse9U5w/y7EEhZn/dP8E8DYBRDssqIYMI7/sZjHPL1C2Q8CVCcBLDgvQ2Ohu/DGAqtNWh90UIAv0rdVrM30BUIzsEBXOHtDToxNNgegIyX0RTnwBYS0CKHyzfUWKaVYqkHhCCkxg+TI/U2XkGgAdRXAe+niBdKHgufWpsrUQZXpk/qJWelUlg/jNA/eQwrdwfBF5qV3ixNAvqMSGUIDZ5h4FYdwtDTCHCWAA6H5SNANGvCnju9qkDvqsprUDVYZEytJcQ4gEiTEBp/fxGpwkwYYfC/D0zL/Ofvu2InLoNiBAqkEMLAKMJNJaA0ezI5a4rWAFsBrCSbPYl1eU4rC6YPhgWDZ19FAg3MWMkAQ25InYmA+vA9JPNT7eqySO/X5LTtREQQjkksTKw9c4BrIihDAwA0wAA3VHhlOpqfPlcJtoB5lSwsl1nMa/bNmvw5frQcbzsHp01JyNGkBhE4FgGxQLoWVOyqmHYARwipu0C+I1g3yi1AEkILpHw9uYAW3BAb8H2KAAdFCgdGBwFoBWAIICDCBTGQDAAK5UpKc2OElJZALJAnE2sZAiIYyT4qE7vd3Tb1H4Nyv7ktxMCigKpv6IgBkB3MHcG0AVAJLSdIVgbOA/wARAdAmivENgZQObdxedgSkhCkKhxokgaoTe3M0fBhs4g7khASwaFw2GetQQQDke8SPg1jInLAAqYcI6YzoPFWVLoggDOklDOk8521k8fcFpuCUpCkKhP5PHxCH8U2QLgZyezRRcGAEQikPR2IwAw601soyIbmwuDyGiGruiK3O5rOPh/4Fs6GkA7W/cAAAAldEVYdGRhdGU6Y3JlYXRlADIwMjQtMDctMDdUMDk6MzE6NTcrMDA6MDCbCLHxAAAAJXRFWHRkYXRlOm1vZGlmeQAyMDI0LTA3LTA3VDA5OjMxOjU3KzAwOjAw6lUJTQAAAABJRU5ErkJggg==;" parent="p7iLGZyrW0UDiJgstaNO-1" vertex="1">
          <mxGeometry x="95" y="287.46" width="60" height="32.54" as="geometry" />
        </mxCell>
        <mxCell id="p7iLGZyrW0UDiJgstaNO-10" value="" style="shape=image;verticalLabelPosition=bottom;labelBackgroundColor=default;verticalAlign=top;aspect=fixed;imageAspect=0;image=data:image/png,iVBORw0KGgoAAAANSUhEUgAAAqsAAAMgCAMAAAAzxdtsAAAACXBIWXMAAAsTAAALEwEAmpwYAAAAhFBMVEVHcEydnZ1PT09NTU1OTk7zdiXzdiWEX0pNTU3Ndj9XV1dPT09OTk5PT09OTk7WczXxdyhWV1dNTU3ydiXzdiXzdiXzdiXzdiXzdiV1dXbzdiXzdiXzdiWZmZqdnZ2Ojo5xcXJ1dXadnZ1gYWHzdyZOTk6enp52dndNTU3zdiVhYmJgYWFcZG3xAAAAJHRSTlMA/EWl/vv+BPoCGmHEdJERKDDhQ1tz6Yyy+qDYxVOiga3W0t6uzrWOAAAgAElEQVR42uydDVPiPBSFO3VKJigWhlIoZYcydIYJ/f//781NUkBfP5AkbVPOWdcVRVzr48m5Nx9EEQTdLcbVP9N4VlWHQ1GciuJwqKr9YqrezxkuETQEcQKVL/aHk1Rh/qq35RvFYb9QNOM6Qb1bKr36V7V0FkVLrLlBL9WiRRqC+iR1URkyT1/JwLtPCVdcMKiv0V/+jQ8XIL9E9fLRagpYoR5R1aReI+q3yBaGVuRWqBdSp4efLPULh60QBKBeUK1OvxvqR1qL0z9YK9Q5qYvib6Qab63grFDHqO4fIpW0wPWDukT18HdUL8DuYa1QZ6hOi8dJ1TkAoRXqBNXFo6baAnuAs0IhoGpghbNCw0cVzgqFgmphYIUgv2WVvatqXitcTcijZMYsXKCqHmKP6wn51MGJq2pcY9RXkL8EsHeFqoKVob6CPNZV7oT6CvKowp2tKlhnSAGQH1VOUSUhBUBeegBTt5wWaFxBg+8B3GiBFAC5t9XYOagor6BwbBVNVsiDrf7zgSqMFQrGVimxohUAOZTjaQCsYYE8slp5slXqsUKQS3kCVf4GvKK6glxXVoUfVlFdQYFEgNMpxQWGAogACAGQ4wgQ+7NV6gSgawU5Y9VnBDgVuMKQOx18snqawlihAOLqSR10icAKOeoCTL1GgNMerEKu4uqrX1ZRXEHOWN37ZRWzAVAYbQApXGMojDbA6YQIAIXCKppWkKtGgF9SwSrkTn5JLbA3AHLIql9nxc5rKBxfBatQAKwW8FUopAyAvAq5EfoAUCjy3V9FAoDciGOOFQpEvrcFYO0K5I5VrAmEQmF1gbXWUCBKsYcFCqhpVaBlBT15cVVgzzUUSHFFpRUiAORI3GdgxRlBkFv5nLkCqZDLEOBtJytmAgY1gn6l0ELAFBFgpGgypV+YvPuOIw8B6Fd1T6im7usxlKVXsa/vw9kPD9B/CPjn61hrTLB2CCkR9uE96XyZZav1drMryzxPEnGriXqVJHle7nab7XqVLZfzlH+mdmjM8sjHGewF1ll3B+n1JgG63u7KfCJqwrGWmkzkK/3mJ03oXvIf+iC9iESiu5XcztkwkfVUXaGy6oDSC0NsvlxJRFs8FXnSNi+akPTrVurWh7uYz6vJdROCdjm/RXYAxHJfG1mw1aoLTCWkm11SG2usJ7dwKtW/S96pBVhLGfGEnDm5RbZ/YL0YK9kqEoAfTNtAmq03eTvST24JrW1kuG2ZJZ8VdblZLdNLidYfsNzPblbYqvMf1CWZzlfbshZ6xDaMCktEvzNbhawOv0m5zeZXh+3JWJ0vCujzCS5Nt5CNklM+z7blR0qtnfROlzXEXoHtiVfHPdaCpld5H5h+pnYcnOpLmS7X5XXEV4j6g/Rzw8AQK3SU3a2XrB9enU9e9TFl1XLJpos4jheL6Zf4huqn82yTC/LTSTvki7praWJ1jJ0og0174NVxedVDv0r9RFn8fmyac3OWaprm+DKbXj4WMqerTaL8VGPalZn+Cqz8L+UXXrvE1WEK6D4B0M90OjsqSD+oOb8swqTVDPxpRpxKPAeA6ae6SyUC+TuUb3Ue4B3xyiPmsskad0oHfa2YDPVsDPWsXi7kzlhotJrCcLnO65ZT4bOCeoxXHWGVv5breXf2SjtaHbkq7V7t+EcbHw2m5+ajt5qb7wHRakb++WqnZu7bUr8eotoegZqf3WSsI1x59Bpku0pen4UZ/JuvMoD50CwMWM04Ol/n13w6UE4/8aoWIJSreUf17D7AukpelffmBsrzF7gqHaehgLrcJrUa+BP3DX6/vFI/K9dpwHN7mw63ssyshUa1Swebkql+T6qhtRm8tbagbqjin5j2aUjS5Ra5a7JddhAGKieu2mELgMW/knqNAi/DhVX/XLNNrUb+STCG+tld1W9ZF7hyFQOKgFCNZneh2tJ6HCaserzUjhpCQr2jmyXDQLKde8Z1ZgGr/MSqU1T5e/NVQfWDtbLBwapA5fOtMI4aMqi34ZXcVWdXf9E1fhhW+Wn7bl31/S5L/QArHxasanVdKqv+sYB66660UaZcpd7MlUfp4SFai4KmADp11Vlz/iuszZBigDacrFTFVKAZ9ce5WN143XmLrix6pB1ApB46hYBF8d9QNR2B46As9TL216MC9ROuic4C3Aesi78eHkh3fu3UsVg0fQRV+ed9OCl1letqSowQ1Da6Ch1dd5mf5Kr7AffTSqZasajjBavHa5//b7D2v2FBW+qGVvUlw5vo91Fp0VbFtZfkKn+WaWVa+3d56mHRcQzk0ewBVPWKgfMQeqkqpY7ZUj9VWrStQCdX7oHWaWUs8zdLPR3iKOp6DeD0/m7V/yLre5+7Fpkq/GnZ9DhD6veLXslc8xWPnNsa0Z/uC41j8Q2n6v1VLwtEj4+4apsCejttWwU2avqPtZz6pdCi5KqmCNzTyqO4arEsPmGqbx9eWQ+kmh7AY5Kf99ZjTM1oA+roU+r3TVf53aso4Di4Eq2Ea3GL6JXZonpNo54OlzuezxawSmNl/ZC6SlQvtX46UG/MlWYIMg9lltlIEe+rwwdbPVT/9EDaR0nNosWjadUgXvVCqoqpT1JP/RYFkpWXMovpQzppg+hCbRA1u8Gi3rbgs5ezhagX0PH/XM2kUts/mUyeGNSbrsBEiLWX+QF9yoYClpsDYvo6d0OzamGrZgtWlwOC6aaamFpDylxlmbVmXmazostBtKzvY6pY9Pp4ZdX9TKsidQdSv6K13qa+aB3IRHr0ZuWpKgR0VV1pUmlLCkj90luJVjZiWs+2EeB87uZcGLIM6akTAVK/Ca51LbZstLTqLoAlqucuzoen2jPd1Bj9f/bWWqx5NM5DJVk0s2ZVfno3pG4VqTVI/cVb19EoaWXRi62p0nRA6n/en6t+Kki9y1tXo6SVHx34queVgfTYK5D6B28VSRZF4zsK/ezCV30WV2reny4/cupfaC2XY2tgceagtKKTLXyxSpd7maOi+mMSoBWuu/mogoDZvGKtd18XhUqqHUb/P9OqFvSK7Zhiq2TVBapN5eeS0IOuaS2VqEHqw0UWHwurDtqrjSdWafhf0cZUmOrjDax8ORZrVRngPMwMIB9xXgoBUi2LrE06Dlqd5FW19Zp5GP63INWa1hEFgYH2AWi9ZEbDP4p/F9Y6liDgxFcdP6WBHv7Rp3JWZIkNH4G18uPZ3ljdzltxXf1j+HfXba2FyIKHldkuX9W+ytya6jIRavgHqg47AmXoUwMO1lm53RhAv/sbmKqXILAOe9bV6nCAi16c/cLKx0FN5WUiizoCeeDWar810F1pRauEYao+OwKBW6ttceUurmpTnYBUf81WEbK1MnVG4BDiKpJqd9YaaM/q8UMCL9tYnaxepbV/QsBUvbevVGoNNQe82XasHLkqmaoAqt4bAoImXVmYISC2PM/KwWIAmqii56JE+d/NzECZBmqt/Ghnq/YHsPLLRBVg6shaw5zGksb68HEWlFZfbL9pOvSvFOipdptaN2HCyh89gLXRDStuiSotqUL53621Sl5DLLEe3xxAbmy7HLAtqkBqp9NY1L0KssTi1UO+Sk81fLQe/2VRhU5VPyXWjoeYA5pHn9/K7ohAtaNKoKjqbWJgGVwOMCnggecNnNmiSuM/TLWfHCD0LFZgOYBHs4dgrezHfxRVPVor5YAAK6zq789zbbcQQK9Uwdb/vnPAJMB+wNv5D7C2qHIbVGmfKur//nNAaP0A+Z99u99ZW1SZRQBgpW70gZjec8AmPFir5nxXO0CvH7BBlaIqJlWH0mqdiJKFFQPkf3fW3JMD1D2orLJBdYXxH80rm8Kcx82vOUCbavNqgaqKqpiqGta8wCo4WNnb+UdrNaQep3a9qhJTVYMLrdsotBxAT832La6G1GZmV1WZriogGVZoDa3TSkfJ6BMDms+4mhXZTfPO7aLqEuP/EGFNRJIG1milinB2wdTk16YxC1ylpzI7U6UjVYHqQEPrMrw1glEUV4rOz876ElOmtbLtragRVQcbWrMA17JILWZH7asqEDTN8T2mp0Rjdo+7U1UV0BgqrAHuyGYaynQRv86k4oUu/DmzC8M8xwLAQXda1RxWeGtaGVNwcq6ePr59hxWqc6xVGX6FVYZ6MAu7yEGLYY65qsHDKn9COYtG/LTu9wm9qlDaAelTw2p6VWgAhACrEPMnhpUOq6jRq0KjNQhUdVsVKITirNnzoroRaKuG5ayr6BlzAGYAwoN18pywqiWAmAEIrdEa8qHCdqjWAqgGBauYiHr7ZLASqpgBCBLW8JZfW2fVHDMAgcaASaAHXz6O6ihcVW25uVFCf5P2RqLfcaMRpHP1HT8PrKG6qjq3wCCZ3IjeJUQtvvk0+REx+fgZV4oDvAq0wfVZYA3KVVs+bzGT+F25FMLcEOpNiaUw95NvKWmIxeWO+hY99OUhk5C4fSJYeQiuasb2pMXpljHJXJLn5W6zXa9XqyxbLufzeZqm36w54yxN5R3my2WWrVbr7WazK/M8UeAafAncD9QOOyuopxZ4Blj5sF3VJFANzsU3FZ4E5ypbSizND+nytJDyjd+eIpJW/N5cAvlKErzMJLuS3MR8DYXtNVcM9tf5SQqswbrqLaPa8uglLzdbxefNd8DNP/yyiJffo9s7t49wiUXErcQ2T8zXlV9/conCw7xYo29dMTUFMKirfwOpMGN8nZSb9X/sneuSqjoQhSkFAo4XVFRK/SlV8P4vOOlOQMEbKJeAa505tWvvmVFMPla6Oxd2OaG5jV7B/P6ezfBVL5a/pgiCcCeh1ZeigwPjkP0BWH2jUFVpUx6OkqPtz8Sor4Z1PXjnQLXXLBm31hXbVRAeooxZhaxrUGCQTbeOGdWzEahevfSikiWCNNzejPQdEPoE2wxaDW6w3UUn5fjp1WSNaMIxwyqtKup/EwBzqs2U+n8fSSdVbPjKRn0DRrYSsysZzkqTVfmXAjbtvx151dVYXfXYbwXA1TV5XQ0lSldZtmQKpI+Y9XXziUCGso6q2PYPLMMajjVkPfS2tJp7NYtM09Q9HcMgCw19IyG9RzaLoFcyKtgrh82j2P5g3Y4T1l0/G1ayQZ/nj1LnfMjj0iFQ+ohYedHSYqOTigkUr304LB/JMsINgz49XqVrVLNFJI5yU40p5fgDo7Q4rSD03IN/dVjlr107AW9rCQZ6yMULVLcdo+rqcZ+n79N9Nuirrh5+e+bniKy2Bx3DqsUKbqdtTLCO7JALwQcBdYeq9lM1RyrtVFwdaUwGkAMbhNpgNa+dwrq3xuSsvrXqDlUdnzKnTrQL1AUMeNCvEBKQs63C4+nKa0fxK2/FPo1oAkt+EKebwqoOT13FaRhkhf2xr7Lw9ScU28PpGr+mnbR4OqYVgh1trrrmUZmf+sX1TSOXOrZRjiDbYxYPdFHPYmcd0QRW1PrMqk6kVHyqxn3LF7+3k12oRGfF8asKB9KWedUTWCNp60PLrkqgcgFV5vuH7a9yWvRXmW/tzrm9pm6KOYFKhdVLm9Uq95IbahSqKr/4+YNCM163h30H0YCeExh8MYCrVW2hmpemyFBVgCoAas6rWvbC9prq/bVtbaaQufPg86sWq1VXUC/n3YqXcYHTJ/Z6dLS9thOLcTFg6JUrtWWlBVR5gsZx1cjvZ1Pl0GN7pQeI59FAG7kWw3ocelOdW8irNKjpJXWO2x/PpGrYa7A7teauvMtm4MWAQ+PVqsxRAWpNXlXwmuHa9MzM0IsBVAJIG82r9K59BpWLqBj5P8e12ViAiwGroRYDOK9qEtU8mdKOKgQA/BRXWpfVaCGLiwH7geZX6nmAjZ2wqgr+tJUv2qKI+j2ulGq5TeLKsEaDzqsaDFK5PBXCURvA1fet4OA0G7ry9Ngg8yu/ubyKSOX61GknrG8f/wpd3XUb0TRBYyu0+STh7fBCVtHURgAGlYNUmplC1t8wruGZzx1opozF+dXgtgn4lmhivkrl/QhS2zIUmkVZHeh0l2aqrkOcv1JLVr9FNUun0j2P/QC1ndCVYgFlrl+HAoNczOp/vw4wj1KjAEFq27GA2O0p0fo6cqWqwrBCVhWsfvWpVeKfSkv1r1s0oPZiAUq0GigL8PzVgJ6I/fUkQJ5PcZTqA9RuzHWlzfWrAVFvFhyO+OTKr0jlxH+FKLVrcz1/W8TiJVeHoRir/9WmFU6o5J+nEFFqH+YaHOmw5C/MdUghqwxWL58Gq9fBP4Cl9tN5Ul+GAlxlHUThSl7ix5VVRWqaqsEf5PTSf1Rz3dJarI9ppSjgPIxPG30WrOrBX2b+yKf6DgV8K4g+p5WrrANYGCCsMP3kE2YJlQpTQWr/ocDqmNHqfli4Mnxk/LBcpUhN0zPCVINCAXHgiusHtOq1rAMoV9VFNRv9Izp3FmGqQbRaOyf9iFaC1fDClW/taq9ZzUb/IxIqE2tY4Z5prVlw5cKV0Udeq4Mran0q5akpk4ow1cg0K9xfFK11jdXw4y329WoA2lMvINXoNEt7ay0XolrA0VxW9YRV7TgVpA6AVpodqBMIMNjGTl/VjACy3B+kDsdb69BqeBRQ4zygLE6NQOpgaHXqeavBUUCtCICmNmSmSPVUkDoYWnduLVpdU49iqRMB6JTqBFIHR2udVS0GRwFVZwF0SrXnddRAYFC00uApaa1YbjV0RkBUnQXQpLqhhcr/4ESzA6soTZ1q65P1jIBh3azWAby/frp4KlMdQOpAaaWzXE9Vl2AZui7gXCUCoJRKDiBHAVIHTWvlcqtaHWhUX+uVgFVSqpRTKqylGnySlV4qzLtyFGDUttZKewE0qU6I5H8MtIpjpUCAogCj9gj41vFtYkVHHsqfQKA6GlpV2PouEKDD2UNzulyXVitMqJ5XIHVMYSsHAq9Talp475pUnHxXWuXsP3W2GP5HFrYe6TSB14GAOuLKN+Waw9cRgJ77pwsGqaMLBN5WBAxads2J1YtxQA//nP2je8cXCOzSy+vHvxuUXr1JrFw+7fiyw/A/2opA9CbHorPZjUivXq9Z0cP/GcX/MdO6ddNX5+1TemXIGpYXiRUfxEULw0DqiAMBHlpfFVtVeiX6v6teJFaq+h/J0R/D/9it1XlhrcbMXjnPbNXl4zccmOpv5FgHFbU+Ta+ivll9vhRQr6iKLCxS/RFrDWhByxNrNWBxID9u5WFipTepwFR/x1p11PqwIEDG2vNp1/LyHkcAnFSlMNUfjFofp1iUXvVat/KfLATQlaoQpvpzUWv0JA4gVp1+L+/hCmtlqqcVTPUHrTV8Egf0vOpaPxroYaVKXhdM9QetVfb6mdcyu4/qVn2614NpAH6GR+oEmFL9WWvdPdwyoDa1ir6uastPmrt/ijwlVSD1d6014JC1hAYtur70NyGwT+m5vvcLVUOg+uO0Uop1B6tEo6czg4QVliMAdTPtA6D687A+igP6nGndl0IAtVIF4z/EccBdPYBKAb3MtN4vWuFHxVD+D1QhycD5bjVLfzsEnMLsqtpS7WL8h/I4oDwvoJaw9GCrxUUrnP/TVgWQCmWwbstLr3oxVr9kq6pUdUD9H7qFRJy4eNWvsZZsVc2qolQFlSixouIkVj8Rq3NTBOCdqghVoQew7gqw9mCsbKuZt6uq6gmkQs+C1muG1YexXu8VtVUlQqgKPaZ1tb/JsDqvsd7WVlVWhVVV0FNY/fNNhtX95BXfKldUQ6yqgl7EAcfrw887XhVws8BKFQACdAj00ll316C1a2M96ceuuqlE1Vkhq4LeOGuYwyoH4u7ODaTtAK5+W9dBAQCqoiBNM1ilw3XHjN5lxbWqM7IqqFI5wNXO2uHOK98KLuo9qVZ1BKpQtdHY3+slrS4fxdYNq5E+eNvlFQAIAKBqsHKaQxbX1VkB2VPXuAaBxapQnQzrnPKsgNvRISxCPc5al1WBKlTHWSO1aVCmV9v2jTU/cV2hCkG14Dnqo4PTc/s2l02vOnyuGgTVhZUj1o62X/P0KqOK8R+qD+shVTvzW59oVfMAQBX6EtYODgzighVQhb6CVa25bnk+QBWsgCr0NazOZd92CHBIHaAKNRAGuJe2y1YIAKBmnLXlp11QZqVWVqPBoa9gPRJIokWQfOt8cYEq1ACsUburrTizoq1VEPQ1rOe0zeyKMqvLAQ0NNQPrpdVFAQ6tV0UEADUBq39qL7uizAqHq0LNOatzaQsn3zo5QBVqzvtEW9kVPXgNG1agRgfqlvay+NZuC1ShppFqZ6BeoXUhMAX9boYFQRAEQRAEQRAEQRAEQRAEQRAEQRAEQRAEQRAEQRAEQRAEQRAEQRAEQRAEQRAEQb8mgYNxoCFgqjidAVfIaE7V+SWrv+km+cOpY5DZnM6I09hO4glYhczVejH3kiSOY8/zErAKGWqrktMkSWybObUTD74KmalZov3UJmBlDABWITNNVbJqM6c2ESsFViFzWY05AMgEViGTWY1vBFYhsApBYBUCqxAEViEIrEJgFYLAKgSBVQisQhBYhSCwCoFVCAKrEARWIbAKQWAVgn6FVfHz58kIcW0D4Wf77MHqszfzucHkH0ZCml1eJl+Mh9Mx3MB+N6w+aJUuGupqJLPZbNWiXxXVqVW+fePs5KfJYjqfb0jz+XT5txavMK5hdg02nHj9I3esqvMBnuorYNaTyeRvMlnnJ2Z93lIVLoz/afa3nG+8hPT3+hVnk3VJk1lX1M3Kn2bVFPD8OuvFnHfUU/fGtA+U/pZ407/Zd7h1rjtfTdZNO5uYLBiYmJqI3i5JNvPFRH2vpcCJXnwy9dTb8XDx9/rHp8V2kH9LFu/7cf13p3XtK50kd5q//7314u0b0+Wvp/mJOrdicJPNYlaZVkGOXNJm+vHtuVyUtfwrXfzfdDm9fsn/y6zayfRv8UyTD27q5YZYobvZ1s3E+MgO2SzXH97Y6+myoOni7p3FkvuI31D6iJe8ZVX+3K2894fQCWtJn4pOWMi/kmnND0Ss2oXbJLbj+fvfWshG9Oz8v0T+jrhr/r8N+w83Qd7RifJVzyNc55NqXeBb86R4N9Nvx+uPfFk23N1rxcmy8FqZfdj8FWtsSg1lM1sPFNvzGlembmpqI2osdV4Gn+0iv5havrGXM26Hur1bClzize2FEanThM6Qsfk942q+WmQ1qcTqouxXXqnFq7HqFV3VS+aVfqvolNNCO9JFLBLVyflJJSU4Eu6EzV+VLhDWOvHuZC8/jCE2dw0XJ/dGUG7bUrfbsfdUdnXPyG9qdUrWnXPYfGfLf03m67qwyii7dJH2vPjW1EmFPqrEarErq7Ja/GCfslp6kXkVdG4JlB+wbCQLeZdy/9rxE8nvEK7JZlLJWjfxXS/G9mcB2ppPpCw2dwmu+y6pIdkcVVkVuqkUMPazlpLfky0Vz2c1AwFfFO8wrzBm+jMZdXhJuSvHxSpVcOxyG4jrd601NYJk0bZf9mmiaJ2LCte5SLxiGEAjwCdVIwoBPLtIvV2uP33FalydVempb29q1VTy48qPvKwbtSaFW/yGVUFvHfPgX7rPxuars/L9urm1iuWDRnjmGPQZKJx/d93+XXcmXjz/KATwSrZK+cHbLmmB1X/2rkVHdRyGVmApDRRG9B8i+f+/8DYJzDS228RJ4Q4dql3tau8CbXpycvw2flO7uFSQJWt/DE1/3dTPKmJ1+u2jf9eUTXaH1elzi1i13deIQQOXnZcYXsExB9ZpjeiN+o+aKgmQQsNbB1dmGj4fq5pN/ZACvXcQaVRrjyJWp98ePE7ZHtkhVsnZMtkZ339y8BrIFa5/fAWTATGa9TsPKjPFv8fYRS0CAuiZPX8i7/8lvBrkostT6nypvGTS6IAxeYzZSTQ4ai3+Pax6EYTlSL07BSYePuXoYnQ9EwHjFhJA0BKvwGrc1Mzwj70zvSNQ/sMeRwVYl7A6oAjVXWI10UH+MLl/30VJFTO+uK2C1Uy7ID3Qwpu7qR9YkACOLfYLsHrlm9o/EASHatjB/b2JNt3XrhisZgmr1wWo7hOryRLiA6sXz7cUqtG3jQuu1oezMo87qiwkoVkgAehaA3WuPh+r3rJhKwXB9R88HDiOvbtH/MiqhX1dClbjj3qGVf/SnQzVXWI13a8PK8dDlYpKjMGXGDiMwRjRxMqBNa4ScTZh3yoBgDtXX8Cr5oiQ6G8IPlT/n4bLIcqh0+ESonUErR6sOJS+XgGr1lvGvQzVP4DVYJ2E7QqJNnjEXO7JGD9EATJYv1ZuX7Cu/NvVuVh91BGAsJkQq5XiVtTR5WApapXH6pFYNiGcOj3ckSYSHDxc+5j1M2fWY9Up4rFqg10lCwBveOyeV2EyjUI8yGF6pgWf/XA9H26Hw+Uah0P1IHi0AlhHvXU1tEqAYKtI3oL04vkA93wo6cphNbIqUaHYX2KsyTxSJkNulbl6tBKwQtnQQitgNaSAIMuVwsfOg91hdaBYvfnTdbZdw1gdr7wut3nE/3QORCE4FSGXiiBbV07ptEooKlCzExxf9zyr8Hf8l4HbQTz16zsFbN2XdnEJVKNpGTDC02htEAwpDQdOOBW5cI+CXu0TLRXctv3s/9obVi3D6iF47PCHc7z66q+nb4owd57ozKWXvTV5hykBmj+yVC7W+LhQElCwacKopesU81etdK1n4zDLJpLqtVuyl0xnbz1Bd6G7LkgZitUz/px+9zC3PyDcOA5+Z46HnfPq9OImIfgdsQvL7/rzgxlmPxju79xLXtgcXcTYFTS4WHn0C5e0JUlAt2eG1boaFp/7lKh6HzsNoVOzfJL7nMg5vv22dgWbVMTq6B6LGJAKIeOwNLf//bBquAY4j98uAG92QAgGysUXRvYuBppcg563rhCZR/KkeWbCzELayor+ILxaWW814tyy8RyXDUXFcOws/hL07lc22Cph9fBt2qI3D50bL1/J/tw7VgOPOphHAk23xpDdrRfc0ZhTAcy6mm7jqsgVPZBsLcJ30mIAACAASURBVCz0eklYrawNvCYZI+EsyWdP2eAPnK0XBldbDa8OD1qN2iMe+cUVYm+J1TSoHqstfs6nbOaUDckTFKye5ib5aNcQQ1JPNS5Wf5T2JDZcBvWtsBodb3OoTl9amI1ydXOLNAbtrBarx++ISoxFnLtO6fR7N6xargEeZSrBVY35FHZz99wQJ1RYTltuXWEw64ofmkqAUgmxHa/2bia5IVbWFV7H+UexLHmT8erZBQkQ/dnHrmuP+/16Xl0K68QQoCm4DdsFQ4cmpa7ShYmB7FzmySrgMBWdg+KjzViNKeOQeD6uCqU787QUEWtYL3L+xTqyANVzV5OmthesgiJaHXIoaaILrP7+fYQvBXfxMw+p3MWSGsxtNQBRAMXR0u+H//40lIRyCUYwGmXf+Rc1bow3xCqKWEVNypqN4S9UEGtnBpp9qshitQTo/r13L+RVG0+SueDpFZnTpJCnYJeGT6RB1HsjgF7pP9kfVsMadJoaTkfBGnNJbHnsSg6SFn22PE9rE6zGRkPQktM4D217brzkfF0X6fwLZlVtwfpOsFoc+0tjOKAqTQEHtS5WKgHKsbIRVo+YRKH9+7LKtzUL5ecDITJWfbpOrXN4N3oVS3MqyKkIlJuXHyNaC7lyqWWxSCyrsXid2rFqfcQKcT1xtoBYf0yzkIZhFBrgR6hdu7qeQ3vhVXQ1laXoSIogzqu3FgwMkp3Xl8HNdwypU7pbYJVsM3RCPYLuNrK7VORVcHW1P3vi1YwjfxlB4JjLdI0uBhrSh0IXayiHq/MgbGNbJYUNhVts7TuyUl3EKmKlXbUjrGJVXWn0GrqifJL7HTsSuyqsxfui7i5Fy4kNsEpMu7oq3DQIk0WdpAFQ1Wpjpxqgjih4pn72i2ghqhd+BS2xLkhoVRHx2oRXk2QGqFGrggi4ZLDKOKWurcK+eBWxx3PFfrWGEuu6zRBjV2myVJHyI14A1dZqxyoV2mKZV+G3pEE7q8Nq3Q/vC6uV+ut+TmFx8pQVYlclxgL5lK4IdgusXhJaxdqcwnk5S37Nr/Q9Ida6VvejAaBSrd7tBZV7f3C9U7pYBQng8u0zNtUAyfFRJwGoYM08OO8cT3qP/VGs6t49+zIsl1RCcVsJR5LUV9SE4tux6ssB5o3OahvHxV69hUAxtJ9jgcT9E7xa27VPuofcAdnTuive6U9iGFRr3A2xmn4B6N/Vz/kAhanmIlabJMBOeLVlvwrNey9rr+CqdbFyCTD9YPdCXrXEtKuVqzHdPKVnq8FqpVWxJ6xCg4PZMgHqVl+B5a7SvHGbSgCfenhsoMUKvZp62rA6z+nsUl4d108TQN5Rwf5xrDbsV0Z6ecOeWVfrpgqXAMqjsBWrLDTcO1e5VumN4NpzC1gFTX3aTrEaTBVb+/w35EOTzPpdQ9qRLGdkXNJeWFietrIRVsnnw9Y2FRfZ16v8LPJqk2m1F6y27FegdVe5DCJmXWVMuzTeoHawtWOV+DrqPUepVl8NvslYPfx1rII+aWiuQAenqr7noy5WQ+NMAnifl3klrzKXGbhxeZLb2nUeqY12VmG1IW9lR7x6a0iIuJK6/yzvGZIZuFo9zR0HpY32tsMqi3dU9ssExUJJerUuBLEvrEJlJEBGQq5u37LMwHUXK/EC6Aq127EqjB522NddqVyC9cR0hlWlTt+rz+rUwKuH0jZTi7GrlbSp2HcdKxtgbIPVG13mjS7UYtV9sNqkgzjtFETBWLugRXgblsGhdtw0Y/XMmhttdK3n+gq8OjQNF98Fr7ZpdkMrBHP7n3SFyJQvjekcR/3Gasbq9Um8qsZqQ571bni1RQN0dAZRwVllWaXfkiuCjV7Rpa1sg9XjM7FqNbz6wWorVsnUCpdVlHzRlnSDYS7J5qI8PVaHhlEZGawOOl69frDaiNWRAs9lsXpzUOhiTQMHoEtb2cZnNTxPr36w+tuxKlhXcuxMkgDqc7AZq+PzeHX8YPU/YzXrVeLWlexipVqxZtpgM1bt6OBJWF1xmH6w+kuwylupLTUWSCVA1RTXZl7tP1j9yxpAGCQoeGRo1KCgY9krsLo8G0t5ffTqf8dqAfnd+5lnXKxUAmBVeXwzVoH5OaDf5vpg9eU+K2UsQLSuQFy3tEAGqrzhzVjFZ/Eq4gerL8aqS7+vqNIwrsB6T/XwgPP6UXXayiZYNcg6IAy3wzbX7aNXX4pVI+UDmCK6glUXK13bbMXrc7D6hUK3jm2u1bYrvxir6uPtd2BVSJkr2nYsdCnl+6cSoLJ+oRWrrKdEuI2Nrg9WdViFtjyrG8sJxKIRjjfW/jfVuXQAa20/xzas2u6L5eZgG2aKOeA3Y9X+J6y28eq5YgEk64q6WOlQclfd7mRzvXr841jF45vmr15pvRW4W8G2E8dVpGuQ9uet7GXYzKtCHtnw13lVn+v2G7BqWWpHmIxb9HWkZUvaKIA+HtaWG23us2rNz383rJ5d31qgsG29Vf0ikFBAcRc9FrtKe0WGP05iVpUycYvcFdiwVc8Hq611rNW9ZwSXVenMKsG6mouAxKlV33t0i5xAcg61+aPfDasHmhOpP+G27A9wqJ+XoC0NXLOuZotAvQBQffK21wXoGiDsD6usFaRXeXoLfCNevdRj9cpdVmfNkLQFEUCalTa0M27GatqJMlN/ukOs3lhTDdAecbyLxH/pEcSypkGhKIh1lXTWAky8ANVTHZqxyo+vFxhXvwirLBiiLySS2knW9V+tbhXcsVb+KnOdDRL8sctiiKF1nMQ2epV24YTWZj1vhdXOsELlGnJjScAv72kptrQsbjpopKEVEUXk0KhMW1nEqurLfGEAbCWa3g+r3GmnJjdp+EFtX+uG3t6885oqHZo6Z38MMzpOoqFF7MZ9AhvsvPfEKnPaad8Gp7TX92C3bMKqriIqwkhw+AsTpa6d+V9YpZ9vnN3zdlgdXN/asZB9RcNsi7Hy6WkHH9RuuTQz8CECyEaElpQFvqlBGa01wlCupm7o76VXeTMPZbibU1phU5KFmUGVPEHDpMroktyx0lAJUNFthWwobLFjDRM61UOW3hKrLCFAObiHU1qh5hXnseqzvH4YKzWRQdnLn+y4yMu2M/Np79jUzZh4aiMtXlQ3ySrEmzbP22GVNUr05GYbKK1U1UlYrR7GRtupqyUAbYv9AHsSJZj+DRpfETb5XJgImFYenhu7+k16lY3O0U0Yi7QKDKuHKqxCcF9uQKvqomgaSn0EhZJpkG1vifOqvsaQpwT0T05g+U1YnQQZH19UbOFYvtVbsFrV0CTcQzqSHfSRYkuGR93tvPmhgW3qUGhKqfQPCpM54/hi+yewyje70sIZXO+2wypiTYPvgQy5BqzJwk0PCAwmfxLWhJa4moTVCm+tdzGmPY2mt/VMFfCrsMra7CusXf9pYLTagNUAMx1P+Hsgjgh/T3p2pnNW/PrNvSTYOCtHWGqtf5D5gf1XQHFO+dtj9cQO8eKxDSHzE3iXpSIft4xV1E/j+wqvi4i4GgJMxWDYsXObDZrHkB4a/YN3YnUgSFazf6xSD6JGsBsvFHthck0Dr4YfV/CEiW8PXYPDSrauptN1nDuysHFUnByMVhpXArECxnwrs3+sSm3oscgcN53tRag2YTVY28U8YYNY5eZGna6coJpg1Q0zcVFhr7HLkddeU7vFtyZEkW/+AFZvLO4UBHvuw7b7ClCFrbGqONRMhCrxAVSa63HXJtYVzolwA7c7m/uiFgH310UQ71035jnegN+lAbgIiIL9kEHJtGgTo4FnQkhFaxNWA0+4/lRULh1yEcibqwx+sTHt4GcLA2yQDbhyhFVkQBzpQRLBOskedfdi82ZY5d3HHmA9Lz68R8LVgyK8yvCGcTOshqVHv1VyxN6Z0b98pBLC1a5ikhmYbsHKJlar8YbwG/pOrsDeF4SnvnRKin5DXjVMBITYncOr/ET+P91G9xAAwQjX52QsYzUy69Kvz+7i4Jnd0fOwmv+iq13uHQ3b5DW7VK/UpOv4u3RsRGowScdTMVrD/3a6fr0ZVo1wqkRmdeONnhTGeE49DfhNaP4f/Uh5tQar4N8cfCPOjYdFtPp7MkdkAuAfe9e25CgOQylwAgRCGtK3mvQjVJn//8GxLZMG24SbDaEj1W7v7NQMGPn4WJZkSaA8mK/GSMttWFQeWNsJUqpdG464da195sPtmedrEfWIISp6ZmN2dvgDYZLSUdvfM2HVlNUHGGRqTP3m+36ryfnsI+8o4TZd5Qeqa3IWVoWBSJtDN1sMaW7SPfzGmUp0K8YqjRYo8dzT6oRYKR4lrrir+ZPN0YCpN5b/Dr6noBpYwXJiu1H4AK73Z184UJmWzzvDKi8uZiBWsNjZYwK/tVOckoBTKD9U0bt/K1WugMy0AcQjmzmQb5drRayU+He9nDIxiMo08UvqDF2o0bFhLwNfS0oj/HhKU7VYb54/3L8jbUcB1uCGbAB/Ne4rWxn6WcFnOxpZTNkFVmk02x0ikj+oKZEk4tRFoyINmKSFmLSoBRJhJ6kLZSavsmelVMxdYwfItaLO45nrmo+MGN0XS/SYqqcfqzebIOmAahBjQy+yJD8xyX3/HKSP2/OKqIIOVnHKiDh7BL75L5/YswvAWyRMc7oRVmfzKux92qYi0UqiTnJoFHE0kV9DQexgSu+HaNTmYqhpeWl7uuVaYcovgnPi53nuJ2weKZCCYar4YM5LN2li1MPM2oBGc4vqnB2J/zYNAPjvpoNeVtOMia4qgl6KNEt8pjPf9xM/Sc4ZYxr5bDajlM/hqHD2s2HVFA1pLXv62+9D/E/HpgWbJ7OBVfY0Ppet4L5g2SiSE8rfzZUNuqYGAxucB0vd9Yag8dzagAZzy6BormOu3Ao+LooGaTwWPhCTvaKp7P4DmEYQarN1jSwh8VRYDRWMjBQKpR20W2+zeZXZmomAXHdfo7BOCGnWi+mwLnyh2eJN+qynji9NstbPsdSoS7EUBbCGTY5+sMqAm+SWTlchwTQT+8k4wKpe/GTSBXlI7pvYl4422YNqthuZd4dF1L1jFl1FTcxD5DRWvfEDC6zqmXPH7V3Bi8HhNKTa4ZSuGMyAfn4RWzyoDMQUCx/TAcwBr+qFeqY9MqCPvtykCw6cVKRbqeV0x7za1NuCexo5WCdTPED1bAGq2v60tHiRyRUw+HkjbA5G0dwb0OcQHjWFYg1ugVW9QuS0sHhaTQGrcNuDASB6m3d83GOckf19WCB6O3HZQFTWAlb12BWdlWP4+AV0EKvx8JPYnJvcAROW+HAwfBWsTiwnL1OWKkrGExk3D0NphXW+Z8wy6cGqdPMb3RLVg5BsVdi6KK/eibVciicO+Q42ALBR+YdyWY+eM4MMG2sOsGroLj/54pkX9JrrldHt7LePZnTiMnnU34qfG8hItAqnIqWZpQROwyGVLqkKYEJrMbiDjbvcwpPdogVo5RtIsb4NYMRqMXGWRi5TAuHX4tI9kUx89cNebJeCjiN5fuSKIHEhtLRHn5ff4BswNHmMlDz8uLHFY2HOSEQrMhWtRDi3BrMc3GCVLsSqJLQhtEqk0m4GWteHsBSrzRQMcWsT27JY2VG7FUWsV46UO5jB4dA2JPOx2eY8kYhM5FYiNMfPeMVpA6zqRVBnWVmBxAjt+UZKBDrSsEtk/DDUakg/IoHkIa/CFIj8lb4JFW7WiK+aLPZsYjVRsTqxDs0YZo2TR2zIM/xGx4rZ2HweN+3EE4e2IiIiDzTKTsP6OPHGyW1ZjtXFhVQbC6gQoU3DYVX4OCOBVG3LLapuQ3q6DKuQnlpA4Fr3/VMZTOO/ykKrV4203IZqfiXrR3JJG1Ig+hLkkblkSiqqnzbh74fsSoBPuU7ZHGf52DCRmsy2EKux4Y7kzLZyIudPBv4pXKoWbMk/kg81OHlqa+S46PajH3E0GOodHMNIIDAIQwHqBloQPjKaJp71S3FdlyUREQrrV5lgKdLWt0G4gzRKnhIgF8nvgQw/A70SPSgmYSoSLKoCgBqO6lcbKbIUqxdD4f9Z1474KE48a4xWClcKFXJ0xPpQtUb24UJelSO5nGEkpMvaInCQJqF1pEJbV+K+El98x1dbzY0/N01OkydNcAy9Pw6266ilOCKTW4oMZid03iCzF/16Waps7l0OrsdzGt1JEr6RFpBrFsY9f0eZiqVYbW5aJAHkIso0JEEL6ZnxQhw72Jy7YQiHpaPFxVM/KH5zq0T6ZRok+Zynwaxl6X3GOheL4HdbD98IqPdoiHqUnN8tSmY050kWBGmaBkF29nPAYN+lkrEN6adg9b4Iwtw/Z0LO5yQ/NV51B3rstroidsOrfWr2E5635/v5KVzwaZJDeJJqWhTMKI0KLuwnm0E+gaG3NU6Np9eRl0kf6TH+ZUdGYLHtjxyJVbEMumQdN8NzId3iZmT5TethuCrfEi7QMsd4/Pu4mM+cZ+vh1iZeazBhIYgdyqsj8UiqdINVA2+7XfKdRsFrtDuz+2Wmx8RO1TbD06Kd/bxnlmlYXUsirbCl74UeitVTZarV916ju/zfwqpakH8dWn09sBZ6qrXrdjJ/DauyQHa3Bh3Sqv2Z14ILK/Q//HM2QPcyFEVadTLvuVZ8hjhvKffHsArFd2g3xxpp1b0bgJAnP1o9HVZjXtSsHZxEWnXnBqBazf8YsTpFlKrD5Om3pp2KcvFieoOnV8cq3OQlHWvVdU++VzVXu3medFFdpxfEKr/eSIlSmMB1r9PXxGqme6yKpx/0E2E15KmAnYIos8tjowyIUtmGPL3H6rmwGoMG26UO+eEUbVUnzpZuermVyravg1VDi4w9rPZ9Srqw0edrYzUUQYBOTiX6q9zRaqXQ6g6c2E+D1ZhfiCTdgm8ctxgGcGKtKgVuyR5I4VmwGkqoksnN6FBmOAEUqPINLPHQXh1vqxKl55GofYY+AEcWAHVYKOQvYzWEXUlv6JqgBWBf1b7aappaKhj+GrwKhSGp2o4WI1YOoJqZOpIXuxj75lhl70oMPbKq6NnzfnaJ1EsqanUSZQPbwxF2e6yaKyOK3sPoA7CtaShUqvqrdrKBbY1VURBSW+nQLTJDeNkFqpcUesV4spuUi22xyl+TGQruC6iisWpJyc3d2XMB/cioWth2J7HBLbHKX5JQUwFzCsYqWgD2dC3aacreb1W1y9jgZlgVNU14DUJDTUkBVUywtiKXS87bFN475xmaPFanfah6S17l1hMxFJm10CQTpdGxqIImS20SU+e8/TixN8PqKeM19g2dXkSglekPA1Y2JOcXqWSpV2Isjr6fMPYmWA15KWRhPekKFFVLbfTIQhGqplVPh0d5gt1RvGUjrEKLF3MjU4SqTYl621BCx4kdOQa3sgGiihi7rosmWQhVe1KoFdY6DUmsdM7721g1FKm7V+nltiqKNXdLn6IFqaa7Or9uhVWfGnr3Qj/XHBFmUTKqd7dvGk4l+3Jhb+YH0I9VoMEIb1hbFa16ddM4T5z/d6XqzbCqVv+UpJpitMqu5EqkhXOEueEUYrXvtWe91xqcShGqVqXdGUg2euJ9fHJvf9vXZlg9tWvUSKRGPkLVgbFFmv5vVPRDojQ7eTuEKmC12zyRrBNjFZ17W02yK7wH6ErP0FsO+r/R1Id593aJ1TmNyJe/tzmgEunpK3IkVRd6Tu+Fq0T/N6/TImb3WK1WwSo0sha7P1NmhE5VZ5zAG2sWaXCGzlrxjgkhbJoRuW8GpBhSbGuicCiNzh6Sqqv5zU+X8Hey9/0x2oYQx6u8NaURNMkuEkTqKpyESpi7OSXCI02CHJHqGKSog6VyoVUR7PZQivJSAh3Pcdmj7MFSjhGoKGhIoaCgoKCgoKD8LSN/l49GQahalHcEK4pdqL5dnUAq9t5/UL0oVln1dnFFf8cvVDCKRah+/jgK84XeR/2OVgCKNflXvznCU+yFdX1FsKJYkq/y5pC0v0tnKwHl1SyAj7r8cJbpE3rXuqwvmEmEYuOkzrAUuyS+zxLBimIDqpz2vh1ClZ+uDvUhRLCiLITqW10enNqTsXcp60P5iQnFKMuh6vBk1ZyuDghWFAtQPdQfTlHET1fHEsGKshiqx7J2HrL/ZHbGoUawoiyzVQ/1P8dQDb13tiTQZkVZAFV25mG7s3NPPXt6XR4RrCjLWPV4KH9WeNcXfxUHa4xgRZkJVUZ3V+fwib1LLV4l/KwYbkWZDlW2MYt9eYXX/Yi3MWYtLwhWlEnYuQJUS9cOq+Z0deW8KpgVE1lQJomE6nENhxXIrTwAWDHrCmUCqcbvEqrs59cqwAm9d+FzALBecRJQxkGVJwFy2PB/6tXMR2FyCLOjrPHCIMo4Vv0qOVTZD0Z13yuBBrKtAKzs5xeCFWUEq37XAFVBq2vZjjIeAG891vU/BCvKEL15t/ogocqI7mfFN39xG1mC9cjfjFEBlEfsFvI0EgEZcba6rgYYZntIYhUWyKH8xKgAyiO8vNXcagTEsF/dVn15Q6wcrOi7QnlsMl4hrgp4OR7q64r7MA+0NsSK7gCUAVP1ow3Vep3wahus/+7EKsH6hUYrihGq3AFQ35mNmQDvqyKlQ6zgu6q/EawoBgPgJt3/0mIUefrbEasYDBsDprKgqEh9K0vpq9qIVuFG6y+xNiesKxqtKB2ovrdMVThYlZ8bjOO7RaylzA74QLCitEzVfzIFsEWr5fvqpmLXYm3AWn4jWFEahMQ3mayyLa0KixWyAsqW0XqsP98QrSh3r+qxy2cbWKsmi/VutL6jPwCFe1XLjqkKToBNaNVArI3RirksyKqe96OYqhuErNrjCWtlMI0dcEG0vjhS3w61sv8Drd42GlII1681sGLEFff/8p5W1cbGcSNaveexaiNilgH6A16ZVOOfWjVVpb/qZ8MF9FEf1NUjI2oH9Ae8Kqlea33/X/k6gFEOpQ5WyGktMZnlNVn1n2n/X/eWlXkRvauugJY/4IZHrBc8VH22s6oUWt04YeTTRKytIxZS62sdqjT/f4tW/20KVdGZxTCyhlp/QqTWFyLVy810qGouWdWbY+HHSKxIra9IqmUPqULe6sfGSNBSWLoGCs9miZFaX4NUf8raTKpbRle7g9QDAl3vFVLrS0D1Q9SQPvYhYbswQGeUhoBAN5uFW62I1j+9/V9uZk/VL63+PMVAP+o+Yr1TK8/BRkPgj3JqLI//dS9jbR4G+JVbz/HqP3tntuOoDoThzAVG9A1IrALSLbWsSPX+Lziusk1IOguEzYby0RmNZusAX//112JzlVbZJCytuxVVrKkGUrxAIJC1E6iGeK62ePFJBZg2FudYezSqtFFFvETVhXqV/byVfO4CjLSq60lZWvdGqnqemZAyAPHq8W+0G+Axq+FLYbW1VllxjrW7nKp9I6p6vqpx6DO/Sq96Z7NgjsVGYEfhv4T+QRVPPaBMXNKoYgCs2MYq0AgwrfvI/lN0dvAOVWcSq5v0Sso3318iAKhiNgJHCf8msRJOBVPaJyjfwGqOEMBT2phW30ml8P86p7K1VZE59bjVt415cYEcYASw68q21WujmgHcnFP1ygG0zn2nZaBiPMhhtDYpN7J8NqrF420qD+cAwMEj+Vr53gV0rQFoY06yfCQV21StfNVRva9X5c4ZPl1kHQarwPABdci0ekhqXAOKjRiEqnSptHrrAt7Ure5tKydZXqZUclD4v86sOPiIo9czLA9pzZlWr0jNAYaGfyOrpZNJtN4iMBBWa1uDjGn1h1Qc7BhMqiObAZ5dTg7B4CuxtBZMqx+kZjj5N+r5utZcvV3DXUBvpIVp9YXUgT71WgMonS2jj3MBtpPF2ro/TTWTgIXTl5UPrQVcpVXdBKutXMFysUp1JXWUCrlaA7iudpQLsJPYTKvzpI59qkq0Sqcb6cM7AvcHCQQARc60OvUw8VHkwXhNdbgLcOsCMryucRdGKWPQzWIzre6QShYNxj9QlCsPXs1XjbSsHa2CBgZjTrMcSaji0lb+xeinCQIy5x9j9ORM1sH1VqgStgIO2NSkknJklerGrLZefEemIMUnV0ibslBb25Rp3Tj4p61SxhE9qj9mFTyZUC5l8NlFdtpKaVbEVmADqYlM6v+ppppyVeqLkWvkB5a118sSnXFlcV09+Mc4SiU+JpWio+Plqr5ljccXru60Fa1AlXJVYP3gX2FC9Wn096VcdVu4+tCydkHkagVYXFeTVAz+pu3/+cOT9GIAj/xbDR+7gL4VAKgTFteVJDWpAaScIqnWrGYeoRrROy8mwWqtAECTsbiuIamNpOAvxTSNoXdYeJVNTrOsd/0BI65cFlgs8UdJNTWqic9Mz1dHfsGaTrKs93lWk4csrgtJapQ1GPsnBn9rVsEvs6rvQvny/Ngx6qrFlcoCjOvcsZ8Sf+VSxTzPyqPKat+yNp/1Wh/nWYhrUCaM62ygUuwvC5jBpfbNaunhiTrRKYKZYDVeAMsCTR53N5rXNFDDvNFVfxAzPSVw70CgoZY1mZ5f3b4kg7xAm0WM62RQT1lrYr8Ucz0ilCZPDyrDHS2z2KB7L2CsK+P6MahpJXU6JWd8PNL9XSuvVgUBzHc3JKHPuE4GFbRJnVNIKAeWmbfHP9r8ar4bYusCjOvHoNZCK+ps7szbJsC9C5gxv7qJNh2uEVcGBpenKPQDIKggZn4oJq+KfIZ1zvzqti5gcG2zmL4S8/qUUwI1xGQKjKLO/0CUJAWeHwAd0cjV/LBqL0C4YlMrYTfwMvLHeSspGM3rUW9Q9WEv4Lu79fkugWHWldS1qNMTy+tDQT2lVPCHxUA1JYB0D8fqz1wMeGIGhHUD7F77gppVggr+S3jUmxJAvgNU7XzgQvepJ69KO4oyPbEduApqoy1qsJSg7qMEcF8MgOXuVdfVwmlXlWxp93pQO2A5TXJKpZbKpe5RbXfyYh0qBgRyUVjttKt2r0Fl7cCheLWcxlldSNkJqlj4vns4svrKVGvMUgAADlBJREFUBqQLFQOe1wagsLwqP7B/YCPreohTkIumUn8KqxDu53Vly1WuHt27G16T0+4FNjIXFyGnoDmlVGqV243nViS7OtUpKkGsBGvX2CI7oPyA8a/dM92jnCp/WhXGoAbr3mkp0729BLKGRYsBD3m16RY0ZRp3AhvtBVMjZnFa6jxqZU5tYTXbGaoRnSK8Kqwm3cLSIglsUeVpZIH1WmEVpTbmdnIqTQV13RuM26vy/Zmq06mBtWG16ZY2BAhsU1tHQJYg8lBM7WdOsroB2YV9Ida/t1gEKHeYAYSL9wTe1gdQYAlYpbCxZ8T2KQ2TvG60mgrNqdzmrirxqXb5xnJ9Mus2sPYMLAGrbnNRlbZI4DaxfUpPSVpW1N3vyqdys/u5px7AX2WNYUtYe/MD2hJIktgbYhWykTOMRn1fHad5hWJqcqhgi6B/jyqesbbTWmBkGlhb3mKTvHYjBDj0AkWrNDY8ucHsHaMq4mdlR2knprD1TTTvr9rtYTiOwNpNEFiJFQGlKA3agvg2314NWo1ovz4RJ5nypYHOn65i6sjtgz11Vh2HtWdiiVganRMoX0Vb52mfWe0ZCdtobj7NP9z/1ThJ87ql5AnoE14pdea27WEfwHtYU7dgvRdZyry0lBVtVd5DexVAje4Ies0fv/7lu99WiKpg3+LUCaAzkX1InbtfCtVw7+/LcRPWPyqrZBZ0gQvbtEppyzxT2IavOQz/rtc8xwhojoQGRCh188F8AiE2d6UvDIB/R6ztDNa/zGqhlRYjGRRNWyG5Ct0kjscFwRDZTDNFZ121TVFI/Y+SHQVpv+DWGf4gVT0Cqn7Aeq1vIbMGIuSWTG2gfS3poBLBomiapm0rtWpcpV70c/Vrbduq3y+KAAzv2ohSX0JaQAOhGQUfbotG9RCTwd7A+hfbHrc0JqKHEG09Cfmjl8joFViR1rJpO2i9f8BoqPDrVhwIVTPOGoBPT+hRKmbg7cH3auk/2/0l6e+172J79Uhl9RfW4y6bVh1oaxDD6jGq4lCoMqz+ogr7r6v+XYlvCRajSjMA0fFQ1e1WVlaPUAW9u/qA726KHBgR5DUGVbHnIcC3sAbAsPqCKr4itz0oqvSqFtzWIhlWL1CVuGHlsC9vDOmQdsGw+tD9kHi+2oGPtKOt2IJhdR/VQOLm6kOfFhriIRdSsGl1H9XsFB38YFt1+aXkcoDrZVU8tpqXgjXj2pXzqCYnPi2cVsotLKdrVVDEjOq10IqOiGF1sgAgoDlwrepBhlXIQLC0Ohj/BRy8VvUA1sqc5cXLNauaM6r3sJZsWh1EFbAAwKg+KgcwrG5lVVJwAeDpRCv7ANeyKkb18ShLIwXD6pBVrbkA8LLhym0Bzqo8Ma2SR1odsaqQMKqvbQCbVieqqhKakEl9PyUIXGndOKsKgK3q8Eor+4Bt43/G8X+YsqbsAzYtVckiZlQHz7I07AM2zP+rw49Vc8fVj/gvM7aqo2CN2AdsEv8lcPwfb1rDhve2rIsqhjIeAPzcB7C0riiqOv/n+P+JtCakqwzrSkkVyDZkVf2Y1gp9AG9uWamomrOoTpoPACn4+IAVOlVSFtz/nwhr1AKdecW0Lhj+UVRLJnV6ioX7BbggsLBTDRKO/3NIa9wCsLQumv5jpYpVdR5plbxhYDmnCgHv/5tXWrnWyqLqj2vlNtYCjSpO/5fouVYsrQul/4zq7NKaBly+mjf8y4bT/4WkVU8IsBGYp1Algab/WVSXmhBomNbZcqoqYlKXg5WarmwEZjGqRcrhf2nXeqoBWFonkIrhn+ZUOP1fnlY2AhNFFaAKWVTXMgLYbOH61aekcva/qhEosTUgeLL1g5RKcPa/Mq1xBagRLK2jSAUq/rOormoEyLZKTrJGkIquSVYxk7pJayAtOMkanvyr8N+iUeXwv4URiE55wEMCoyqqbFQ3TLJyyeXWYaRmXFF1pCTA2vqS1CDjlMqFJCusgX3r6zJVroI/k+oKrZJpfZRRGVJZUx3qZBltZSfQJ1Wq3F9qUtmoukRrXLIT6KOqgj/6VCbVSVojyrK482oSKnUXKPdnUp2kleqt4ujiarupTXaKmFR3s6xTVhzbuJqESso25YzKeVrT1hpXcczgj6PUVcKketEdSCppjKs4XvAXOEsVM6ne0BqWweG6WXixKKm6mco21aM0K2vQChxFXElSMaFSNpW3p/pnXBPsZilx3b1xxSskSQ108GdSPbQCp7zYvbgKW0yFNrPfpby8tAIJNl9RXPeJq479LKlzheObFa37temdA+hclfTgq8Z2ByrFfqhojJoldUIYfkLmmsRqcS2NF9gRrhQpKPY3ecwNqmmcmp98nc/nn29aPz/n81doJS9aT1yxQ1BLPS2wi1RLZ1M69ifsUifnNafw/PP7e/n373LRP5j17/f7/KX/wLq4ZhXsAlcLKoCo01Xv405BPX8TowRnfxlw/xleV9MD/TyzFowZ8BVXHfo7k8qgTiQ1PP8SkcQm/X/9ryP2cvn9+Tqt2GHRriNWuEqNq3+VAd3uF4pTAyrH/gk8kKJ2Ynrphf7+0gQjruc1aTWPNtJmQPiVa+mkHwVVBjWl/RFL6jRSf3SUf4rpH1y/v1btXpsHnNaBT7kWTY3pyF+oZCpaMzfda/T/vnQx//2yuBKtq1Zd6aslZWPklfyA05wGyKkCtckTFFQGdTKpP5d/QyS1T6uuEHzHKx+zEOmSWpxVAc0MOKqvJuOnKioUdRreVAN5fbzONsW/jFgdrafVDwUxeUmSo7yC5lW6A6wwGT9xCq0WVM765xDV5PcDUjsroH48bzAdjLEUn36KdgCsvjqQb9E3TccplfvXbfftOaf6/pRUw6v6i78bfXjTuNC8bg6sMGkU+VNpOWWHOtv60ph+SqqpcV3OGx0OZtzrKUrzNkBcrw5WrC2mGlNAf1rliRaCkGenZ4v/52miejUC39vtErK8qnyr1oagl3KJtSilqhSF/TS2LoU5nQ/V6Pty+TcJVJtkKR8QbXnsYoSOUNezNLBIrLhKrFgQUtzTh3IaNGWm61LM6exWNaTxlKmodq71a+szQrXAIiVJVraFJpbKBP/bO7vdNpUojDIXCYIbiIwTyy4goWikvv8LHubHYEU9PWKY2QNHa1VtIzd2FLryee89AzhnIxn7Yum3s/T78/ZMU/dTA5FVrXUcT5do7Y/wbS0VQVUuxpqQ/e3sckG7fT/Bu+dtSVJbmRpLu7ZyPyJGUzxNoWq/u6n6mayqP8o350oC501zud5nZb+dsUZaL9ys3Nv7C8/YdbPahbf10+0r/LYv9f643a/PLC3Q9Eyq6sMk65+NLZq2u95vj1XaVd1Fxh88ZwmuXXOSfj5uX9dL27h6p8JSKVVjmuperj/et1r9OFWsaS/d9et++/X4NJue7Vv5Uii4j9dHzJ9vn49ft/tXd2nbZ3lRuSjFUrlUjYuX9Zj/fZV19lVaF4xN07aXy6Xrro4v91fXdfOjbdusz/AzffcyOCo2rGqjp+rhZf0h7YtulV2uL/wSk5052U6pWo32olc4Kj+sSqKqf9H6PJcOqxzlv+H+GWMyqlokEXWR9aT3YqpefnE3qaMwpVLVja4mjjBEio9Rq4Syzi89cJQhiqofOqWr9iyYnvdQiEHSUPWycpQhAoMWkJUqAPZSug2rSV31i62cBgcRKoDkqlIFwP5YHVOL+pR1JFhh3xRAS7mqURV2zauG9BXA2l4xt4JwVRuRWPXtVYOscPhYJVhhr6ulWKxqKlY4R6wyCoCdKLlYtacKcsQhCLNkpeRc1fbCQQQrBDGJuqrZyAqh1Wot2Fn5K7EQqxBUAoyiqtruiiIAQksArTVFABy+BGi0sKsUARA+BdBaOlgpAiAgV8VLABOsA67CdlSOXKVghe2x2mp5VzUFK5yjXGXpCoJcHfK4yv4V2IzwAut6CRY2scJGspSrNFewvbVqdA7YFwghrVWeXGUQAAFjAJUlWFsKVtjm6qjzqKoYWsH2kVWOGoABK4S4qnEVzjAHyOYqiwGw0dUJVwFX/95c4SqQq4Cr5CrQWwEws4L/l6usBcApXM2zxqq5IQtsdjXP3hV712v2rsBGV9kTCOeYA9TstYazoPOcG8g5LLA5WbOdG0gRANuHVoys4CyDgByt1QdjANjaXH3kuUYQhx42u5qjuaK1giBZMzRX7FyBoIJVfpWVs1ghLFfrDNdgZyUAgpI1w70tuPIanKIIYLoKO4oALXuPSyZWEMgkfTM2SgAILAJ6LXh/C8WiFYRXAZVsDcBCAIRXrIOsq3RWEOyq4G0u56/DcBXOEKyK9VXYPbaSk5UDDnuDVcnEKtUq7HK1FApWE6uoCjsQWmhVXMMCIqAkqgBmqxChCpC4qMX8BRqWrGA3ydsr5lUQKVkrnV5WKgCI0l6lrQKUu4gVFQDEqgLS6aqYAUA8prTBOnCEIVYVUCQrWBXFKsQdXCXaF6CU2wdAsQrxZO0TDQPoq+AkstprrtNXQVxbo0+u3GyhJVXh+LJyCUtI5KqXVUVsrLjpCiQiqqxmBsCGFUhFrSJd59K2aVNBWwXJpgHFFCla51cYmKtCUllHP8Hf1//bPQCoCmll7dW+aHXPnShVQYBB76pazXNHQhXSU/poDclW/7ypRlWQYtQBZatyUwRFpQqS0VoOW201oprPHmdRURUkbW2crWrLm78tVBmqgvhEwGar0fW/49U5rUymYiqIy2reyPvp2dmrv2jqInXoCwpVyJetRTNOq5JrwLrqdPFUT33Juz9krltnXftBvYbowvOxYRa14t0fcmfrrGFZFXU/TH8oA9Q09M1qNUBuXf0Uqmz7fhw8Y9/XXtASUeFIvpZuNmB+l1bOyrzvz4/TTsERRwNGTY/5gEMCYfwDURYhTHoPCLUAAAAASUVORK5CYII=;" parent="p7iLGZyrW0UDiJgstaNO-1" vertex="1">
          <mxGeometry x="98.5" y="334.97" width="53" height="62.08" as="geometry" />
        </mxCell>
        <mxCell id="p7iLGZyrW0UDiJgstaNO-11" value="Model Training" style="text;html=1;align=center;verticalAlign=middle;whiteSpace=wrap;rounded=0;" parent="p7iLGZyrW0UDiJgstaNO-1" vertex="1">
          <mxGeometry x="95" y="245" width="60" height="30" as="geometry" />
        </mxCell>
        <mxCell id="p7iLGZyrW0UDiJgstaNO-12" value="Model Registry" style="text;html=1;align=center;verticalAlign=middle;whiteSpace=wrap;rounded=0;" parent="p7iLGZyrW0UDiJgstaNO-1" vertex="1">
          <mxGeometry x="205.5" y="245" width="60" height="30" as="geometry" />
        </mxCell>
        <mxCell id="p7iLGZyrW0UDiJgstaNO-13" value="" style="sketch=0;outlineConnect=0;fontColor=#232F3E;gradientColor=none;fillColor=#01A88D;strokeColor=none;dashed=0;verticalLabelPosition=bottom;verticalAlign=top;align=center;html=1;fontSize=12;fontStyle=0;aspect=fixed;pointerEvents=1;shape=mxgraph.aws4.sagemaker_model;" parent="p7iLGZyrW0UDiJgstaNO-1" vertex="1">
          <mxGeometry x="211.5" y="279.73" width="48" height="48" as="geometry" />
        </mxCell>
        <mxCell id="p7iLGZyrW0UDiJgstaNO-14" value="&lt;font style=&quot;font-size: 8px;&quot;&gt;Model Artifact&lt;/font&gt;" style="text;html=1;align=center;verticalAlign=middle;whiteSpace=wrap;rounded=0;" parent="p7iLGZyrW0UDiJgstaNO-1" vertex="1">
          <mxGeometry x="205.5" y="327.73" width="60" height="10" as="geometry" />
        </mxCell>
        <mxCell id="p7iLGZyrW0UDiJgstaNO-15" value="Model Serving" style="text;html=1;align=center;verticalAlign=middle;whiteSpace=wrap;rounded=0;" parent="p7iLGZyrW0UDiJgstaNO-1" vertex="1">
          <mxGeometry x="315" y="245" width="60" height="30" as="geometry" />
        </mxCell>
        <mxCell id="p7iLGZyrW0UDiJgstaNO-16" value="" style="sketch=0;outlineConnect=0;fontColor=#232F3E;gradientColor=none;fillColor=#01A88D;strokeColor=none;dashed=0;verticalLabelPosition=bottom;verticalAlign=top;align=center;html=1;fontSize=12;fontStyle=0;aspect=fixed;pointerEvents=1;shape=mxgraph.aws4.sagemaker_model;" parent="p7iLGZyrW0UDiJgstaNO-1" vertex="1">
          <mxGeometry x="321" y="279.73" width="48" height="48" as="geometry" />
        </mxCell>
        <mxCell id="p7iLGZyrW0UDiJgstaNO-17" value="&lt;font style=&quot;font-size: 8px;&quot;&gt;Model Artifact&lt;/font&gt;" style="text;html=1;align=center;verticalAlign=middle;whiteSpace=wrap;rounded=0;" parent="p7iLGZyrW0UDiJgstaNO-1" vertex="1">
          <mxGeometry x="315" y="327.73" width="60" height="10" as="geometry" />
        </mxCell>
        <mxCell id="p7iLGZyrW0UDiJgstaNO-18" style="edgeStyle=orthogonalEdgeStyle;rounded=0;orthogonalLoop=1;jettySize=auto;html=1;" parent="p7iLGZyrW0UDiJgstaNO-1" edge="1">
          <mxGeometry relative="1" as="geometry">
            <mxPoint x="260" y="303.68" as="sourcePoint" />
            <mxPoint x="321" y="303.67999999999995" as="targetPoint" />
          </mxGeometry>
        </mxCell>
        <mxCell id="sWMYRFGzsM5yNf0DS5oT-2" value="" style="shape=image;verticalLabelPosition=bottom;labelBackgroundColor=default;verticalAlign=top;aspect=fixed;imageAspect=0;image=data:image/png,iVBORw0KGgoAAAANSUhEUgAAB1MAAAFaCAYAAABL8XT/AAAACXBIWXMAAC4jAAAuIwF4pT92AAAAGXRFWHRTb2Z0d2FyZQBBZG9iZSBJbWFnZVJlYWR5ccllPAAAJTZJREFUeNrs3VlyIzmyBdBkGE17rRXUGnoFvdf8UZuqpE4NHGIAEHD3c8zK3t9rERFwDJfOvLy+vv6Cs1z++5/fo/63Xv/6+8WIAwAAAAAAsNZFmEqXF2tgSNqa0BUAAAAAAIA3wlT2vzyBA9M9hKwAAAAAAAC1CFNZ96IUC063ELICAAAAAADkJEzl50shOD1EuAoAAAAAAJCDMBXhaWfCVQAAAAAAgJiEqVUfvAD1NMJVAAAAAACAGISpVR608HRKglUAAAAAAIB5CVMzP1wBajjCVQAAAAAAgHkIU7M9UAFqGoJVAAAAAACAcwlTMzxEAWpqQlUAAAAAAIBzCFMjPzwhajmCVQAAAAAAgHGEqdEemACVd4JVAAAAAACAvoSpUR6UEJU7hKoAAAAAAAB9CFNnfjgCVDYQqgIAAAAAALQlTJ3xoQhROUiwCgAAAAAAcJwwdaaHIUSlMaEqAAAAAADAfsLUGR6CEJXOhKoAAAAAAADbCVPPHHwhKoMJVQEAAAAAANYTpp4x6EJUTiZUBQAAAAAAeE6YOnKwhahMRqgKAAAAALDe5b//SRmqvP7198XThTvzXpg6pLgKUZl5kRSoAgAAAABlZA1ERxC6UrJmCFO7FmQhKpEWQaEqAAAAABCWkPRcglbS1hZhareiLUgl6oInVAWbfXCIAgCApGc7+3TMMdQczOltrh5V8wcvRCXFOyxUBQAAAADOIDTN/SwFrIR7j3WmNisIQlTSEaiCQwIcXEccjgAAcK6zV4c0cwc1iZrzX2dqm4ctSCX1uy1UBQAAAACOEpyy5r0QrjIbYeqxCS5Epcy7LlAFAAAAuE1ABOYJ/d4V4SpnE6bun8yCVEq+80JVAACAqc5q/h0yYFftUCuAiPsdtYszCFO3T1ohKubAL6EqAADA4LOYbh4wPwHUXMEqJxCmbpukglT4NB8EqgAAAM3PWkIZYFi9EUQAWfZN6hk9CVPXTUghKtyZGwJVAACAXecpoSmYywA0rsdCVXoQpj6fgIJUWDFHhKoAAAB3z03CFmDa+iR4ALLuu9Q3WhGm3p9wQlTYOGcEqgAAQPFzkdAUAGCyvZlQlaOEqbcnmCAVDswdoSoAAJD87CM0BdLUAt2pQJV6rdax12IIfkwqQSqYRwAAAPfOO4JUAICg+zh7OfYQpn6dSAIgMJ8AAAAAHsp2GS9cAKrVcHWPLYSp/06c34If6DO3jAIAAAAAALMRqrLWYrIIe6D3HDPPAAAAgCyyXrwLFIDKdV0N5JGl+AQR8BT0+tffL0bBfAMAAAAAgA8CVe5ZCk8KwQ6YdwAAAACrZb9oFyQA6rwuVX5aCk4EPzlamK7UOeagUQAAAAAAYFZCVT5bir38QhwwFwEAAAA2q3KpLjwAUBP5ain0wgtvitOVOt+cNC8BAAAAAJiZQJWlyIsusClOkGp+AgAAAOzlIh3AOmAtqGsp8IILasA8BQAAAGAlgQGA+sgfS/KXWkCDrlTzFQAAAGA3F+cAfF8XrA21LIlfZsEMmLcAAAAA7CAoAFAn+deS9AUWyPAPXanmLwAAAAAA9CBQrWFJ+OIKYsA8BgAAADis+iW5kABArSRZmCqA4TNdqeYzAAAAAAD0JlDNbUn0ogpeIN8CZF4DAAAAp3AxbhwA1EveLEleUIELX+hKTbUAmd8AAAAAAExPoJrTkuDFFLRA/gXIPAcAAACGcRluPADUTD4swV9IAQs/6EpNuwCZ7wAAAAAATE+gmssS+EUUrEC9Bci8BwAAALpyAQ6A9YTPlqAvoECFm3SllliAzH8AAACAwYQCAGpnVdeAL54gBSxAvwXnAAAAQGsuvYGWXv/6+6Km8fYczn4XOOYa7IUTpPJoYRKu1VqABKoAAAAAAwkEqCLLe771cwhf1U9uuwZ60QSpAOBAAQAAAEAHz+58hK3HCFTjugZ5wQSpPCvyOhRrLj66UwEAAIAmhATrx0kYADXdmvtqJxUsARZnQSqgRgAAAAAATOYtYP38nxF5TPgc02IISFCsdSZagASqAAAAwG4ut40X0IZwVQ3NaJn8hRKQAOoFAAAAAEBAgtXbBKqxLBO/SIIR1hRiXamoGwAAAMBuLrSNGzCGUJWopgxTBSIAAAAAAAD56Fb9ly+lxLFM+PIIUllbcHWlooYAAAAAu7nIBjhX9VDVOhTDYgiAhAuQQBUAAACgMyEA0IpOVWY2VZgqAGFDYdWVinoCAAAAAJBIxUDVF1Pmt0z0sgg+AHUFAAAAGMLltXEE5qRLldlMEaYKPNhYSHWlAgAAAABAYpVCVV9MmZt/MxXIvgj5sgYAAADwhUtr4wnEoUuVs50epgo62Fg0daWizgAAAAAAFFKhS9UXU+a1nPxiCDgAAAAAgGGiXFZHCw2EAIDaSFZ+5pdIRVJXKkc29L68AQAAAIQgLACoWSN9MWVOy4kvhGADUHcAAACAYaJdUgtVAe7XRzWSUU4JUwUa7CiMulJRfwAAAID0IocDOqoANVMtzWg54SUQZAAAAAAArKDzCkCd5Fz+zVQiFEJdqTTlSx0AAABQj04f4wzklS1QVUvnsgx++AIMAAAAAIAbdFcBqKHMR2cqsxc/Xal04csdAAAAUEf0Dp9oAYGOKgAyGRamCi7YsUkUpKIuAQAAACXoqAJQSz/zxZR5LIMeuMACAAAAABguy2W0sBVAveQcfuaXWYudrlRGHah82QMAAAA4VcaLfx1VgLpKFt3DVEEFEGBzr04BAAAA0xMOANTiiylzWDo/ZAEFezaFulIBAAAAOCzCJXTmgFQIAKivZOBnfgF++fIHAAAAEINwAEDNZKxuYapggp2FTVcqAAAAAIfpivQcANRRWtCZCvBnUfIlEAAAAGAYHVMAai3z6xKmCiTYWdB0pQIAAABwWPYuHsEAAIyjMxXg62HLl0EAAACA7ioFon6iElBziax5mCqIYGch05XKTBt8dQwAAADinutLBHeCAQAY42oIAABgDjNf/Lmswzw03wBQ64+usdY44OzaG/ULN2roua6NH6ZuLvYUMF2pzLg4/fZuAtD64JP173egw3wc+/eZcwB8XhP8hC4A9KUzFQAAGqp4mXXrMwt7MCfP+UzmHqDuz1/3K9dqnVXADDXYl1DYqlmYqiuVnYVL5x8zb/B1pwLwaJ1w+NowPi7NMDfP/fzmIAAAwD46UwEA4AnBadsxFOpgfs4xTuYiYE3IQZcVAPTVJEzVlcrOjZ6OPyIcxHSnAtSr/S6iBo6xMAfzdK5xNCfNEW4zN/Auta1RxgE4uxZH3C+pn+fRmQoAQGkunOcZf4dCzNf5xti8BKwRMehOBYB+DoepulLZucHT6UekA5nuVIBcdd0l0+TPRniDOTvn+JubAMeoo1/XF+MBQBQ6UwEASE8YE/d5uWTzHjDvMzE/AQCACpaDByldqWymw4+I1DuAsPX7VSDjGeKZ0/dZeV7ADPVo9r9xxBdQon3JxfoBZK/L5KEzFQAAmJ6fAK7zjAEAAGAmuztTdWmxh65UAACOELjlfKaea/hzni85APYGajIApLUYAoDVBzRfIgGAOdZk4VuiZ2kUAMhOwGkvAEBsu8JUgQI7N466UgEAaEao6tkBYD0xCj8JbwGgLZ2pANsOar5MAgDzrc8uUj0vAJiSYNPeAEDNjE+YyqiNo65UAOCMPYjLq0IHSodKzwgAAABa2xym6soCqlMHAWDqdVpY57kwkC+tANaWOWtktPpsrwColcxMZyojCpKuVAAAhnEZ53kAAABAK5vCVN1YAABABAK8OZ6B5wCAdf48Oq4AoA2dqfTetOlKJevBzZdLAGD+9dpFq7EHgFMIMu0fAMhDmAoAAKTlUs6YA2CdAQA4YnWYqguLrXSlAgAwA5euxppuZz5dVwCT18dotdpeAoAZ6UwF2L/B9yUTgABc9vO+bruYM8YAAACwmTCVLnSlAgAwG2GfsQXAetPbjF/k050KAMesClN1XwGojwCQZO12OWdMAQAAYDWdqTSnKxUAgJkJ/4wlTc59fkIdsOYAACU8DVN1XQEAANm4kDWGANDazF808VO/ALCfzlRab8x0pVKOL50AQNg13CUdAAAA8JAwlWYEqQAAUIMgGgDrzlcROj91pwLAPsJUAADS82/7cY9LOmMGAAAAjyxPDsl+upJVdKUCABCVcNBYsfn85wsqgLUHAGsMZehMBWiz8PryCQAAABQU6UsmfuoXALYTptJiE6YrFQCA0FzUGSMArD0AALcsDzYruqwAAIAyXNgaGwDYKuJPn+tOBbDusM3VEHBw4upKhT+b+9/mBABAqfPQrosMl8IAAABxCFMBAGBiPb51Ksh5PDa+6et96Tn/tv7/nW38zQ/A+gMAVHO9s1nxE7+sOUTrwAMAIu1dLrNcyp0dRjz633dxSfU6EeVvMlcBrBtZ9sZr+MIbAGfSmQoAAB1Evez5/ndXDGxc1tV6/lnmatX5Clh/AAB6E6ay9+CuKxVuH/j8u6kANfdGl+yfzaUm5mysz2XOAlhL1nwG3alAVfbLbCFMBQCADape4FQLaVzW5XzOlZ5pjy5zF9gAAEBF1xsHZv9eKs8O0LruAIAq+x7BwYNx8U1ezOW4Y2D+eudhVuoTz94PNQ6A0XSmAgDAOxcz+8Yr66WnyzpzusrYCC4A6q4v0X7qFwDOIExl6wZLVyo84d9NBQi3vxG2NBpDF3Gp9jOv5rU5DGD9AcB645zDr1+LIQAAoIqPg8fb//34z6g42GU8ZHsP2Tt2aiOAdcb+DAC+EqayZbOo0w4AyLCncQHWeXyNMd69fONpbIHeBGT2xwAwq+XbpuW3IQEAAI5yKRdXxMts71vfsTW+ANivAOoHlelMZe0BWlcqbFuUfTkFAHvIJAGMw7b3DACyrznWUwC4T5gKAAB042IOAHjGF5cAgJkJU3lKVyoAAAf3kwJVvFsAWHNoSggPVKob1qFzCVMBAAAHv8SH7qyf02UCgLUHaysAjLB82rj49/24tYnSlQoAQKu9pQs6AACaEcYD6gUj6EwFAACGEajiPQLAuuOzAkAkV0PAg83Ti88Wm47z88dfdzcA3NyLXXwrGACwHwDAerPuDO0pnktnKuRdIASpAAAO4Om4SAAA7NEAGEmYyk266QAA6LzfFIhNxkUkANYdexb7NMB6Az8JUyHnAqErFQCYnos6AABaEJYAagM9Le8vlOCF/9OVCgAATHpWEcADYN3x2QHUY4a6GgLIxZcjgAF1xrf6bNih6XsWqa68/a3mBgA4UwBgraEOP/PLF7pSofmiLdwGAAAA6ExwAqgH9CJMhVyLhOAOAAhHpycA1BHlgtv+xBgA1hl1mA/CVD5PTF2pAAAAAEBIutEA6EGYCnk2i7pSAYCwfOMWALAvAeAIXan0IkzlY2LqSgUAgGIHdACwhvKIy3zAGgPCVMiyUOhKBQAAAKA8gQqY99DaIoRBVyoAAJPsS3U+AEBSUS667UeMCWB9UXf57moIym+GBKnxFwtfiAAAAAAAoAzdqIzkZ34BAAAAAEhDyALmeFS6UuckTC1MV2qKRUNXKgDg4Eil/a+LUQD12z7E2ADWFBhKmArQf4EXegMAAAAMJHCBfHM6+7z2xZV5CVOL0pWaYvEQ0AEAnHiQNwoAkGfNdIFtjABrCdwjTAUAAAAAIB0BDMSfw1XmsS+szE2YWpCu1BSLiK5UAACq7oVdigIAgH0/DCNMBQAApuIbuQCQg5/4tU8D2LN2VAtS1db5XQ1BuQ2PrtT4i4muVAAAAABY4S2UEVTA/PPUKDAznakAAACE4rIFQK3mPIJJoOVaUX29UFNj0Jlaa1LqSo2/uOhKBQAAAGjEJXYNulNhrvloFKxB0ehMBQAAINxB3iUMAADE2bvrQiUyYWoRulJTLDi6UgEA4Ose2WUMgPrMCXRTAWvWAgGqOpqFMBUAAHCwJCyXMwDYb2DPAHPMMQGq9Scr/2ZqjYmpKzX+QqQrFQAAAJieC3QA9R6yEaYCAAAQ2ttFjm93A7CFdaPNGEYLU+wZYN+8MQrWn+qEqfknpq7U+IuVrlQAAIYd7KNelrgcBQCAfftoozDuvGUUYhKmAgAAkIJAFeD8OmwUaon8RSxQhxldL41CXMLU3JNTV2r8xU9XKgAAbNtDC1QBeMg6Ya/gHWDNe2IUsO7wYTEEAAAAZPJ2+eUCDGB87TUKAPCVIDUHYWreCaorNf4hRFcqAAAO+8f21C72AcDeAQAOEaYCAACQli5VAD4T/PGxPzAKgDWHtYSpOSeortT4GzpdqQAA0HaP7dIUQI0FgCEEqbkIUwEAAChx8NelCmB9MwrG9vO+wJMD1ETWEKbmm6S6UoPTlQoAAN333EJVAACgOUFqTsJUAAAASl4CCFUB2tRSo0CVvQPAoxqoDuYlTM01WXWlxj+A6EoFAIDx+3ChKkByLri5twcwCoA1hmeEqQAAANxU7VJAqAqwvW4aBQCcmcjuagjSTFhdqfEPILpSAZtEoNW+4tVch+NzyDwAgO17yGgh+9vfa80HnJt5RJgKAACTO+NCau3/psNjfhEvRXvMA+86QOy1zCgAYG1hL2FqjkmrKzU4XanmKABEDavu/d0OlvkuCqr/lKNuVYAcexcAOHo2Mgr1CFMBAGCwCpePQlYqvNveZwC4vd/zU79A1vpmFGoSpsafvDregtOVCgDp13pdGyvGw6E0xNnj4n2+/T57fwHr+dzrlycGgPWEI4SpAADQkLDJuGUmUH3+/rpkAQDdqUCuemYUuL51NuqMCzuJdaUGZ+4BQJo1XbgE/KgHLl4AzqUOA2ANoQWdqQAAsIMAlap0p26vEy5iAHsgAIh15jEKfCZMjTuZdaXGP3zoSgWAeOu3y0P4JVA9UjtczABgvzD3mm2thtp1yyhwizA15oQWpAIADCQ0gpvnEoHqgXriogag/zplFACwZtCCMBVOoCsVAEKs10IieEKg2qbGuLwB7I9grvfc2gx1zjNGgTWEqfEmt65UAICOXBLC5jOKQLVh3XGhA4B9AkD/2mQU2EKYCoPpSi23MPsCBECcNdolD+zf87gobVyLXPAA9krH1iVPDADrA60shiDURBfKAAA09nYxKASCJucVFxNqEwCk2CNYgyFfHXJe4Yjr+4v0olsOhmzEzDMAmGdddkECjelQ7VurXAABAMD6s4lRoBWdqXEmvq5UAIBGhD3Q9ezi0qJj7VK/AHsn6xAAj9cBawGtCVNh3MFDVyoAnL8eCyJgAJcXahkARN8bWGshVo0RotLT1RCEKAS6UgEADnIZAsPPMX7yd1Bdc2kE8GftMQoAaj60JkyNcUAu1dGYMTzWlQoAp67Dwhw4b29/MQ/H1jmXSoC9FLR9/62tMN/5AkYTpgL0W9x1lQOczOUfTLMv0qU6uO65aALAfgDIUDeMAjMQpkJnulIB4LQ12EUNTMQF6jk10AUUUGU/pd4B5DgzGAVmdP30kr4IfQAAiE5YA/Pys7/n1UQXUwDMsheItg/wU7/Q92wAEehMhb6bLV9QAICxa6+ABgLQpXpefXRpBQDAGft/o0BkwlQAAFIQzEAsulTPrZUutIBMeys1jRHzwXsG6jF1CVOh3yZLV2rtjcOLUQAYuu4KYyDuvkmoelLddNkFwFlrv3Uf4u/foRJhKgAAobmIgRxcrJ5XP12IAfZXANgXwn3XbxPlRTcdNDl0mEcAMGbNddEHiehSPbeWujwD7Anh8XtmrSTCXhpoT2cqAAAhuTSDvISq59VVl3AAAIJJ4KvFEEBbulIBYMh6K2CBAt4usVxkja+vaiyoA0YBAOAPYSpAY28/mW4UAACa7q8ugtWxhCkAYH0E4F/LjUOqEAD2b6h0pQJA//XWBQYUJlRVbwEAAEbSmQoAQBgu9oEPQlV1FzDnwTwBYISrIYBmGyldqQDQd611aQH88DlQVSf61l/hNQAAUJHOVICG/FQ6AMCpezHdqh0Jq8EcBwCo6HrnAPqiyw42HTjMFwDou9a63Fvh7BDJc2LGueC9bD/PBdYAWA+thwCV+JlfAACmJgj5Y/YLm0d/n+fI2e+ld7BtXXaBDAAAVCFMhYN0pfLBT/wC0GFtuWT/LAIuRr+D3rlm5yCBKiSb00YBAOA2YSoAANOqeLFXLZz4/nld5jLynfO+Ha/RAlUArIMAZLc8OGDqsILnmyZdqQDAYW+XMB//GQvjgPct2JlIIA0AAKS2GAIAAGZU4YJekPN4bIwCo+ei9w6w5wLMHwC+E6bC/s2SrlT+Tzc/ABvXDaENmJ+ZzkYukgEAgLSWJ4dI4QAAAMNlvZgX0kC8+WrO1q7bYO4CAKAzFfYdNnSlAgCrCWTAHC5yThLKAGD9AyCdqyEAOEYXP0BbmS4jhC+Qbt93yVanAAAAeOxpZ6qQAL7SlQoArCFIhdzzW7fq3fOSoBnMVwCAVPzMLwAA08hyqSdggTqEqnlrOQBY+wB4I0yFbRsjXal8oXsfgBtrg1AFis598x8AACCfVWGqsAAAAFbtmwUpoA4IVX/p0AFzFMwrAPLQmQrrN0S6UgGg71ob+vJBeAJ8rwnqAgAAQHzCVICddO0D8GlNEJgAd+tD1RqhQwfMTQCADFaHqUIDih80dKUCAPf2yYJUYFWtUC8AIDdfVgDISWcqwA6+YALA+3ogGAE2141KtcOlMgAAEN2mMFV4QEW6UgFgyHob7rJdkAocrSHqCGDPBQAwP52pAACwkQAEUE/WE94AUIl1DyAfYSo83vzoSuUHXfoAADTeX+pSBQAAmNTmMFWIAABAZQIPoGd9UWOAXnTLgfkGwD46U+H+pkdXKj/4QgkAAAP2nOkCVZfKAABAVLvCVGECAACtRLpg1zEGjKw3ag5Qcb8FADAbnalw+5ChKxUAADidQJWdZ1rBGYBaDEAju8NU3alANeoeAAAn7UNTBKoulQEAgIh0psLPA76uVADgB91hgBoEROSLDAAAx1wNAcBzulIBAJhgT3oRigAVap1R4JaIa+Db3+ydBojvUGeqcIGEmzJdqQAAwLRcyAIAAIzlZ34BnvDFEQAAJtufClSBVaJ18qlvmIcAzOhwmCpkINHGRlcqAAAQQtTAIcOFsrAHQP0FoBadqQCPN+q+MAKAixtAbQLC0Q0HANBGkzBV2ECCA4auVAAAAICT+IIImflyA0BsOlMB7h/kfFEEAIDZ96zCBwCsewDQUbMwVehAVLpSAQAAgEyidcEJyACAmelMBbh9kPMFEQAAouxdhRAAWPcm56d+AeJqGqYKHwi4idGVCgAAQMbzrkt7AABoQGcqwDe+GAIAQMA9rO5U4B9+4hfMTwDaah6mCiEItHnRlQoAADD+LOYiGYBDhPAAjNSlM1WgCgTejKtfAAAAAADAP/zMLyXpSgUAAACy8RO/YJ4C0F63MFV3FxCNugUAQPD9rFACAOseADSmM5VydKVyZwMuSAXg0f7Bt8cBsH7heQMAFNQ1TBVOAAAAANnohgLzCI7w5QeAWHSmUm2joiuVWwc4X/wAAAAACEYoD8AI3cNUIQUAAAAA9KPLDcxbAPoZ0pkqUGWSDYquVNQnAACg2lnYZT0znsV1EwIAYfiZX6Dy4U2QCgAAABCYcB6A3oaFqUILzqQrFQBosJ/Q2QMA2KMA5i9AMUM7UwWqwCzUIwAAoAqX9Ux2HtdFCACE4md+qXBo1JXK94ObIBVgrrrsQg0A6xfsICgHNRmA/oaHqUIMAACicmEJcJwLbzD/AWcMgEhO6UwVqDJwM6IrFfUHAABwPnZZDwAAu/iZX6AMQSoALbiMBtQnwJyH+UTufDafAeZ2Wpgq1GDAJkRXKgAAAPw5J7us5zR+4hcAiOrUzlSBKqDeABCRy2gAAACAGvzMLynpSuUzQSpAiFqtUwHg2BnIlzysX94Vcx7UZT/1C0AHp4epQg4AACJy2QEAsI4vzgEAkU3RmSpQpSVdqagvAAAUOwP5cgfeGc8PeCe8B6C1aX7mV+ABqCsAROMyE2DzHt0FtzUMALUZIBT/ZirZNhy6UvmHIBUgZO0OecHuwgNQg6xfRgHMEQAgr6nCVOEHoJYAEJEwg6zv9cd/RkPtwTuEZwaRCPEBaGm6zlQhCAcOFLpSAYAz9yIuN0n7PgtV1Ry8S9XHyDgB6jJAXVP+zK9AFVA/AIjIxQcV3nGhglpzYK+etkso+mczp9fVO+Nk3gMANU37b6YKRNh4yNGViroBkKOWh79wc9FKoT24YFWNIeGcNg7zjoPnA3XOFuY7wFyuhgBIskEWpAIwjY/LD90YVHvnvffjxhl6vmfV5rG51e2cbj0AAFJYZv7jhCOsPPToSnVAUysActX1NBdvunyI+t62eO+9+2qJ9atuHTC3AADIZJn9DxSSAAAQnctaqr/73v9jY5jhc+hQs3apS2oBWH/Me4CoQvzM71ugqvuQO5sK74VNsS9cABBp7+Lnfyn//psD28YKrF1zzamKP4O886xujACANML8m6kCVeBWXTAKAGlr/CVzmCBUojpz4Pm4ZKvp1i/z1nzyWQAAorpG+mMFqnw7THgXChOkApBoTyNUwhz4us+7VP78YN6aR0Bbkb/oohseYA7XaH+wQBUQpAKUqfeXapejQiWX4Z5B/nngPbd+VakdLeeueRNvDhgFACCTqyEg6EFNoF73UCZIBaDSnqfr5fQsnwn2vjOzzwfvu1DF3M372Ua92+oIoDsV4Hwhw1TdqVCTIBWgZO2/uET8as149L5s8UyINB9azw/vPwA4VwBQS9jOVIFqXZ572U2vIBUA1u+XXBSB+THDHv5S+bN71zDvAQByWIJv0IQrUOMwZq4D1F4HXMoBAOUI5AH1AGAOS/QPIGQpt3HQlVqMOQ7A+3ogUIX+e22XdKjbxgA1E9RlAPhmyfAhhC2QdpNrbgMAQLx9vMtqY8FBEcNa7zsAkNWS5YMIXUocJHSlFmJOA3BjbXBBBwAAlDxT6IgHOM+S6cMIX8BcBiD9GiFQBVCnjQl4zwEAhlmyfSAhTE66UksdwMxhAIDx+22dDrTYywtTQE0GAEhnyfihhDFg7gKQer1wWQ+AtYvTCT1BTVZ3AGpYsn4woUyqw4mu1BobWXMWgC3rhktpAHXZGIF3GwCguyXzh3sLZwQ0EGOuGgUAdqwfLu4A1GNIRdcZoE4AzGep8CEFNaE3B7pSzU8AeLSOuMAHUIeNFwDqMQDdLFU+qMAGzEsAAH7S3cCB/byLaOOmhhavod5nAKCCpdKHFdyEO5DoSjUfAWDNmuISD0DtNX6E58stgHoBMKel2gcW4MD5c9A8BKDD+uJSGkDNNY4AqMMANLdU/NCCnPnpSjX3AGDHOuMyBECthZAidpmpBwBAFUvVD647DsbPOaMAwID15uJiD6BfjTUKxpSf/NwmqMNqD0BuS/UBEPBMuRHQlWqeAcDRtcflNKzbe7uEQ101tgAAwAOLIRD0gPkFQNI1yOU0QINaqp5as+jLT/wCAMxNmPpnEyjwgcZzyrwCYIL1yEUfgBoaZryNOYD1bgu/MgIwhjD168Ip/IFGc8koADDRuuRyGkDdDDX+RiGeSoGGdxQAqEaYentTKAgC8weAfGuUiz8AtdJzYCq6ygB1BGB+wtT7BxeBEGycM+YNAAHWK91W8M7FG+rj/M/EKACouQCcT5j6eBEVDsHKuWIUAAi2dgkNMA/MAdRDzwc11ecEAHhKmLpuoygogjtzw/wAIPha5pIac8AcKP38jYJnxXl11C8EAK2oJwB9XQ3B6s3xy/vC9NtogC8ZAJBuXbu87/VcQlB6DpgH9Z431irMI+DPvFZjAbhFmLp9UX0RqGIeCFIBSLvGuajGPBCspn+uWKs4fx5FfH7qCABQlTB13+ZRlyql330AKLDmuajm7ntR+TObE95b5nq25qQ5BKitn/dpahZAH8LUY4urLlXKvOtGAYCia6AOveLPHXPCO0yEZ20+mkMAAPQjTD2+wdalSol3HACsiUKkzM8Uc8I7jfloDEf9b/mJXwCAWISp7TaVulRJ904bBQC4u066tA74rBg3zuaF95vz3wvz0PwB9tcHP/ULwJf6+vpqb91h0RKqEn3TKEgFgP17QRvssfsWl0XmhHcezEXzBwCAfntpYWrXg4pQlWgHSyEqALTfE9pw79uXuPA2LzAXMA/NHwAAzt87C1OHHFCEqsx+wBSiAsD4PWK5jbhLbcwJ8wPz0BwCACDcPlmYOuxAIlBlxsOmEBUA5t0/Tr1Rd2mN+WDeYB6aQwAAlNgLC1OHHz6EqpxOiAoAQIGz15DDrnAHAAAg+flSmHrawV6oynBCVAAAAAAAgPWEqWc/AKEqAwhRAQAAAAAAthOmzvIghKp0IEQFAAAAAADYT5g62wMRqtKAEBUAAAAAAOA4YerMD0ewykZCVAAAAAAAgHaEqREeklCVJ4SoAAAAAAAA7QlTIz0soSqfCFABAAAAAAD6EqZGfXCC1bKEqAAAAAAAAGMIU6M/QKFqCQJUAAAAAACA8YSpmR6mYDUVASoAAAAAAMC5hKlZH6xgNSwhKgAAAAAAwByEqRUesmB1asJTAAAAAACAOQlTKz504erpBKgAAAAAAADzE6ZWfwEEq8MIUAEAAAAAAGIRpvL1hRCuNiM8BQAAAAAAiE2YyuMXRLi6iuAUAAAAAAAgH2Eq21+a4gGr4BQAAAAAAKAGYSptX6hEQavQFAAAAAAAoLb/CTAAMtplAlxrI68AAAAASUVORK5CYII=;" parent="p7iLGZyrW0UDiJgstaNO-1" vertex="1">
          <mxGeometry x="302.5" y="470" width="85" height="15.66" as="geometry" />
        </mxCell>
        <mxCell id="sWMYRFGzsM5yNf0DS5oT-10" style="edgeStyle=orthogonalEdgeStyle;rounded=0;orthogonalLoop=1;jettySize=auto;html=1;exitX=0.5;exitY=0;exitDx=0;exitDy=0;entryX=0.5;entryY=1;entryDx=0;entryDy=0;startArrow=classic;startFill=1;" parent="p7iLGZyrW0UDiJgstaNO-1" source="sWMYRFGzsM5yNf0DS5oT-7" target="p7iLGZyrW0UDiJgstaNO-3" edge="1">
          <mxGeometry relative="1" as="geometry" />
        </mxCell>
        <mxCell id="_12LOTGPk8q6wRgUfRgQ-1" style="edgeStyle=orthogonalEdgeStyle;rounded=0;orthogonalLoop=1;jettySize=auto;html=1;exitX=1;exitY=0.5;exitDx=0;exitDy=0;startArrow=classic;startFill=1;entryX=0.08;entryY=0.5;entryDx=0;entryDy=0;entryPerimeter=0;" parent="p7iLGZyrW0UDiJgstaNO-1" source="sWMYRFGzsM5yNf0DS5oT-7" target="ugeQi5Rl_vIM3E2bntUt-1" edge="1">
          <mxGeometry relative="1" as="geometry">
            <Array as="points" />
            <mxPoint x="425.3352383607471" y="502.5" as="targetPoint" />
          </mxGeometry>
        </mxCell>
        <mxCell id="sWMYRFGzsM5yNf0DS5oT-7" value="" style="rounded=1;whiteSpace=wrap;html=1;fillColor=none;" parent="p7iLGZyrW0UDiJgstaNO-1" vertex="1">
          <mxGeometry x="300" y="440" width="90" height="125" as="geometry" />
        </mxCell>
        <mxCell id="sWMYRFGzsM5yNf0DS5oT-8" value="" style="image;sketch=0;aspect=fixed;html=1;points=[];align=center;fontSize=12;image=img/lib/mscae/Docker.svg;" parent="p7iLGZyrW0UDiJgstaNO-1" vertex="1">
          <mxGeometry x="320" y="510.51" width="50" height="41" as="geometry" />
        </mxCell>
        <mxCell id="sWMYRFGzsM5yNf0DS5oT-9" value="Model Orchestrator" style="text;html=1;align=center;verticalAlign=middle;whiteSpace=wrap;rounded=0;" parent="p7iLGZyrW0UDiJgstaNO-1" vertex="1">
          <mxGeometry x="315" y="565" width="60" height="30" as="geometry" />
        </mxCell>
        <mxCell id="ugeQi5Rl_vIM3E2bntUt-1" value="Client" style="sketch=0;aspect=fixed;pointerEvents=1;shadow=0;dashed=0;html=1;strokeColor=none;labelPosition=center;verticalLabelPosition=bottom;verticalAlign=top;align=center;fillColor=#000000;shape=mxgraph.mscae.enterprise.client_application" vertex="1" parent="p7iLGZyrW0UDiJgstaNO-1">
          <mxGeometry x="420" y="472.5" width="93.75" height="60" as="geometry" />
        </mxCell>
      </root>
    </mxGraphModel>
  </diagram>
  <diagram name="Orchestrator Pattern" id="ALllCXVZiiUhQvUz7QeT">
    <mxGraphModel dx="689" dy="380" grid="1" gridSize="10" guides="1" tooltips="1" connect="1" arrows="1" fold="1" page="1" pageScale="1" pageWidth="850" pageHeight="1100" math="0" shadow="0">
      <root>
        <mxCell id="vZ4TWPNjL3DsDQ2jC6C0-0" />
        <mxCell id="vZ4TWPNjL3DsDQ2jC6C0-1" parent="vZ4TWPNjL3DsDQ2jC6C0-0" />
        <mxCell id="2dFnWW9d5td4gIMIQy4T-6" value="" style="rounded=1;whiteSpace=wrap;html=1;fillColor=none;strokeColor=light-dark(#000000,#EDEDED);" vertex="1" parent="vZ4TWPNjL3DsDQ2jC6C0-1">
          <mxGeometry x="230" y="283" width="90" height="197" as="geometry" />
        </mxCell>
        <mxCell id="2dFnWW9d5td4gIMIQy4T-0" value="" style="sketch=0;aspect=fixed;pointerEvents=1;shadow=0;dashed=0;html=1;strokeColor=none;labelPosition=center;verticalLabelPosition=bottom;verticalAlign=top;align=center;fillColor=#000000;shape=mxgraph.mscae.enterprise.application_blank" vertex="1" parent="vZ4TWPNjL3DsDQ2jC6C0-1">
          <mxGeometry x="250" y="300" width="50" height="43" as="geometry" />
        </mxCell>
        <mxCell id="2dFnWW9d5td4gIMIQy4T-1" value="" style="sketch=0;aspect=fixed;pointerEvents=1;shadow=0;dashed=0;html=1;strokeColor=none;labelPosition=center;verticalLabelPosition=bottom;verticalAlign=top;align=center;fillColor=#000000;shape=mxgraph.mscae.enterprise.settings" vertex="1" parent="vZ4TWPNjL3DsDQ2jC6C0-1">
          <mxGeometry x="265" y="317.5" width="20" height="20" as="geometry" />
        </mxCell>
        <mxCell id="2dFnWW9d5td4gIMIQy4T-2" value="" style="sketch=0;aspect=fixed;pointerEvents=1;shadow=0;dashed=0;html=1;strokeColor=none;labelPosition=center;verticalLabelPosition=bottom;verticalAlign=top;align=center;fillColor=#000000;shape=mxgraph.mscae.enterprise.application_blank" vertex="1" parent="vZ4TWPNjL3DsDQ2jC6C0-1">
          <mxGeometry x="250" y="360" width="50" height="43" as="geometry" />
        </mxCell>
        <mxCell id="2dFnWW9d5td4gIMIQy4T-3" value="" style="sketch=0;aspect=fixed;pointerEvents=1;shadow=0;dashed=0;html=1;strokeColor=none;labelPosition=center;verticalLabelPosition=bottom;verticalAlign=top;align=center;fillColor=#000000;shape=mxgraph.mscae.enterprise.settings" vertex="1" parent="vZ4TWPNjL3DsDQ2jC6C0-1">
          <mxGeometry x="265" y="377.5" width="20" height="20" as="geometry" />
        </mxCell>
        <mxCell id="2dFnWW9d5td4gIMIQy4T-4" value="" style="sketch=0;aspect=fixed;pointerEvents=1;shadow=0;dashed=0;html=1;strokeColor=none;labelPosition=center;verticalLabelPosition=bottom;verticalAlign=top;align=center;fillColor=#000000;shape=mxgraph.mscae.enterprise.application_blank" vertex="1" parent="vZ4TWPNjL3DsDQ2jC6C0-1">
          <mxGeometry x="250" y="420" width="50" height="43" as="geometry" />
        </mxCell>
        <mxCell id="2dFnWW9d5td4gIMIQy4T-5" value="" style="sketch=0;aspect=fixed;pointerEvents=1;shadow=0;dashed=0;html=1;strokeColor=none;labelPosition=center;verticalLabelPosition=bottom;verticalAlign=top;align=center;fillColor=#000000;shape=mxgraph.mscae.enterprise.settings" vertex="1" parent="vZ4TWPNjL3DsDQ2jC6C0-1">
          <mxGeometry x="265" y="437.5" width="20" height="20" as="geometry" />
        </mxCell>
        <mxCell id="ybEU_Xj-KVWFa7uOB6vT-0" style="edgeStyle=orthogonalEdgeStyle;rounded=0;orthogonalLoop=1;jettySize=auto;html=1;exitX=0;exitY=0.5;exitDx=0;exitDy=0;exitPerimeter=0;entryX=0.5;entryY=1;entryDx=0;entryDy=0;entryPerimeter=0;startArrow=classic;startFill=1;" edge="1" parent="vZ4TWPNjL3DsDQ2jC6C0-1" source="2dFnWW9d5td4gIMIQy4T-4" target="2dFnWW9d5td4gIMIQy4T-7">
          <mxGeometry relative="1" as="geometry" />
        </mxCell>
        <mxCell id="2dFnWW9d5td4gIMIQy4T-7" value="" style="sketch=0;aspect=fixed;pointerEvents=1;shadow=0;dashed=0;html=1;strokeColor=none;labelPosition=center;verticalLabelPosition=bottom;verticalAlign=top;align=center;fillColor=#000000;shape=mxgraph.mscae.enterprise.application_blank" vertex="1" parent="vZ4TWPNjL3DsDQ2jC6C0-1">
          <mxGeometry x="140" y="360" width="50" height="43" as="geometry" />
        </mxCell>
        <mxCell id="2dFnWW9d5td4gIMIQy4T-9" style="edgeStyle=orthogonalEdgeStyle;rounded=0;orthogonalLoop=1;jettySize=auto;html=1;exitX=0;exitY=0.5;exitDx=0;exitDy=0;exitPerimeter=0;entryX=1;entryY=0.5;entryDx=0;entryDy=0;entryPerimeter=0;startArrow=classic;startFill=1;" edge="1" parent="vZ4TWPNjL3DsDQ2jC6C0-1" source="2dFnWW9d5td4gIMIQy4T-2" target="2dFnWW9d5td4gIMIQy4T-7">
          <mxGeometry relative="1" as="geometry" />
        </mxCell>
        <mxCell id="ybEU_Xj-KVWFa7uOB6vT-1" style="edgeStyle=orthogonalEdgeStyle;rounded=0;orthogonalLoop=1;jettySize=auto;html=1;exitX=0;exitY=0.5;exitDx=0;exitDy=0;exitPerimeter=0;entryX=0.5;entryY=0;entryDx=0;entryDy=0;entryPerimeter=0;" edge="1" parent="vZ4TWPNjL3DsDQ2jC6C0-1" source="2dFnWW9d5td4gIMIQy4T-0" target="2dFnWW9d5td4gIMIQy4T-7">
          <mxGeometry relative="1" as="geometry" />
        </mxCell>
        <mxCell id="ybEU_Xj-KVWFa7uOB6vT-2" value="" style="sketch=0;aspect=fixed;pointerEvents=1;shadow=0;dashed=0;html=1;strokeColor=none;labelPosition=center;verticalLabelPosition=bottom;verticalAlign=top;align=center;fillColor=#000000;shape=mxgraph.mscae.enterprise.tool;" vertex="1" parent="vZ4TWPNjL3DsDQ2jC6C0-1">
          <mxGeometry x="155" y="377.5" width="20" height="18" as="geometry" />
        </mxCell>
        <mxCell id="ybEU_Xj-KVWFa7uOB6vT-3" value="" style="sketch=0;aspect=fixed;pointerEvents=1;shadow=0;dashed=0;html=1;strokeColor=none;labelPosition=center;verticalLabelPosition=bottom;verticalAlign=top;align=center;fillColor=#000000;shape=mxgraph.mscae.enterprise.client_application" vertex="1" parent="vZ4TWPNjL3DsDQ2jC6C0-1">
          <mxGeometry x="60" y="366" width="50" height="32" as="geometry" />
        </mxCell>
        <mxCell id="ybEU_Xj-KVWFa7uOB6vT-4" style="edgeStyle=orthogonalEdgeStyle;rounded=0;orthogonalLoop=1;jettySize=auto;html=1;exitX=0.92;exitY=0.5;exitDx=0;exitDy=0;exitPerimeter=0;entryX=0;entryY=0.5;entryDx=0;entryDy=0;entryPerimeter=0;endArrow=classic;endFill=1;startArrow=classic;startFill=1;" edge="1" parent="vZ4TWPNjL3DsDQ2jC6C0-1" source="ybEU_Xj-KVWFa7uOB6vT-3" target="2dFnWW9d5td4gIMIQy4T-7">
          <mxGeometry relative="1" as="geometry" />
        </mxCell>
        <mxCell id="ybEU_Xj-KVWFa7uOB6vT-6" value="&lt;font style=&quot;font-size: 10px; color: rgb(0, 0, 0); background-color: rgb(255, 255, 255);&quot;&gt;Orchestrator&lt;/font&gt;" style="text;html=1;align=center;verticalAlign=middle;whiteSpace=wrap;rounded=0;" vertex="1" parent="vZ4TWPNjL3DsDQ2jC6C0-1">
          <mxGeometry x="135" y="403" width="60" height="30" as="geometry" />
        </mxCell>
        <mxCell id="ybEU_Xj-KVWFa7uOB6vT-8" value="&lt;font style=&quot;font-size: 10px;&quot;&gt;Client&lt;/font&gt;" style="text;html=1;align=center;verticalAlign=middle;whiteSpace=wrap;rounded=0;" vertex="1" parent="vZ4TWPNjL3DsDQ2jC6C0-1">
          <mxGeometry x="55" y="403" width="60" height="30" as="geometry" />
        </mxCell>
        <mxCell id="ybEU_Xj-KVWFa7uOB6vT-9" value="&lt;font style=&quot;font-size: 10px;&quot;&gt;Business Services&lt;/font&gt;" style="text;html=1;align=center;verticalAlign=middle;whiteSpace=wrap;rounded=0;" vertex="1" parent="vZ4TWPNjL3DsDQ2jC6C0-1">
          <mxGeometry x="245" y="480" width="60" height="30" as="geometry" />
        </mxCell>
      </root>
    </mxGraphModel>
  </diagram>
  <diagram name="Choreography Pattern" id="XNU5celeJo8qKr0r9V36">
    <mxGraphModel dx="574" dy="316" grid="1" gridSize="10" guides="1" tooltips="1" connect="1" arrows="1" fold="1" page="1" pageScale="1" pageWidth="850" pageHeight="1100" math="0" shadow="0">
      <root>
        <mxCell id="0XmSE1Gz9xjmOr3CnLN_-0" />
        <mxCell id="0XmSE1Gz9xjmOr3CnLN_-1" parent="0XmSE1Gz9xjmOr3CnLN_-0" />
        <mxCell id="0XmSE1Gz9xjmOr3CnLN_-2" value="" style="rounded=1;whiteSpace=wrap;html=1;fillColor=none;strokeColor=light-dark(#000000,#EDEDED);" vertex="1" parent="0XmSE1Gz9xjmOr3CnLN_-1">
          <mxGeometry x="140" y="340" width="230" height="80" as="geometry" />
        </mxCell>
        <mxCell id="0XmSE1Gz9xjmOr3CnLN_-4" value="" style="sketch=0;aspect=fixed;pointerEvents=1;shadow=0;dashed=0;html=1;strokeColor=none;labelPosition=center;verticalLabelPosition=bottom;verticalAlign=top;align=center;fillColor=#000000;shape=mxgraph.mscae.enterprise.application_blank" vertex="1" parent="0XmSE1Gz9xjmOr3CnLN_-1">
          <mxGeometry x="160" y="360.5" width="50" height="43" as="geometry" />
        </mxCell>
        <mxCell id="0XmSE1Gz9xjmOr3CnLN_-5" value="" style="sketch=0;aspect=fixed;pointerEvents=1;shadow=0;dashed=0;html=1;strokeColor=none;labelPosition=center;verticalLabelPosition=bottom;verticalAlign=top;align=center;fillColor=#000000;shape=mxgraph.mscae.enterprise.settings" vertex="1" parent="0XmSE1Gz9xjmOr3CnLN_-1">
          <mxGeometry x="175" y="378" width="20" height="20" as="geometry" />
        </mxCell>
        <mxCell id="0XmSE1Gz9xjmOr3CnLN_-6" value="" style="sketch=0;aspect=fixed;pointerEvents=1;shadow=0;dashed=0;html=1;strokeColor=none;labelPosition=center;verticalLabelPosition=bottom;verticalAlign=top;align=center;fillColor=#000000;shape=mxgraph.mscae.enterprise.application_blank" vertex="1" parent="0XmSE1Gz9xjmOr3CnLN_-1">
          <mxGeometry x="230" y="360.5" width="50" height="43" as="geometry" />
        </mxCell>
        <mxCell id="0XmSE1Gz9xjmOr3CnLN_-7" value="" style="sketch=0;aspect=fixed;pointerEvents=1;shadow=0;dashed=0;html=1;strokeColor=none;labelPosition=center;verticalLabelPosition=bottom;verticalAlign=top;align=center;fillColor=#000000;shape=mxgraph.mscae.enterprise.settings" vertex="1" parent="0XmSE1Gz9xjmOr3CnLN_-1">
          <mxGeometry x="245" y="378" width="20" height="20" as="geometry" />
        </mxCell>
        <mxCell id="0XmSE1Gz9xjmOr3CnLN_-8" value="" style="sketch=0;aspect=fixed;pointerEvents=1;shadow=0;dashed=0;html=1;strokeColor=none;labelPosition=center;verticalLabelPosition=bottom;verticalAlign=top;align=center;fillColor=#000000;shape=mxgraph.mscae.enterprise.application_blank" vertex="1" parent="0XmSE1Gz9xjmOr3CnLN_-1">
          <mxGeometry x="300" y="360.5" width="50" height="43" as="geometry" />
        </mxCell>
        <mxCell id="0XmSE1Gz9xjmOr3CnLN_-9" value="" style="sketch=0;aspect=fixed;pointerEvents=1;shadow=0;dashed=0;html=1;strokeColor=none;labelPosition=center;verticalLabelPosition=bottom;verticalAlign=top;align=center;fillColor=#000000;shape=mxgraph.mscae.enterprise.settings" vertex="1" parent="0XmSE1Gz9xjmOr3CnLN_-1">
          <mxGeometry x="315" y="378" width="20" height="20" as="geometry" />
        </mxCell>
        <mxCell id="0XmSE1Gz9xjmOr3CnLN_-15" value="" style="sketch=0;aspect=fixed;pointerEvents=1;shadow=0;dashed=0;html=1;strokeColor=none;labelPosition=center;verticalLabelPosition=bottom;verticalAlign=top;align=center;fillColor=#000000;shape=mxgraph.mscae.enterprise.client_application" vertex="1" parent="0XmSE1Gz9xjmOr3CnLN_-1">
          <mxGeometry x="60" y="366" width="50" height="32" as="geometry" />
        </mxCell>
        <mxCell id="0XmSE1Gz9xjmOr3CnLN_-18" value="&lt;font style=&quot;font-size: 10px;&quot;&gt;Client&lt;/font&gt;" style="text;html=1;align=center;verticalAlign=middle;whiteSpace=wrap;rounded=0;" vertex="1" parent="0XmSE1Gz9xjmOr3CnLN_-1">
          <mxGeometry x="55" y="403" width="60" height="30" as="geometry" />
        </mxCell>
        <mxCell id="0XmSE1Gz9xjmOr3CnLN_-19" value="&lt;font style=&quot;font-size: 10px;&quot;&gt;Business Services&lt;/font&gt;" style="text;html=1;align=center;verticalAlign=middle;whiteSpace=wrap;rounded=0;" vertex="1" parent="0XmSE1Gz9xjmOr3CnLN_-1">
          <mxGeometry x="225" y="420" width="60" height="30" as="geometry" />
        </mxCell>
        <mxCell id="BH5N_wFmvS6hy9vrgzOy-0" style="edgeStyle=orthogonalEdgeStyle;rounded=0;orthogonalLoop=1;jettySize=auto;html=1;exitX=1;exitY=0.5;exitDx=0;exitDy=0;exitPerimeter=0;entryX=0;entryY=0.5;entryDx=0;entryDy=0;entryPerimeter=0;startArrow=none;startFill=0;" edge="1" parent="0XmSE1Gz9xjmOr3CnLN_-1" source="0XmSE1Gz9xjmOr3CnLN_-4" target="0XmSE1Gz9xjmOr3CnLN_-6">
          <mxGeometry relative="1" as="geometry" />
        </mxCell>
        <mxCell id="BH5N_wFmvS6hy9vrgzOy-1" style="edgeStyle=orthogonalEdgeStyle;rounded=0;orthogonalLoop=1;jettySize=auto;html=1;exitX=1;exitY=0.5;exitDx=0;exitDy=0;exitPerimeter=0;entryX=0;entryY=0.5;entryDx=0;entryDy=0;entryPerimeter=0;startArrow=none;startFill=0;" edge="1" parent="0XmSE1Gz9xjmOr3CnLN_-1" source="0XmSE1Gz9xjmOr3CnLN_-6" target="0XmSE1Gz9xjmOr3CnLN_-8">
          <mxGeometry relative="1" as="geometry" />
        </mxCell>
        <mxCell id="BH5N_wFmvS6hy9vrgzOy-2" style="edgeStyle=orthogonalEdgeStyle;rounded=0;orthogonalLoop=1;jettySize=auto;html=1;exitX=0.92;exitY=0.5;exitDx=0;exitDy=0;exitPerimeter=0;entryX=0;entryY=0.5;entryDx=0;entryDy=0;entryPerimeter=0;" edge="1" parent="0XmSE1Gz9xjmOr3CnLN_-1" source="0XmSE1Gz9xjmOr3CnLN_-15" target="0XmSE1Gz9xjmOr3CnLN_-4">
          <mxGeometry relative="1" as="geometry" />
        </mxCell>
        <mxCell id="BH5N_wFmvS6hy9vrgzOy-3" style="edgeStyle=orthogonalEdgeStyle;rounded=0;orthogonalLoop=1;jettySize=auto;html=1;exitX=1;exitY=0.5;exitDx=0;exitDy=0;exitPerimeter=0;entryX=0.5;entryY=0;entryDx=0;entryDy=0;entryPerimeter=0;" edge="1" parent="0XmSE1Gz9xjmOr3CnLN_-1" source="0XmSE1Gz9xjmOr3CnLN_-8" target="0XmSE1Gz9xjmOr3CnLN_-15">
          <mxGeometry relative="1" as="geometry">
            <Array as="points">
              <mxPoint x="390" y="382" />
              <mxPoint x="390" y="320" />
              <mxPoint x="85" y="320" />
            </Array>
          </mxGeometry>
        </mxCell>
      </root>
    </mxGraphModel>
  </diagram>
</mxfile>
